<?xml version="1.0" encoding="utf-8"?>
<!DOCTYPE svg PUBLIC "-//W3C//DTD SVG 1.0//EN" "http://www.w3.org/TR/2001/REC-SVG-20010904/DTD/svg10.dtd">
<svg version="1.0" xmlns="http://www.w3.org/2000/svg" width="2816px" height="1536px" viewBox="0 0 2816 1536" preserveAspectRatio="xMidYMid meet">
 <g fill="#000000">
  <path d="M0 1531.5 c0 -3.3 0.4 -4.5 1.5 -4.5 2.1 0 6.5 4.8 6.5 7 0 1.7 -0.7 2 -4 2 l-4 0 0 -4.5z"/>
  <path d="M2811 1533.5 c0 -2 0.5 -2.5 2.5 -2.5 2 0 2.5 0.5 2.5 2.5 0 2 -0.5 2.5 -2.5 2.5 -2 0 -2.5 -0.5 -2.5 -2.5z"/>
  <path d="M1126 1293.2 c0 -4.2 1.2 -7.4 8 -20.8 14.5 -29.1 23.9 -46 37 -66.9 14.1 -22.6 22.1 -34.8 31.2 -47.9 4.6 -6.5 8.8 -12.5 9.3 -13.4 0.6 -0.9 5.7 -7.9 11.5 -15.5 5.8 -7.6 12.8 -16.9 15.5 -20.7 2.8 -3.7 7.8 -10.3 11.3 -14.5 20.9 -25.6 33.2 -79.7 25.8 -114 -1.7 -7.9 -6.8 -23 -9.9 -29 -7.4 -14.6 -19.5 -27.4 -31.8 -33.4 -16.8 -8.2 -29.2 -9.1 -44.4 -3.2 -24.8 9.6 -43.6 31.7 -48.5 56.9 -4.3 21.6 9.1 48.1 29 57.6 10.3 5 18.8 6.3 27 4.2 10 -2.5 16.8 -6.3 23.6 -13.2 16.5 -16.5 18.6 -40 4.9 -55.1 -5.7 -6.4 -14.2 -10.7 -20.9 -10.7 -16.5 0.1 -31.3 17.9 -27 32.6 2.6 8.5 12.1 16.8 19.2 16.8 3.8 0 10.7 -5 12 -8.8 0.8 -2.4 0.7 -3.6 -0.9 -6.2 l-2 -3.2 -2.3 2.1 c-1.8 1.7 -3.3 2.2 -6.2 1.9 -3.8 -0.3 -3.9 -0.4 -4.2 -4.4 -0.3 -3.5 0.2 -4.6 2.8 -7.3 2.9 -2.9 3.7 -3.1 9.9 -3.1 11 0 14.1 3.7 14.1 17.2 0 10.6 -2.1 15.6 -8.2 19.5 -4.1 2.6 -4.9 2.8 -15.3 2.8 -10.3 0 -11.3 -0.2 -15.8 -2.8 -6 -3.7 -11.2 -9.7 -13.1 -15.5 -2.6 -7.5 -2.1 -22.7 0.9 -30.7 1.3 -3.6 3.1 -7.3 3.9 -8.1 0.9 -0.8 1.9 -2.1 2.3 -2.8 1.2 -2 10.9 -8.3 15 -9.8 2.3 -0.8 8.1 -1.3 14.8 -1.2 8.9 0 12.1 0.4 16.7 2.3 15 5.9 28.4 23.5 33.9 44.6 2.1 8.1 2.4 11.1 2.4 30.5 -0.1 19.9 -0.3 22.4 -2.8 33.1 -3.1 13.1 -10.3 31.9 -17.1 44.3 -10.2 18.6 -38.3 51.1 -55.1 63.6 -3.3 2.5 -8.3 6.3 -11.1 8.6 -4.6 3.7 -18.1 12.3 -25.9 16.5 -1.6 0.9 -3.1 2.6 -3.3 3.8 -0.3 1.6 -1 2.1 -3.3 2.1 -2.4 0 -2.9 0.4 -2.9 2.3 0 1.9 -1.4 2.8 -9.5 6 -5.3 2 -10.4 3.7 -11.3 3.7 -0.9 0 -9.8 2.4 -19.7 5.4 -21.6 6.4 -41.9 11 -60.4 13.6 -15.8 2.3 -57.2 4.4 -61.6 3.2 -2.8 -0.8 -3 -1.1 -3 -5.8 l0 -4.9 15.5 -0.6 c58.9 -2.5 127.7 -23.2 169 -50.9 14.8 -10 21.1 -14.9 33.3 -26.2 18 -16.7 32.7 -36 42.2 -55.3 13.2 -26.9 19.1 -52.7 16.5 -72.2 -1.2 -9 -1.6 -10.6 -2.4 -8.2 -4 13.3 -8 20.4 -15.6 27.5 -11.8 11 -21.3 14.4 -40.4 14.4 -14.9 0 -21.6 -1.8 -31.7 -8.2 -12.4 -8 -23.2 -24.1 -26.4 -39.3 -1.9 -9.2 -1.9 -24.7 0.1 -34.3 6 -29.1 32.1 -55.2 61.8 -61.7 11.5 -2.6 28.3 -1.7 39.1 1.9 28.5 9.6 47.6 35 55.2 73.2 2.6 13.2 2.3 43.8 -0.5 59.3 -1.2 6.3 -2 11.6 -1.8 11.8 0.8 0.9 8.9 -18.6 11.5 -27.7 7.3 -26.1 7.6 -39 1.2 -64.4 -6.9 -27.4 -23.1 -54.6 -47.6 -80.4 -14.7 -15.4 -25.9 -23 -37 -25.1 -3.9 -0.7 -6.1 -0.5 -11 1 -8.5 2.7 -12.3 2.5 -13.1 -0.5 -1.2 -4.8 -0.1 -7 4.6 -9.3 3.8 -2 6 -2.3 15.5 -2.3 19.2 0.1 26.4 3.9 48.5 26 15.5 15.4 23.3 25.1 32.8 40.8 10.1 16.7 18.8 41.6 21.2 61.2 2.1 17.3 0.8 42.2 -3 54.9 -1.7 6 -0.3 4.5 3.5 -3.6 11.5 -24.7 15.1 -38 14.2 -53.3 -1 -17.1 -6.8 -31.1 -24.1 -57.9 -10.7 -16.7 -18.9 -33.1 -21.8 -43.6 -4.1 -15.5 -2.5 -47.2 2.8 -51.5 0.7 -0.6 3 -1 5.1 -0.8 l3.8 0.3 -0.1 5.5 c0 3 -0.8 8.4 -1.8 12 -4.6 16.4 1.4 37.9 17.7 63.5 3.8 6.1 8.4 13.3 10.2 16 10.6 16.6 16.6 31.7 18.6 46.4 1.4 10.4 0.7 27.4 -1.6 36 -0.9 3.5 -1.4 6.5 -1.2 6.7 0.8 0.8 5.4 -7.2 10.4 -18.1 11.1 -24 17.5 -50.5 19 -78.2 l0.6 -12.2 -3.9 -0.6 c-15.8 -2.7 -28.6 -11.8 -39.2 -28 -9.1 -13.8 -14 -28.3 -16.3 -47.6 -2.7 -23.1 2 -46.7 14.2 -71.2 7.6 -15.4 16.8 -28.5 28.7 -40.9 11.7 -12.2 22 -20 41.4 -31.5 9.3 -5.5 15 -9.5 15.4 -10.8 4.3 -15.4 15.9 -33.2 24.5 -37.5 5.8 -3 15.9 -2.8 19.6 0.4 2.5 2.1 2.8 3.2 3.1 9.7 0.3 6.9 0.2 7.7 -2.9 12.2 -3.9 5.9 -13.3 13.6 -25.4 20.9 -8.2 5 -9 5.7 -9.8 9.4 -1.2 5.5 -0.1 20.1 2.3 29.5 2.5 9.8 8.4 24.8 14.6 37 6.1 12.3 12.9 28.3 16.5 39.2 5.1 15.1 6.3 23.9 6.2 46.2 0 18.5 -0.4 23.6 -3.8 43.5 -0.9 5.4 6.9 -10.1 10.5 -20.8 3.9 -11.9 6.4 -30.2 5.5 -41.7 -0.9 -12.8 -3.3 -28.4 -6 -40 -3.3 -13.7 -7.1 -34.9 -8.6 -47.4 -1.7 -15.6 -0.7 -47.9 2.1 -60.6 8.9 -41.4 29.2 -70.6 63.5 -91.4 11.7 -7.1 28 -14.5 60.2 -27.5 32.3 -12.9 40.4 -16.6 48.9 -22.2 l5.1 -3.4 0.7 -12.7 c0.7 -14.4 1.7 -18.9 4.7 -22.7 1.8 -2.3 2.7 -2.6 8.4 -2.6 5.8 0 6.5 0.2 8.9 3 3.1 3.8 4 8.2 3.4 16.8 -0.6 8.4 -3.3 13.8 -10.8 21.7 -4.2 4.4 -6.2 7.4 -7.3 11.1 -5.7 19.3 -16.5 28.6 -49.8 42.7 -34.4 14.6 -50.4 24.4 -64.9 39.3 -18.2 18.9 -28 38.1 -34.1 67 -1.9 9.1 -2.3 14 -2.3 29.4 0 16.1 0.4 21.4 3.3 40.5 2.8 18.4 3.5 25.5 3.8 43.5 0.3 15.4 0 23.7 -0.9 29.2 -0.8 4.2 -1 7.5 -0.6 7.2 1.2 -0.8 10.5 -20.7 13.9 -29.8 5.9 -15.8 7.1 -31.9 4.5 -57.4 -6.3 -59.6 -3.6 -87.3 11.1 -112.6 5.8 -9.9 22.3 -27 33.3 -34.3 14.4 -9.6 38.9 -20.7 79.2 -35.7 25.9 -9.7 43 -19.8 56.8 -33.6 7.1 -7 9.4 -10.2 13.3 -18 2.6 -5.2 5.5 -12.6 6.3 -16.5 0.9 -3.8 1.8 -7.6 2 -8.2 0.2 -0.8 2.1 -1.3 4.9 -1.3 l4.5 0 0 6.1 c0 18.7 -12.7 41.7 -30.7 55.6 -4.3 3.3 -11.3 8 -15.5 10.3 -4.3 2.4 -7.6 4.6 -7.3 4.8 0.2 0.2 5.3 -1.6 11.3 -4 32.8 -13.4 56.1 -32.4 69.4 -56.7 1.4 -2.6 2.3 -3.1 5.2 -3.1 2.4 0 3.9 0.6 5 2.1 1.3 2 2.1 0.7 13.4 -22.3 13.6 -27.4 20.2 -43.4 26 -62.3 6.2 -20.4 7.7 -27.8 7.6 -39.5 0 -16.1 -4.2 -25.3 -13.9 -30.7 -8.1 -4.5 -16.1 -3.7 -31.7 2.9 -4.2 1.8 -4.9 2.6 -5.9 6.2 -8.8 33.2 -20 59.7 -29.9 70.8 -7.2 8.1 -11.9 10.1 -22.5 9.7 -6.5 -0.3 -9 -0.9 -11.2 -2.5 -4.9 -3.6 -5.8 -6.7 -5.8 -19.5 l0 -11.6 4.7 -9.4 c2.6 -5.2 7.1 -12.3 10.1 -15.9 9.8 -11.9 26.7 -25.5 40.9 -33 l4.8 -2.5 4 -17 c5.8 -24.5 8.9 -38 8.7 -38.2 -0.1 0 -3.1 1.7 -6.7 3.9 -12.8 7.8 -38.9 19.7 -57.9 26.3 l-6.6 2.3 -1.3 10.9 c-0.7 5.9 -1.4 21.4 -1.5 34.3 -0.2 13 -0.6 24.1 -1.1 24.8 -1 1.7 -7.1 1.5 -8.7 -0.4 -1.9 -2.3 -2.4 -26.5 -0.9 -46.6 0.7 -9.3 1 -17.1 0.7 -17.4 -0.3 -0.3 -8.5 2 -18.2 5.3 l-17.6 5.8 -7 14 c-17.9 35.6 -24.3 42.5 -39.4 42.5 -8.6 0 -14 -2.4 -19.5 -8.8 -5.4 -6.4 -8.5 -12.6 -17 -33.7 -9.8 -24.5 -9.1 -23.5 -16.5 -23.5 -3.3 0 -7.2 -0.7 -8.7 -1.4 -2.6 -1.4 -2.8 -1.3 -3.3 0.7 -7 31.3 -15.4 55 -22.4 63 -3.6 4 -7.8 5.3 -13.7 4.3 -2.9 -0.6 -3.8 -1.4 -5.1 -4.4 -2 -4.9 -1.2 -20.7 1.6 -31.5 4.5 -17.3 17.7 -46.4 30.5 -67.7 6.5 -10.7 7.4 -14.5 9.6 -39 0.6 -7.4 1.5 -13.9 1.9 -14.3 0.5 -0.5 2.8 -0.7 5.2 -0.5 l4.4 0.3 -0.3 11.4 -0.3 11.4 6.3 -6.5 c6.7 -6.9 14.4 -12.3 21.8 -15.3 5.7 -2.2 21.9 -3.2 27.8 -1.6 5.9 1.6 11.7 7.1 13.6 12.8 2.4 6.9 2.1 20.8 -0.5 28.6 -6 18 -21.3 34.8 -39.9 43.5 -4.1 2 -7.7 3.7 -7.9 3.9 -0.6 0.5 10.8 30.1 14.8 38.2 3.9 8.2 12 17.8 15.6 18.7 4.6 1.1 10 -3.3 17.2 -14.1 5 -7.5 13.6 -24.5 12.4 -24.5 -0.5 0 -3.9 1.1 -7.5 2.5 -8.1 3 -12.1 3.2 -13.6 0.6 -1.4 -2.7 -1.3 -7.6 0.3 -8.9 0.6 -0.5 7.6 -3.1 15.3 -5.7 l14.1 -4.7 16.7 -33.3 c16.8 -33.4 28.3 -53 33.3 -56.3 3.8 -2.4 13 -2.4 14.8 0.1 3.1 4.3 2.8 16.2 -1.5 48.1 -2.5 18.4 -2.7 20.6 -2.4 20.6 0.1 0 6.5 -2.5 14.1 -5.5 16.8 -6.8 34.1 -15.7 48.8 -25.3 l11.1 -7.1 2.2 -9.3 c5.3 -21.9 10.7 -28.8 22.6 -28.8 6.4 0 8.6 3 8.6 11.7 0 9.7 -3.3 15.7 -14.5 26.8 l-9.2 9.1 -4.7 21.4 c-2.6 11.8 -5.6 24.9 -6.7 29.2 -1 4.2 -1.9 7.8 -1.9 8 0 0.3 3.3 -0.4 7.3 -1.4 9.9 -2.6 24.1 -2.1 31.4 1.1 17.4 7.7 23.3 32.3 16.3 68.3 -6.5 33.8 -30.8 88.7 -58.2 131.3 -2.4 3.9 -5.1 8.1 -5.8 9.4 -1.2 2.3 -1 2.2 2.8 -0.7 6.7 -5.3 17.5 -17.5 20.6 -23.2 1.6 -3 4.2 -9.2 5.7 -13.9 l2.7 -8.6 4.6 -0.3 4.6 -0.3 0 6.1 c0 11 -6 24.9 -16 36.7 l-5.7 6.9 6.6 -2.3 c4.5 -1.5 9 -2.3 14.3 -2.3 10.4 0 10.8 0.2 10.8 6 0 4.8 0 4.9 -10.8 15.7 -25.3 25.2 -31.3 40.1 -42.8 105.8 -4.3 24.8 -8.1 40.1 -12.7 52.2 -4.9 12.6 -5.1 13.2 -2.7 8.9 5.1 -9.2 15.8 -39.7 27 -76.6 3.4 -11.3 7.1 -22.7 8.3 -25.5 6 -14.4 20.3 -28.5 28.9 -28.5 4.9 0 5.8 0.9 5.8 5.6 0 4 -0.3 4.5 -3.7 6.3 -2.1 1 -6.4 4.5 -9.6 7.8 -7 7 -11 15 -16.1 31.8 -2 6.6 -6.1 19.6 -9.1 29 -3 9.3 -5.3 17 -5.2 17.2 0.2 0.1 2.9 -1.1 6.1 -2.7 4.7 -2.4 7.2 -3 12.2 -3 4.7 0 7.2 -0.6 10.1 -2.2 3 -1.8 5.6 -2.3 13.8 -2.6 9.9 -0.4 10 -0.4 15 3 6.3 4.2 9.5 10.1 9.5 17.5 0 6.6 -2 8.3 -10.2 8.3 -5 0 -7 -0.7 -16.2 -5.5 -5.7 -3 -10.9 -5.5 -11.4 -5.5 -1.7 0 -9.1 8.2 -13.6 15 -2.4 3.6 -8.4 14.6 -13.4 24.5 -18.4 36.5 -28.1 51.9 -42.2 66.8 -20.7 21.9 -39.6 33.2 -65 38.8 -9.1 2.1 -13.1 2.4 -30.5 2.4 -17.8 -0.1 -22.4 -0.4 -41.5 -3.4 -34.6 -5.5 -51.4 -4.8 -74.5 3.1 -7.8 2.7 -19.5 8.3 -19.5 9.3 0 0.2 3.3 -0.7 7.3 -2.1 3.9 -1.4 12.8 -3.7 19.7 -5.1 11.5 -2.5 14.4 -2.7 36.5 -2.7 25.7 0.1 25.6 0 67.5 7.3 27.6 4.7 41.7 5.9 51.6 4.2 11.9 -2 12.5 -2.4 17.2 -10.4 5.8 -9.9 12.2 -17.8 17.2 -21.2 4.3 -3 12.3 -4.4 17.4 -3.1 4.8 1.2 5.9 12.1 2 19.9 -3.1 6.1 -11.2 12.7 -21.8 17.8 l-10 4.8 -2.9 7.3 c-1.6 4 -4.9 13.2 -7.4 20.3 -11.7 33.7 -20.6 50.6 -34.2 64.9 -14.2 14.8 -32.3 24.2 -57.2 29.8 -13.9 3.1 -44.5 3.3 -54.9 0.4 -8.9 -2.4 -23.4 -9.5 -30.5 -14.9 -12.8 -9.7 -19.6 -19 -22 -30.2 -0.7 -3.7 -1.6 -6.9 -1.9 -7.2 -0.7 -0.8 -21.2 2.3 -36.5 5.3 -6.9 1.4 -18.4 4.5 -25.6 6.9 -12.8 4.2 -29.9 11.8 -31.2 13.8 -0.4 0.7 0.1 0.8 1.3 0.3 7.4 -2.9 16.8 -4.1 33.9 -4 15.6 0 19.2 0.3 27 2.3 11 2.9 26.8 9.4 37.7 15.7 4.6 2.6 10.3 5.8 12.8 7.3 2.5 1.4 5 3 5.7 3.7 2.7 2.6 21.4 11.4 29.8 14 5 1.5 9.8 3.5 10.7 4.4 2.2 2.3 11 4.4 15.2 3.6 1.9 -0.4 4.5 -1.5 5.7 -2.5 1.3 -1 6.8 -4.8 12.3 -8.4 8.8 -6 10.4 -6.7 14.7 -6.7 6 0 7.4 2 6.6 9.2 -0.8 6.7 -4 11.4 -9.6 14.2 -4.9 2.5 -16.1 5.6 -20.2 5.6 -2.8 0 -14.8 3.9 -19.5 6.3 -3.2 1.6 -17.1 15.8 -27.3 27.6 -4.9 5.7 -6.1 7.8 -5.6 9.5 1.4 4.4 1.8 23.5 0.6 28.3 -1.8 7 -4.7 12.7 -8.2 16.2 -5.1 5.1 -8.4 6.4 -15.7 5.9 -5.6 -0.4 -6.8 -0.8 -8.9 -3.3 -2.3 -2.6 -2.5 -3.4 -2.1 -12.4 0.3 -8.3 0.7 -10.5 3.4 -16.1 1.7 -3.6 5.7 -10.1 8.8 -14.4 4.4 -6.1 5.6 -8.5 5.1 -10.3 -0.9 -3.8 -13.2 -16 -22 -21.8 -22.1 -14.7 -46.3 -21.4 -73.3 -20.2 -23.7 1.1 -46.7 7.1 -70.4 18.7 l-12.6 6.2 1 2.9 c0.5 1.6 1.1 2.9 1.2 2.9 0.1 0 4.2 -1.4 9.2 -3 19.2 -6.5 43.2 -10 69.3 -10 33.8 0 56.2 7.5 64.1 21.4 2.6 4.5 3 6.1 3 13.4 0 10 -1.3 13.4 -7.3 18.9 -9.5 8.7 -21.1 12.2 -43.3 13 -27 1 -50 -3.4 -70.1 -13.2 -10.1 -4.9 -12.4 -6.6 -21.1 -15.1 l-9.7 -9.6 -10.3 5.1 c-14.4 7.2 -41.8 24.3 -34.7 21.7 12.2 -4.4 35.3 -5.9 48 -3.1 21 4.6 33 14.1 54.6 43 31.3 41.9 75.8 67 145.5 82 34.7 7.5 65.7 10.2 103.4 9 14 -0.5 28.4 -0.8 32 -0.8 8.5 0.1 37.5 -1.3 67.5 -3.2 13.2 -0.9 32 -1.8 41.8 -2.2 l17.7 -0.6 0 3.5 c0 3.3 -0.1 3.4 -5.8 4.6 -3.2 0.7 -9 1.2 -12.9 1.2 -4 0 -10.2 0.6 -14 1.4 -3.7 0.8 -15.6 1.9 -26.3 2.6 -10.7 0.6 -26.5 1.6 -35 2.2 -32.3 2.4 -96.8 2.8 -121 0.9 -69 -5.4 -131.8 -26.9 -171 -58.6 -13.1 -10.5 -22.8 -21.4 -39.8 -44.2 -9.4 -12.6 -23.2 -23.3 -36.3 -28 -6.4 -2.3 -8.9 -2.7 -18.4 -2.6 -12.8 0 -23.4 2.7 -36.6 9.3 -7.9 3.9 -18.9 10.6 -18.9 11.4 0 0.3 1.9 -0.4 4.3 -1.4 7.3 -3.2 21.2 -6.9 32.9 -8.6 25.8 -3.8 49.5 0.4 61.4 10.8 13.1 11.5 15.1 34.1 4.1 45.6 -5.3 5.5 -10.2 7.5 -18.7 7.6 -9.3 0.1 -15.3 -2 -20.2 -7.2 -4.3 -4.5 -5.8 -8.7 -5.8 -15.9 0 -7.5 1.1 -9.3 6 -9.3 4 0 4 0 4 3.9 0 7.9 6.2 16.1 13.2 17.5 4.2 0.8 10.1 -2.5 13.7 -7.7 4.5 -6.6 4.7 -8.9 1.7 -15.1 -5.3 -10.8 -16.8 -17.9 -32.5 -19.9 -25.9 -3.2 -67.8 11 -85.4 29.1 -9.1 9.4 -36.1 49.4 -59.9 89.2 -4.5 7.6 -20.4 37.4 -29 54.5 l-4.5 9 -4.6 0.3 -4.7 0.3 0 -4.9z m377.2 -196 c4.2 -4.7 7 -13.2 6.6 -20.3 l-0.3 -5.3 -3.7 5.6 c-5.1 7.8 -9.8 17.3 -9.8 20.1 0 5 2.7 4.9 7.2 -0.1z m-70.2 -10.7 c12.2 -2.5 21.5 -7.7 26.1 -14.5 3.5 -5.1 2.7 -8.6 -3.2 -14.6 -14.5 -14.7 -54.3 -19.1 -92.9 -10.3 -8.3 1.9 -28.1 7.8 -28.9 8.6 -0.9 0.8 8.6 9.5 15.3 14 9.7 6.5 19.9 10.7 34.6 14.3 20.8 5 33.5 5.6 49 2.5z m-118.4 -36.9 c0.1 0 -0.2 -1.1 -0.7 -2.3 l-0.8 -2.2 -5.3 3.2 c-2.9 1.7 -6.9 4.9 -8.8 7.1 l-3.5 3.8 9.5 -4.7 c5.2 -2.6 9.6 -4.8 9.6 -4.9z m219.5 -29.7 c-0.2 -3.4 0 -3.9 1.9 -3.9 4.5 0 1.1 -2.5 -8.1 -6 -9.2 -3.5 -32.3 -15.3 -33.4 -17 -1.1 -1.8 -26.3 -15 -35.1 -18.4 -11.1 -4.3 -26.9 -7.6 -36.2 -7.6 -8.8 0 -21.6 2.2 -30.7 5.3 -13.5 4.6 -32 15.2 -38 21.7 l-3 3.2 6.2 -3.1 c7.6 -3.8 22.7 -9.5 30.8 -11.6 8 -2.1 28.2 -3.7 37.5 -2.9 20.6 1.6 31.8 5.6 62.8 22.8 6.4 3.5 14.3 7.3 17.4 8.3 5.4 1.7 5.8 2 5.8 4.9 0 3.1 -0.1 3.2 -5.5 3.9 -6.9 0.8 -13.4 -1.3 -29 -9.6 -27.3 -14.3 -41 -18.5 -61 -18.3 -11.3 0.1 -14.5 0.5 -24 3.2 -6 1.7 -13 3.8 -15.5 4.7 -6.6 2.4 -29.4 13.4 -28.9 14 0.3 0.2 5 -0.9 10.4 -2.5 19.6 -5.7 32 -7.4 54 -7.4 17.2 -0.1 21.5 0.3 30.8 2.2 29 6.2 50.8 18.2 64.8 35.6 l4.4 5.5 11 -11.6 c10.4 -11 10.9 -11.7 10.6 -15.4z m55 -45.7 c33.2 -8.5 51.4 -22.8 67.7 -53.2 6 -11.2 7.6 -15.1 15.1 -37.1 l5.7 -16.5 -13.2 0.4 c-16.4 0.6 -29.7 -0.8 -57.3 -5.9 -11.8 -2.1 -22.7 -3.9 -24.1 -3.8 -1.8 0.1 -1.4 0.4 1.5 1 5.6 1.3 22.4 6.9 25.8 8.6 2.3 1.2 2.7 1.9 2.7 5.8 l0 4.5 -4.1 0 c-2.2 0 -9.8 -1.8 -16.7 -4 -12.5 -3.9 -27.4 -7 -33.7 -7 -5.4 0 -18.6 3.8 -26.3 7.6 -8.5 4.1 -19.1 13.6 -25.7 22.9 -4.7 6.6 -10 16.5 -11 20.8 -0.9 3.4 0.7 3.5 7.4 0.7 l4.7 -2.1 1.1 -9.3 c1.3 -10.9 3.6 -16 10.3 -22.7 9.6 -9.6 20.1 -12.9 40.9 -12.9 20.7 0 33.3 3 47.3 11.2 12.7 7.5 20.7 19.5 21.6 32.3 0.9 15.1 -3.8 27.7 -14.5 38.4 -14.1 14 -35.1 21.7 -60.8 22.2 -6.3 0.2 -6.6 0.3 -3 1 8.2 1.6 26.3 0.2 38.6 -2.9z m-27.3 -9.8 c30.4 -4.5 52.3 -21.5 55.8 -43.4 0.6 -3.4 0.1 -5.2 -2.9 -11.3 -3.8 -7.6 -10.6 -14.1 -19.2 -18.5 -11.5 -5.7 -32.2 -9.9 -42.5 -8.4 l-5.5 0.8 7.5 0.8 c5.6 0.5 9.6 1.7 15.7 4.6 9.2 4.5 14 9.3 18.1 18 2.3 4.8 2.6 6.8 2.6 16 0 9.4 -0.3 11.2 -2.9 16.8 -3.2 7.1 -11.5 15.6 -18.7 19 -6 2.9 -15.2 5.2 -21.8 5.3 -5.4 0.2 -5.4 0.2 -1.5 0.9 2.2 0.4 4.2 0.8 4.4 0.9 0.2 0 5.1 -0.6 10.9 -1.5z m-167.8 -33.9 c0 -1.5 4 -6 12.2 -14.1 21.4 -20.9 22 -21.7 25.6 -32.9 10.1 -31.7 12.8 -64.2 7.3 -86 -2.2 -8.3 -9.1 -28.8 -9.6 -28.3 -0.2 0.2 0.8 4.6 2.2 9.8 2.3 8.6 2.6 11.4 2.7 29 0.1 18.1 -0.1 20 -2.2 26 -6.8 18.8 -24.6 38.8 -43.2 48.5 -1.9 1 -6.2 2.6 -9.5 3.5 l-6 1.5 -0.6 17 c-0.7 18.3 -2.5 30.9 -6.9 47.5 l-2.7 10.5 15.3 -14.9 c10.6 -10.3 15.4 -15.6 15.4 -17.1z m115.3 24.3 c-1.1 -3.1 -1.4 -7.3 -1.1 -14.6 0.3 -8 0.1 -10.1 -0.9 -9.8 -0.7 0.3 -3.6 0.8 -6.5 1.2 -2.9 0.4 -5.8 0.9 -6.5 1.3 -1.5 0.8 1 8.3 4.7 13.6 3 4.3 10.4 12.5 11.2 12.5 0.3 0 -0.1 -1.9 -0.9 -4.2z m40.5 -2.5 c-1 -0.2 -2.8 -0.2 -4 0 -1.3 0.2 -0.5 0.4 1.7 0.4 2.2 0.1 3.2 -0.1 2.3 -0.4z m-13.7 -4.9 c-2.5 -3.2 -2.9 -13.3 -0.7 -17.6 1.6 -3.1 1.3 -3.3 -3.3 -1.7 -5.8 2 -5.1 10.6 1.6 18 4 4.4 5.5 5.2 2.4 1.3z m18.8 -8.9 c5.2 -2.6 10.8 -8.5 11.8 -12.3 0.8 -3.3 -2.5 -9.9 -6.3 -12.8 -3.9 -3 -9.3 -4 -12.4 -2.4 l-2.2 1.2 2.6 2.7 c2.2 2.3 2.6 3.6 2.6 8.7 0 5.2 -0.4 6.6 -3.2 10.3 -3 4.2 -3.1 4.4 -1.3 5.7 2.5 1.8 2.8 1.8 8.4 -1.1z m24.5 -8.2 c0.9 -2.6 1.6 -5.8 1.6 -7.2 -0.1 -6.2 -5.8 -16.5 -10.9 -19.7 -2.1 -1.4 -2 -1 1 2.2 2 2.2 4.2 4.9 4.8 6.2 1.7 3.3 2.5 14.9 1.3 19.9 -1.3 5.6 0.2 4.6 2.2 -1.4z m-142.9 -0.7 c11.5 -2.6 35.2 -6.4 41.9 -6.8 l3.9 -0.3 1.3 -6.1 c2.7 -13.5 12.4 -29.7 23.9 -40.1 12.7 -11.5 24.9 -17.1 42.5 -19.7 8.7 -1.2 9 -1.4 4 -1.5 -6.8 -0.1 -25.6 1.6 -33 3 -13.1 2.5 -28.8 8.3 -44.5 16.4 -13 6.7 -18.8 10.6 -28.8 19.7 -7.4 6.8 -8.7 8.6 -13.9 18.9 -3.1 6.3 -7.4 13.4 -9.5 15.8 -3.5 4.1 -3.6 4.4 -1.3 3.8 1.4 -0.4 7.5 -1.8 13.5 -3.1z m97.5 -17.3 l-0.1 -4.8 -1.9 3.5 c-2.5 4.5 -2.5 6 0 6 1.7 0 2 -0.7 2 -4.7z m33 -10.9 c0 -0.8 -10.1 -5 -13.9 -5.7 -2.3 -0.5 -4.7 -0.1 -7.7 1.2 -2.4 1.1 -4.4 2.2 -4.4 2.4 0 0.2 3.7 0.1 8.3 -0.1 5.9 -0.3 9.5 0 12.7 1.1 5.4 1.9 5 1.8 5 1.1z m-205 -31.6 l-0.5 -6.3 -6.1 -0.7 c-10.6 -1.1 -21.5 -8.2 -27.6 -17.8 -1.6 -2.5 -4.1 -8.1 -5.5 -12.5 -2.4 -7.3 -2.6 -9.3 -2.5 -23 0.1 -17.6 1.9 -26.2 8.2 -39.3 11.7 -24.6 26.4 -34.5 48.4 -32.8 13.8 1 25.2 8.1 33.5 20.9 2.3 3.4 4.1 5.9 4.1 5.5 0 -0.3 -1.3 -3.6 -3 -7.3 -2 -4.5 -3 -8.3 -3 -11.6 l0 -4.9 4 0 3.9 0 -3.5 -8.2 c-6.5 -15 -10.5 -30.9 -11.1 -44 -0.3 -6.5 -0.8 -11.8 -1 -11.8 -1.1 0 -19.4 11.7 -25.9 16.5 -8.7 6.5 -22.5 20.5 -30.2 30.8 -21.5 28.6 -32.4 60.7 -29.3 86.2 3.6 29.7 21.2 57.2 41.6 65.2 5.7 2.2 6.1 1.9 5.5 -4.9z m22.6 0.8 c5.5 -3.4 17.3 -12.7 17.3 -13.8 0.1 -0.3 -1.3 0 -2.9 0.9 -4.9 2.4 -16 3.7 -21.6 2.5 -2.7 -0.6 -4.9 -1 -5 -0.9 0 0.1 0.2 3.9 0.4 8.4 l0.4 8.1 3.2 -1.1 c1.7 -0.6 5.4 -2.4 8.2 -4.1z m-21 -18.5 c-0.7 -1.1 -8.5 -2.6 -9.3 -1.8 -0.2 0.3 1.5 1 3.9 1.5 5.8 1.3 6 1.3 5.4 0.3z m345.9 -13.1 c2.1 -2.2 3.7 -4 3.4 -4 -0.3 0 -2.3 1.8 -4.4 4 -2.1 2.2 -3.7 4 -3.4 4 0.3 0 2.3 -1.8 4.4 -4z m-230.6 -12.1 c6.2 -21.4 6.2 -34.1 0 -77.9 -2.6 -18.5 -3.1 -24.5 -3.1 -43 0 -19 0.3 -23.1 2.6 -35.2 5.3 -27.8 16.7 -51.1 34.2 -69.7 12.9 -13.7 27.9 -23.3 55.8 -35.6 26.5 -11.6 40.4 -19.3 47.6 -26.3 l6.5 -6.3 -4 1.7 c-14.7 6.1 -34.1 13.9 -46.6 18.8 -19.7 7.6 -43 19.2 -54.2 26.8 -33.1 22.7 -51.8 54.9 -57.3 98.7 -2.3 18.4 -0.9 33.8 6.2 68.6 6.7 33.1 7.4 36.9 8.4 50.7 0.9 11.8 -0.1 37.7 -1.5 42.4 -0.4 1.1 0.1 0.7 0.9 -0.7 0.9 -1.5 2.9 -7.3 4.5 -13z m-117.9 10.1 c0 -1.7 -0.7 -2 -4 -2 -7.7 0 -11.5 -7.3 -10.8 -20.4 l0.4 -7 -1.8 4 c-4.2 9.5 0.2 20.2 10.7 25.7 4.1 2.2 5.5 2.1 5.5 -0.3z m22.2 0.9 c2.1 -0.5 5 -2 6.4 -3.2 l2.5 -2.2 -5.9 0.3 c-3.7 0.2 -7.2 -0.2 -9.5 -1.1 -4.2 -1.8 -4.7 -1.5 -4.7 2.9 0 2.6 0.5 3.4 2.3 3.7 3.9 0.8 5.1 0.7 8.9 -0.4z m266.9 -6.5 c25.8 -6.5 48.1 -21.7 67.3 -45.9 9.8 -12.3 14 -19.2 28.1 -46.5 6.7 -12.9 13.9 -26.1 16 -29.4 2 -3.2 3.3 -5.6 2.7 -5.2 -2 1.2 -9.9 14.1 -16.5 26.9 -19.2 37.2 -44.9 66.3 -69 78.2 -20.6 10.1 -47 12.7 -82.9 8 -25.7 -3.4 -43.2 -2.9 -61.8 1.7 -9.1 2.2 -22.9 8.2 -27 11.6 l-2.5 2.1 3.5 -0.9 c19.1 -5.4 48.9 -6 76 -1.7 26.7 4.3 29.9 4.6 43.1 4.1 9.1 -0.3 15.5 -1.1 23 -3z m-286.7 -13.6 c1.5 -1.2 3.9 -1.8 8.1 -1.7 5.2 0 6.5 0.4 9.4 2.9 3.7 3.1 4.8 3.1 6.1 -0.4 2.3 -6.2 -10 -19.8 -16.6 -18.2 -3.4 0.9 -9.2 6.3 -11.5 10.7 -2.2 4.4 -2.3 5.7 -0.8 9.6 1 2.7 1.1 2.7 2.1 0.8 0.6 -1.1 2 -2.8 3.2 -3.7z m35.1 -9.4 c-2.9 -10.7 -10.6 -18.8 -20.5 -21.8 -3.6 -1.1 -5.4 -1.1 -9.3 -0.1 -7.9 2 -7.3 3 1.4 2.6 10 -0.4 15.3 1.4 20.4 7.1 5.5 6 7.4 11.1 7.6 19.8 0.1 7.3 0.2 7.4 1.2 3.2 0.8 -3.3 0.6 -5.6 -0.8 -10.8z m-62 -9.2 c4.1 -8.7 12.5 -17.6 20 -21.3 4.5 -2.1 6.3 -2.4 17 -2.4 13.6 0 16.9 1.1 25.2 8.8 7.8 7.2 12.2 17.5 12.3 28.6 0 2.4 0.3 4.2 0.6 3.9 1.3 -1.3 0.4 -16.9 -1.4 -25.3 -4.4 -19.7 -13.9 -33.8 -27.7 -40.8 -12.3 -6.1 -27.4 0.3 -38 16.3 -9.3 14 -13.6 28.2 -13.4 44.3 l0.2 9.2 0.8 -7 c0.6 -4.4 2.2 -9.7 4.4 -14.3z m87.6 5.6 c-0.8 -6 -0.8 -5.7 -0.9 4.2 0 8.3 0.2 9.6 0.9 6.3 0.4 -2.3 0.4 -7.1 0 -10.5z m226.5 1.6 c7 -1.4 20.9 -6.2 20.2 -6.9 -0.2 -0.2 -3.7 0.4 -7.8 1.2 -5.6 1.1 -12.3 1.3 -26.5 1 -16.1 -0.4 -21.5 -1 -35 -3.6 -22.6 -4.5 -30.8 -4.9 -41.9 -2.1 -10.8 2.7 -27 8.4 -30 10.6 -2.1 1.6 -2.1 1.6 0.4 1.1 15.8 -3.6 43.4 -4.2 67.5 -1.4 8.3 0.9 17 1.9 19.5 2.1 8.1 0.7 25.6 -0.3 33.6 -2z m-124.1 -21.7 c2.6 -5.9 5.3 -14 6.1 -18 1.8 -8.6 1 -16.6 -3.7 -35.7 -2.7 -11 -3.2 -14.7 -3.6 -31.2 -0.6 -20.6 0.3 -27.1 5.8 -42.1 8 -21.7 21.1 -37.2 43.9 -52 20.9 -13.5 35.9 -19 91 -33.6 29.5 -7.8 41.8 -11.6 51.3 -16 6.8 -3 7.6 -3.9 18.2 -20.6 l3.8 -6 -4.4 4 c-10.8 10 -27.8 20.3 -45.4 27.6 -12.1 5 -33.4 11.2 -59.5 17.2 -25 5.8 -39.1 10.4 -51.6 16.8 -37.6 19.3 -57.4 49.3 -57.4 87.2 0 4.9 0.9 19.1 2.1 31.6 2.8 30.4 2.3 54.5 -1.4 71.1 -1.4 6.3 -2.9 12.4 -3.2 13.5 -0.6 1.6 -0.3 1.6 1.4 -0.5 1.1 -1.4 4.1 -7.3 6.6 -13.3z m139.8 2.8 c12.4 -3.6 13.5 -4.2 12.9 -7 l-0.4 -2.4 -7.9 3.9 c-6.8 3.5 -16.4 6.7 -24.9 8.4 -1.4 0.3 0.7 0.3 4.5 0.1 3.9 -0.3 10.9 -1.6 15.8 -3z m-28.7 -7.5 c18 -2.3 31.9 -9.6 46.5 -24.3 15.2 -15.5 24.4 -31.5 32.7 -56.7 7.8 -23.6 10.2 -37 13.2 -73.5 2.1 -25.9 3.5 -34.9 7 -44.1 2.9 -8 9.5 -20.7 12.5 -24.2 1.5 -1.8 2.5 -3.2 2.2 -3.2 -1.9 0 -20 10.6 -20.8 12.3 -1.6 3 -19.4 28.2 -24.7 34.9 l-4.5 5.8 4.7 5 c10.2 10.9 14.2 26.1 13.3 50.5 -0.8 21.6 -5.1 38.4 -15.2 58.6 -14.8 30 -33 47.1 -58.5 55.1 -6.6 2 -9.4 2.3 -23.5 2.3 -14.6 -0.1 -16.7 -0.3 -24 -2.8 -8.7 -2.9 -17.5 -8.3 -20.2 -12.3 -0.9 -1.4 -1.9 -4.1 -2.2 -5.9 l-0.6 -3.2 -8.6 10.6 -8.6 10.6 12.1 -0.3 c9.3 -0.3 15.8 0.3 28.1 2.2 24.1 3.9 27.3 4.1 39.1 2.6z m-85.6 -18.2 c3.9 -4.5 7.3 -9.1 7.6 -10.3 0.4 -1.6 -1.5 -5.2 -6.9 -13.1 -6 -8.9 -7.8 -12.5 -9.6 -19.2 -6.1 -22.5 -2.4 -45.9 10 -64.4 6.6 -9.9 21.1 -23.7 32.8 -31.3 17.9 -11.7 45.9 -23.1 62.9 -25.6 9.9 -1.4 28.5 -0.7 35.8 1.3 l5 1.4 9.9 -13.2 c5.5 -7.3 10.1 -13.7 10.3 -14.3 0.2 -0.5 -2.5 0 -6 1 -3.5 1.1 -21.4 6 -39.8 11 -36.3 9.7 -49.6 14.2 -66.4 22.6 -32.6 16.2 -50.7 37.3 -59.3 68.9 -4.3 16.2 -3.8 26 3.3 56.4 2 8.9 2.7 14.3 2.8 24.2 0 7.1 0.2 12.8 0.3 12.8 0.1 0 3.4 -3.7 7.3 -8.2z m84.1 4.3 c20.2 -5.2 36.3 -17.5 49.6 -37.9 13.6 -20.8 22.1 -45.2 23 -66.7 0.5 -10.3 0.2 -13.3 -1.6 -20.4 -1.2 -4.6 -3.1 -10.1 -4.1 -12.2 -2.4 -4.7 -7.8 -10.9 -9.4 -10.9 -0.6 0 -2.7 2.2 -4.6 4.8 -1.9 2.6 -8.4 10.8 -14.4 18.2 -6 7.4 -11.3 14 -11.8 14.7 -0.7 0.8 0.3 2.7 3.1 6 9 10.7 12.7 23.8 11.8 42.1 -0.7 17.1 -5 29.4 -14.4 41.3 -10.4 13.3 -19.7 17.8 -38.8 18.6 -13.3 0.6 -20 -0.4 -28.5 -4.2 -3.2 -1.5 -4.7 -1.8 -3.5 -0.9 2.8 2.3 11.9 6.3 17.9 7.9 7.3 2 17.1 1.8 25.7 -0.4z m1.3 -16.9 c16.3 -7.7 29.6 -29.7 29.6 -49.2 0 -7.4 -1.1 -12.4 -4.5 -19.5 -2.6 -5.6 -8.1 -13.5 -9.3 -13.5 -0.5 0 -2.1 1.6 -3.5 3.7 l-2.6 3.6 2.6 3.1 c4.7 5.6 6.5 11.3 7.1 22.2 0.7 15.1 -3.3 26.7 -12 35.1 -6.6 6.3 -11.1 8.3 -19.1 8.3 -7.7 0 -12.1 -1.5 -15.7 -5.4 -2 -2.2 -2.6 -4.1 -3 -9.7 l-0.5 -7 -8.2 9.5 -8.2 9.5 3.7 2.9 c9.1 7.2 18.1 10.3 28.7 9.9 6.6 -0.3 9.4 -0.9 14.9 -3.5z m-65.9 -10.6 c-12.4 -17.5 -13.9 -21.4 -13.9 -37.1 -0.1 -13.8 1.3 -19.3 7.6 -29.2 8.4 -13.4 23.7 -23.8 40.6 -27.9 10.7 -2.5 28.2 -1.6 37.6 2 l7 2.7 2 -2.5 c6.4 -7.7 26.3 -32.1 27.5 -33.7 1.2 -1.7 1 -2 -1.5 -3 -5.3 -2.1 -19.2 -2.3 -28.4 -0.4 -17.1 3.5 -37.7 12.2 -53.8 22.8 -25.4 16.7 -40.9 37.2 -44.3 58.6 -1.3 8.5 -0.1 17.3 3.5 26.3 3.1 7.7 14.8 25 16.1 23.7 0.6 -0.6 0.6 -1.4 0 -2.3z m63.3 -13.1 c2.7 -2.4 6.1 -6.9 7.7 -10.2 5 -9.9 3.6 -23.8 -3 -29.3 -1.5 -1.3 -2.1 -1 -4.9 2.5 -1.7 2.2 -6.4 7.7 -10.3 12.3 l-7.3 8.3 0 7.6 c0 5.2 0.5 8.4 1.7 10.3 3.5 6 8.2 5.6 16.1 -1.5z m-46 -4.3 l6.5 -7.2 -3.8 0 c-4.9 0 -9.7 -2.4 -11.8 -5.9 -2.7 -4.5 -2.3 -16.3 0.7 -22.6 3.2 -6.8 10.7 -13.7 19.1 -17.7 6.2 -2.9 8.2 -3.3 17.2 -3.6 7.4 -0.3 11.4 0 14.7 1.1 l4.4 1.5 3.2 -3.9 3.1 -3.9 -2.8 -1.1 c-5.8 -2.3 -13 -3.9 -17.8 -3.9 -16.1 0 -35.5 10.7 -44.8 24.8 -8.4 12.6 -10 22.8 -5.5 33.9 3.1 7.6 8.7 16.5 10.1 16 0.6 -0.2 4 -3.6 7.5 -7.5z m26.1 -30.2 c5.6 -6.7 10.4 -12.7 10.7 -13.5 1 -2.5 -7.3 -2.9 -14.7 -0.6 -10.4 3.3 -17.9 9.9 -21 18.4 -1.3 3.7 -1.3 4 1 5.8 1.7 1.4 3.9 1.9 8 1.9 l5.7 0 10.3 -12z m195.1 3 c-1.4 -1.1 -2.9 -2 -3.5 -2 -0.5 0 0.1 0.9 1.5 2 1.4 1.1 3 2 3.5 2 0.6 0 -0.1 -0.9 -1.5 -2z m-374.9 -56.8 c2.9 -3.2 4.6 -5.8 4.2 -6.7 -0.8 -2.2 -2.4 -1.8 -6.7 1.7 -3.6 3 -11.6 14 -11.6 16 0 1.6 9 -5.5 14.1 -11z m312.8 -30.6 c5.1 -19.6 12.3 -34.2 24.5 -49.6 4.5 -5.7 4.7 -6.3 2.1 -4.6 -15 9.4 -26.6 28 -30.5 48.6 -1.2 6.1 -4 34.9 -3.9 38.9 0 1.4 1.1 -2.8 2.4 -9.4 1.2 -6.6 3.7 -17.3 5.4 -23.9z m-102.9 -115.8 c0 -0.9 -0.4 -1.9 -0.9 -2.2 -1.1 -0.7 -2.1 2.8 -2 6.9 l0.1 3 1.3 -3 c0.8 -1.6 1.4 -3.8 1.5 -4.7z m68.4 -79.1 c7.3 -7.6 13.5 -18.9 19.9 -36.7 6.1 -17 8 -23.4 6.4 -22.3 -19.4 14.6 -29.9 25 -36.7 36.5 -7.6 12.8 -8.9 20.4 -4.4 25.7 4.2 5 7.4 4.3 14.8 -3.2z m-213.5 -46.4 c1.5 -3.2 4 -9.1 5.5 -13.1 3.3 -9.3 11 -37.2 10.3 -37.8 -1.3 -1.3 -14.9 33 -17.8 45.1 -3.1 13 -2.5 14.7 2 5.8z m176.8 -62.8 c0.3 -0.2 1.6 -9.3 4.8 -34.5 1.4 -10.7 2.7 -21 2.9 -22.8 l0.5 -3.4 -2.8 3.9 c-5.8 8 -15.2 25.2 -29.5 54 l-6.5 13.1 15.2 -5 c8.4 -2.8 15.3 -5.2 15.4 -5.3z m-113.4 -1.7 c15.9 -8.1 30.7 -26 34.8 -41.8 2.2 -8.6 -1.1 -15.9 -8.7 -19.5 -10 -4.7 -26.6 4.4 -41.6 22.8 -11.2 13.8 -12.5 16.1 -14.1 25.3 l-1.4 8.2 5.9 0.4 c5.3 0.4 6.3 0.8 10.1 4.6 2.3 2.3 4.8 4.2 5.5 4.2 0.8 0 5.1 -1.9 9.5 -4.2z"/>
  <path d="M181.7 1227.3 c-0.4 -0.3 -0.7 -2.5 -0.7 -4.8 0 -3.9 0.5 -4.7 7.8 -11.6 53.6 -51.8 141.1 -79.4 230.7 -72.9 27.8 2.1 45.9 5.1 69.4 11.4 26.3 7.2 41.8 13 88.1 33.1 16.2 7 47.4 18.6 58.9 22 14.7 4.2 36.8 9 49.1 10.7 5.7 0.8 18.7 1.3 32.3 1.2 l22.7 -0.1 0 4.8 c0 3.5 -0.4 4.9 -1.7 5.4 -3.5 1.3 -30.1 1.7 -44.4 0.6 -37.9 -2.9 -71.2 -11.9 -119.4 -32.3 -7.6 -3.2 -7.6 -3.2 -18 -7.9 -46.8 -21.1 -95.5 -34.6 -136.9 -37.9 -25.1 -2 -58.1 -0.4 -83.1 4.1 -12.6 2.2 -38.2 9 -50.7 13.5 -12 4.3 -30.4 12.9 -41.3 19.2 -18.5 10.7 -33.7 22 -47.4 35.1 -6.4 6.2 -7.9 7.1 -11.1 7.1 -2 0 -4 -0.3 -4.3 -0.7z"/>
  <path d="M1018.5 501.1 c-7.5 -1.9 -12.1 -5.8 -15.6 -13.6 -2 -4.3 -2.3 -6.7 -2.3 -17 0.1 -10.4 0.4 -13.1 2.8 -20 7.8 -22.8 26.7 -47.2 53.6 -69.1 9.2 -7.4 29.8 -22 40.1 -28.3 6 -3.6 7.9 -5.3 8.7 -7.8 l1 -3.3 -3.1 2.6 c-15.2 12.4 -21.7 15.4 -33.3 15.4 -4.1 0 -8.9 -0.6 -10.7 -1.4 -9.6 -4.1 -14.3 -18.5 -11.7 -36.1 1.6 -10.7 3.1 -16 10.7 -36 15 -39.4 15.8 -42.4 12.6 -46.4 -5.9 -7.3 -22 6.5 -32.5 27.6 l-4.2 8.4 -4.5 -0.3 c-4.6 -0.3 -4.6 -0.3 -4.9 -4.3 -0.5 -7.4 11.2 -28.2 20.3 -36.3 7.2 -6.3 12.1 -8.2 21.5 -8.2 13.7 0 17 3.4 17 17.8 0 9.3 -1.6 16.1 -7.5 30.8 -7.5 18.8 -14.5 38.3 -16 44.7 -3.4 14.4 -0.7 24.7 7.4 27.8 5.6 2.2 18.1 -5 31.1 -18 14.2 -14.1 15.8 -17 22.5 -40.6 8.2 -28.9 15.7 -47.2 21.1 -51.4 1.9 -1.5 4.1 -2.1 7.5 -2.1 6.1 0 7.9 2.2 7.9 9.7 0 15.4 -10 40.4 -25.6 63.8 -5 7.6 -7.2 12 -8.9 18 -1.2 4.4 -2.5 9 -2.9 10.2 -0.6 1.9 0.9 1.4 12.7 -4.1 7.3 -3.4 18 -8 23.7 -10.2 l10.3 -3.9 11.3 -23 c17.6 -36 30.5 -58.4 37.6 -65.5 2.7 -2.7 3.6 -3 9.3 -3 5.3 0 6.6 0.3 7.5 1.9 1.9 3.7 1 24 -2 46.1 -1.6 11.8 -3 21.8 -3 22.1 0 0.7 7.1 -1.7 24.1 -8.2 l10.6 -4.1 -2 -4.1 c-3.3 -6.6 -3 -19.2 0.8 -27.5 4.8 -10.6 16.2 -19.6 31.5 -24.8 7.6 -2.5 22.7 -2.6 29.3 -0.1 7.2 2.8 9.7 7.1 9.7 16.7 0 5.1 -0.6 8.8 -1.9 11.5 -3.4 7.7 -18.4 19 -37.2 28.2 -4.3 2.1 -7.8 4.1 -7.8 4.4 -0.1 0.3 3.6 3.3 8.1 6.5 12.5 9 20.5 16.1 23.8 20.9 l3 4.4 14.3 -5 c7.8 -2.8 14.5 -5.3 14.9 -5.7 0.6 -0.6 16.8 -74.3 16.8 -76.4 0 -0.5 2.3 -0.8 5 -0.8 l5 0 0 5.8 c0 3.1 -2.5 17.4 -5.6 31.7 -6.2 29.1 -7.2 34.5 -6.9 34.5 2.1 0 35 -15.6 38.6 -18.3 0.9 -0.7 4.3 -9 7.4 -18.5 10 -30 18.7 -40.3 32.8 -38.9 4 0.3 5.6 1.1 7.5 3.3 2.3 2.6 2.4 3.4 2 11.9 -0.3 8.2 -0.7 9.7 -4 15.5 -5.4 9.6 -13.5 18.8 -23.7 27 -8.3 6.6 -9.3 7.7 -10.6 12.4 -3.5 12.3 -6.8 30.4 -8.1 44.6 -1 12 2.2 22.9 7.8 26.4 2.7 1.7 8.5 -2 13.7 -8.7 4.4 -5.7 4.6 -5.8 9 -5.5 4.5 0.3 4.6 0.4 4.9 4 0.4 4.6 -1.3 8 -7.3 14.1 -5.9 6.2 -9.6 7.7 -18.7 7.7 -11.7 0 -16.2 -4.1 -19.4 -17.6 -2.1 -8.9 -1.3 -28.3 2 -47.4 1.3 -7.4 2.2 -13.6 2.1 -13.8 -0.1 -0.1 -5.3 2.2 -11.6 5.2 -6.3 2.9 -15.1 6.8 -19.6 8.6 l-8.2 3.2 -3.1 13.2 c-7.3 30.5 -11.4 46.2 -12.3 47.4 -0.6 0.8 -2.6 1.2 -5.1 1 l-4.1 -0.3 -0.3 -5.2 c-0.2 -3.2 0.5 -7.9 1.7 -12 1.6 -5.5 9.1 -37.3 9.1 -38.6 0 -0.2 -4.7 1.1 -10.4 3 l-10.4 3.4 -0.4 10.2 c-0.4 12.7 -2.6 17.7 -11.4 26.3 -10.8 10.8 -26.3 16.4 -44.7 16.4 -12.8 0 -20.3 -2 -25.9 -6.9 -3.7 -3.3 -4.1 -4.2 -4.6 -9.4 -0.6 -7.5 0.2 -10 4.6 -14.9 7.7 -8.6 18.7 -14.1 47.5 -23.8 l16.8 -5.6 -5.8 -5.5 c-3.3 -3 -9.9 -8.3 -14.8 -11.8 -5 -3.5 -10.4 -7.7 -12.2 -9.4 l-3.1 -2.9 -19.9 7.5 c-10.9 4.1 -21 7.7 -22.4 8 -2.4 0.6 -2.6 1.1 -4 12.9 -0.8 7.1 -1.4 21.9 -1.4 34.8 l0 22.5 -5.1 0.3 -5.1 0.3 -0.7 -3.8 c-1 -6.3 -0.7 -38 0.5 -49.6 0.6 -5.9 0.9 -11 0.6 -11.3 -0.3 -0.4 -8.5 2.1 -18.3 5.3 l-17.7 6 -8.9 17.3 c-10.3 20.1 -16.3 29.5 -21 33 -2.8 2.1 -4.4 2.5 -10.1 2.5 -6.3 0 -7.1 -0.2 -9.3 -2.8 -2 -2.3 -2.4 -3.9 -2.4 -8.8 l0 -5.9 4.9 0 c4.7 0 4.9 0.1 5.5 3.3 l0.7 3.2 4.7 -5.2 c3.8 -4.2 17.2 -26.5 17.2 -28.6 0 -0.9 -8.2 2.8 -26.6 11.9 l-17.1 8.5 -2.3 7.7 c-4.7 16 -13.4 41.3 -19.7 57.2 -23.8 60.3 -47.8 85.6 -74.8 79.1z m15.2 -13.1 c7.1 -3.5 18.5 -14.9 25.1 -25 11.6 -17.7 28.8 -57.7 38 -88.4 l2 -6.6 -2.8 1.6 c-5.5 3.3 -22.9 16.1 -32.6 24 -21.3 17.4 -38.3 38.5 -46.4 57.2 -6.7 15.5 -7.3 23.5 -2.5 31.8 2.2 3.8 8.8 8.4 12.1 8.4 0.6 0 3.8 -1.4 7.1 -3z m243.7 -114.5 c14 -2.6 29.3 -13 34.1 -23 1.9 -3.9 2.7 -11.7 1.3 -13 -1.4 -1.4 -37.6 11.5 -47.2 16.9 -7 3.9 -15.6 11.1 -15.6 13.1 0 2.8 9.9 7.1 17.2 7.4 1.4 0.1 6 -0.6 10.2 -1.4z m-61.7 -71 c0.4 -0.2 7.3 -54.6 7.3 -56.9 0 -1.5 -0.7 -1 -2.9 2 -6 8.1 -23 39.3 -31.3 57.5 l-3.5 7.6 15.1 -5 c8.3 -2.8 15.2 -5.1 15.3 -5.2z m70.4 -27.8 c18.9 -9.6 32.9 -20.7 34.5 -27.4 0.9 -3.4 -2.8 -7 -8.4 -8.2 -11.6 -2.4 -31.9 8.5 -39.2 21.3 -1.7 2.8 -3 6.4 -3 8 0 2.9 3.8 11.6 5 11.6 0.4 0 5.4 -2.4 11.1 -5.3z m147.9 -16.4 c5.6 -8.3 7.8 -13.9 6.1 -15.6 -2.5 -2.5 -11.3 10.4 -17.1 25.3 l-2.1 5.5 4.1 -4 c2.3 -2.2 6.3 -7.2 9 -11.2z"/>
 </g>
 <g fill="#ffffff">
  <path d="M3.1 1533.1 l-3.1 -2.9 0 -765.1 0 -765.1 1408 0 1408 0 0 766.3 c0 741.2 -0.1 766.4 -1.8 768 -1.7 1.6 -100.8 1.7 -1404.9 1.7 l-1403.1 0 -3.1 -2.9z m1133.7 -247.6 c8.7 -17.3 24.5 -47 29 -54.5 23.8 -39.8 50.8 -79.8 59.9 -89.2 2 -2.1 6.7 -5.8 10.3 -8.2 29.9 -20 73.3 -27.5 96.6 -16.7 17.4 8.1 24.1 23.9 15.5 36.4 -4.4 6.5 -9.8 9.1 -16.9 8.4 -9.3 -1 -16 -8.3 -16.2 -17.5 0 -4.9 -1.9 -5.4 -3.5 -0.8 -2.3 6.7 3.7 16.9 12.4 20.9 17.9 8 37.2 -9.7 31.6 -28.9 -0.9 -3.1 -2.7 -7.3 -3.9 -9.3 -15.8 -25 -69 -25.2 -111.4 -0.4 l-7.2 4.2 3.2 -4.7 c9.9 -14.4 26.3 -25 48.3 -31.4 6.6 -1.9 10.3 -2.3 21.5 -2.2 12.1 0 14.3 0.3 20.9 2.7 13.1 4.7 26.9 15.4 36.3 28 17 22.8 26.7 33.7 39.8 44.2 39.3 31.7 103 53.5 171 58.6 26.9 2 78.6 1.5 115 -0.9 8.5 -0.6 24.3 -1.6 35 -2.2 10.7 -0.7 22.6 -1.8 26.3 -2.6 3.8 -0.8 10.3 -1.4 14.5 -1.4 4.2 -0.1 10.2 -0.7 13.2 -1.5 5.4 -1.5 5.1 -1.5 -9 -1 -8 0.2 -25.5 1.1 -39 2 -46.4 2.8 -60.5 3.6 -67.5 3.4 -3.8 0 -19.8 0.2 -35.5 0.6 -41.4 1.1 -71.2 -1.4 -106.4 -9 -44.6 -9.6 -78.2 -23.2 -106.1 -42.8 -12 -8.5 -29.2 -25.6 -39.4 -39.2 -21.4 -28.6 -33.5 -38.2 -53.9 -42.9 -17.2 -3.9 -41.2 0 -57.9 9.6 -2.9 1.6 -5.3 2.4 -5.3 1.8 0 -0.6 3.5 -4.6 7.8 -8.9 8.6 -8.7 24.6 -19 44.3 -28.6 l11.6 -5.7 10.5 10.5 c9.7 9.7 11.4 11 21.9 16.1 30.6 15 76.6 18 99.1 6.5 5.5 -2.8 12.8 -9.7 14.4 -13.6 3.9 -9.3 -0.1 -20.8 -9.6 -27.8 -21.8 -16 -77.5 -16.7 -122.2 -1.6 l-11.7 3.9 -2.1 -5.5 c-1.2 -3.1 -1.9 -6.1 -1.6 -6.8 0.7 -1.9 25.1 -13.4 36.4 -17.2 17.5 -5.8 31.6 -8.4 50.4 -9 18.3 -0.6 25.9 0.2 41.8 4.3 16.7 4.4 34.6 14.2 46.3 25.2 5.7 5.5 12.7 14.9 12.7 17.2 0 0.6 -3 5.2 -6.6 10.3 -9.1 12.5 -12.7 20.5 -13.2 28.7 -0.3 5.5 -0.1 6.9 1.7 9.2 2.6 3.3 7.9 4.5 12.1 2.8 6.8 -2.8 12.4 -10.8 15.1 -21.4 1.4 -5.7 0.7 -18.4 -1.4 -24.2 l-1.5 -4.1 7.1 -8.4 c10.5 -12.4 24.8 -26.9 28.1 -28.6 4.7 -2.4 16.7 -6.3 19.5 -6.3 4.1 0 15.3 -3.1 20.2 -5.6 6.9 -3.5 11.4 -12 8.5 -16 -2 -2.6 -4.5 -1.5 -17.6 7.6 -12.7 8.8 -16.9 10.3 -24.7 8.9 -6.8 -1.3 -10.3 -2.6 -11.7 -4.3 -0.6 -0.7 -5.1 -2.6 -10.1 -4.1 -8.4 -2.5 -27.1 -11.3 -29.8 -13.9 -0.7 -0.7 -3.2 -2.3 -5.7 -3.7 -2.5 -1.5 -8.2 -4.7 -12.8 -7.3 -27 -15.4 -54.1 -21.4 -78.4 -17.2 -10.2 1.7 -26.8 7.1 -35.1 11.3 -2.7 1.3 -5.1 2.2 -5.4 2 -0.8 -0.8 14.1 -13.6 19.9 -17.2 20.8 -12.5 47 -19.6 95.1 -26 2 -0.3 3.7 -0.2 3.7 0.2 0.1 4 3.5 15.5 5.6 19.2 8.1 13.8 28.9 28.4 48.4 33.7 10.2 2.8 35.2 2.6 48.9 -0.4 24.9 -5.6 43 -15 57.2 -29.8 13.6 -14.3 22.5 -31.2 34.2 -64.9 2.5 -7.1 5.8 -16.3 7.4 -20.3 l2.9 -7.3 10 -4.8 c16.9 -8.1 26.3 -19.5 23.3 -28.1 -1.2 -3.4 -3.7 -4.4 -8.3 -3.6 -6.9 1.3 -16 10.8 -24.4 25.3 -4 6.9 -4.8 7.4 -16.7 9.4 -11.1 1.9 -30.7 0.5 -57 -4.1 -40.8 -7.1 -42.5 -7.3 -65 -7.3 -18.9 0 -22.3 0.2 -33.6 2.6 -20.1 4.2 -39.7 11.9 -54.9 21.6 -4 2.6 9 -11.7 14 -15.3 12.6 -9.2 27.6 -15.6 45 -19.3 14.3 -3 36.7 -2.4 63 1.7 37.4 5.9 62.1 4.6 84.6 -4.4 29 -11.7 54.8 -37.1 74.9 -73.6 2.5 -4.7 8.7 -16.6 13.7 -26.5 5 -9.9 11 -20.9 13.4 -24.5 5.7 -8.6 13.1 -16 16 -16 1.2 0 7.5 2.7 14 6 12.4 6.4 15.8 7.1 19.4 4.2 1.9 -1.5 2.2 -2.5 1.6 -5.3 -1 -5.2 -4.1 -9.6 -9.3 -13 -4.5 -2.8 -5.3 -3 -12 -2.6 -4.9 0.3 -8.2 1.1 -10.8 2.5 -2.7 1.6 -5.3 2.2 -9.9 2.2 -5 0 -7.5 0.6 -12.4 3.1 -6.6 3.3 -14.9 11.5 -18.3 18 -1.1 2.2 -2.1 3.9 -2.2 3.9 -0.2 0 4.1 -13.4 9.5 -29.7 5.4 -16.4 11.4 -35.2 13.4 -41.8 5.1 -16.8 9.1 -24.8 16.1 -31.8 3.2 -3.3 7.5 -6.8 9.6 -7.8 3.8 -2 4.8 -4.3 2.3 -5.2 -3.7 -1.4 -15 7.7 -21.5 17.3 -5.1 7.5 -6.9 12.2 -14.1 36 -16.8 55.8 -26.3 79.3 -40.7 101.2 -12.8 19.4 -30.8 32.7 -53.4 39.5 -8.9 2.6 -10.4 2.8 -28.4 2.8 -17.3 0 -20.5 -0.3 -36 -3.3 -28.6 -5.5 -40.8 -5.3 -59.4 0.8 -4.7 1.5 -8.7 2.7 -8.8 2.6 -0.1 -0.1 4.1 -4.9 9.3 -10.6 5.3 -5.8 14.2 -16.1 19.8 -23 10.3 -12.4 14.3 -16.7 15 -15.9 0.2 0.2 -0.1 2.8 -0.7 5.7 -1 4.7 -0.9 5.8 0.8 9 2.7 5 11.3 10.7 20.9 13.9 7.1 2.3 9.8 2.7 21.1 2.7 10.9 0.1 14.2 -0.3 20.5 -2.3 25.4 -7.9 43.7 -25 58.5 -55 20.6 -41.5 20.6 -86.1 -0.1 -105 l-5.6 -5.1 8.5 -11.3 c9 -12 21.9 -30.3 23.6 -33.6 0.6 -1.1 5.5 -4.3 10.9 -7.1 23.3 -12.2 39.2 -28.1 46.7 -46.7 1.4 -3.6 2.9 -8.9 3.2 -11.6 0.5 -4.3 0.4 -4.9 -1.1 -4.6 -1.2 0.3 -2.6 3.1 -4.5 9 -1.5 4.7 -4.1 10.9 -5.7 13.9 -3.8 6.9 -14.8 18.7 -24.3 26 -6.7 5 -14.9 10 -16.6 10 -0.3 0 1.6 -3.3 4.3 -7.2 25.1 -37.4 42.5 -69.9 57.2 -106.7 19.8 -49.8 22 -83.8 6.6 -100.9 -5.6 -6.2 -12.3 -8.7 -23.1 -8.6 -7.3 0 -10.6 0.6 -17.7 3 -4.9 1.7 -8.8 2.7 -8.8 2.4 0 -0.4 1.3 -6.1 2.9 -12.6 1.6 -6.5 5.1 -21.6 7.7 -33.4 l4.7 -21.4 9.2 -9.1 c13.5 -13.3 17.7 -23.7 12.1 -30.1 -2.2 -2.6 -2.5 -2.7 -6.3 -1.6 -7.6 2.3 -12.1 9.9 -16.5 28 l-2.2 9.3 -11.1 7.2 c-14.2 9.3 -39.5 21.9 -56.2 28.1 -7.3 2.7 -13.5 4.7 -13.7 4.5 -0.2 -0.2 0 -3.1 0.5 -6.4 7.5 -54.6 7.8 -64.2 2 -65.8 -7.3 -1.9 -16.2 11 -39.2 57 l-17.2 34.1 -14.1 4.7 c-16 5.4 -17 5.9 -15.6 8.6 1 1.7 1.5 1.6 10.3 -1.6 5 -1.8 10.9 -4.1 13 -4.9 2 -0.9 3.7 -1.3 3.7 -0.9 0 1.6 -14.4 29 -18.3 34.8 -7.6 11.5 -11.6 14.5 -19.2 14.5 -3.9 0 -5.1 -0.5 -9.1 -4.2 -6.1 -5.6 -10.3 -13.1 -16.9 -30.1 -3.1 -7.8 -6.9 -17.3 -8.5 -21.1 -1.7 -3.8 -2.9 -7 -2.7 -7.1 0.1 -0.1 3.3 -1.4 7 -2.9 9.8 -4.1 18.2 -9.8 26.3 -18 19.8 -19.9 25.4 -46.2 12.4 -58 -4.9 -4.4 -10.6 -6 -19 -5.3 -14.8 1.2 -28.8 10.6 -42.1 28.2 -2.3 3.1 -4.3 5.4 -4.5 5.2 -0.2 -0.2 0.3 -7.2 1.2 -15.6 0.8 -8.3 1.2 -15.6 0.9 -16.1 -0.7 -1.2 -3.2 -1.3 -3.8 -0.2 -0.3 0.4 -1 6.8 -1.7 14.2 -2.2 24.6 -3.1 28.3 -9.6 39 -26.8 44.3 -41.1 92.4 -28.8 97 12.1 4.6 25.2 -28.5 37.5 -94.5 2.3 -12.4 3.1 -13.9 14.7 -28.2 8.1 -10 15.5 -16.4 24.2 -20.9 4.8 -2.5 6.6 -2.9 14.1 -2.9 7.9 0 8.8 0.2 12.3 2.9 4.8 3.6 6.6 7.9 6.6 15.5 0 12.2 -6.3 24.6 -18.9 37.1 -8.6 8.6 -16.8 13.9 -27.2 17.5 l-4.3 1.5 -5.2 -5.1 c-3.9 -3.8 -6 -5.2 -9 -5.6 -10.8 -1.4 -13.1 11.8 -2.8 15.7 1.4 0.6 5.1 1 8.2 1 7.1 0 6.5 -0.8 16.2 23.5 4 9.9 8.5 20.5 10.1 23.5 8.5 16.1 20.2 22.4 31.6 16.9 7.9 -3.8 14.7 -13.6 28.1 -40.3 l7 -14 21.4 -7.2 c11.7 -4 21.4 -7.1 21.6 -7 0.1 0.2 -0.5 9.3 -1.4 20.2 -2.4 29.9 -1.2 51.6 2.8 47.6 0.5 -0.5 1.1 -11.6 1.3 -24.8 0.3 -13.1 1.1 -28.8 1.7 -34.7 l1.3 -10.9 6.6 -2.3 c22.1 -7.7 48.4 -20.1 62.7 -29.5 5.1 -3.3 9.5 -6 9.8 -6 1 0 -2.3 15.1 -11.2 52 l-3.5 14.5 -4.7 2.5 c-14.2 7.5 -31.1 21.1 -40.9 33 -3 3.6 -7.5 10.7 -10.1 15.9 -4.5 9 -4.7 9.8 -4.7 18 0 13.2 3.6 18 13.9 18.9 4.3 0.3 6.5 -0.1 10 -1.8 13.8 -6.6 27.8 -34.5 39.5 -78.6 1 -3.6 1.7 -4.4 5.9 -6.2 10.4 -4.5 15.7 -5.7 24.2 -5.7 7.4 0 9.1 0.3 13.5 2.8 10.3 5.7 14 14.9 14 34.2 0 14.4 -1.1 20.6 -7.7 42 -5.7 18.6 -12.4 34.7 -25.3 61 -12.6 25.4 -18 34.8 -36.8 63.3 l-12.8 19.4 -6.5 2.9 c-9.6 4.4 -21.9 8.2 -51.4 16 -55.1 14.6 -70.1 20.1 -91 33.6 -18 11.7 -28.1 21.8 -36.8 36.9 -9.1 15.8 -13.2 31.2 -13.2 49.9 0.1 13.5 1 20.1 5.6 39.5 3.9 16.5 3.9 31.3 0.1 42.4 -5.4 15.4 -10.1 23.5 -17.9 30.6 -5.8 5.3 -6.8 5.9 -5.5 3.4 1.9 -3.7 5.7 -17.2 8.7 -30.9 3.3 -15 3.7 -35.6 1.1 -63.6 -2.5 -26.8 -2.7 -43.4 -0.6 -55.4 5.1 -29.2 24.5 -53.3 55.9 -69.4 12.5 -6.4 26.6 -11 51.6 -16.8 39.9 -9.2 59.9 -16 79.4 -26.9 19.8 -11 36.6 -26.1 44.7 -40 5.7 -9.8 6.1 -11 4.4 -12.4 -1.2 -1 -1.8 -0.6 -3.2 2 -11.5 20.9 -30.1 37.7 -55.8 50.5 -16.4 8.1 -31.8 13.2 -58.7 19.5 -11.7 2.8 -21.9 5.2 -22.6 5.5 -0.7 0.3 -1 0 -0.7 -0.5 0.3 -0.6 1.1 -1 1.6 -1 2 0 28.3 -10.2 39.2 -15.2 30.7 -14.1 47.4 -28.3 56.8 -48.3 6.1 -13 8.8 -26.5 5.4 -26.5 -1.8 0 -1.7 -0.1 -3.9 9.5 -0.8 3.9 -3.7 11.3 -6.3 16.5 -10.4 20.9 -33.6 37.9 -70.1 51.6 -40.3 15 -64.8 26.1 -79.2 35.7 -10.9 7.2 -27.5 24.4 -33.2 34.2 -14.7 25.1 -17.3 49.9 -11.2 106.7 3.8 36.1 1.2 53.3 -12.4 81.8 -4.2 8.7 -6.2 11.6 -11.7 17 -3.7 3.6 -6.2 5.5 -5.6 4.3 0.6 -1.2 2.3 -7.1 3.9 -13 2.5 -10.2 2.7 -12 2.6 -32.8 0 -19.9 -0.3 -24.1 -3.4 -44 -3.2 -20 -3.5 -23.9 -3.4 -43.5 0 -18.6 0.3 -23 2.3 -32.4 6.1 -29 15.9 -48.1 34.1 -67 14.5 -14.9 30.5 -24.7 64.9 -39.3 33.3 -14.1 44.1 -23.4 49.8 -42.7 1.1 -3.7 3.1 -6.7 7.3 -11.1 8.7 -9.2 12.2 -17.5 10.6 -25.9 -1.6 -8.6 -10 -12.7 -14.5 -7 -3 3.8 -4 8.3 -4.7 22.7 l-0.7 12.7 -5.1 3.4 c-8.5 5.6 -16.6 9.3 -48.9 22.2 -54.1 21.8 -71.4 31.6 -90 51.3 -23.1 24.6 -35.1 55.9 -36.4 94.6 -0.7 22.7 2 44.8 9.2 75 9.9 41.6 7.9 75.9 -6.1 103.7 -3.9 7.7 -10.9 18.1 -14.3 21.2 -2.6 2.4 -2.6 2.7 0.4 -7.4 7.9 -26.5 10.2 -57.8 6 -82.2 -2.4 -13.2 -10.4 -34.8 -20.9 -55.7 -6.2 -12.3 -12.1 -27.2 -14.7 -37.3 -2.3 -9.3 -3.6 -28.9 -2.2 -35.2 0.8 -3.7 1.6 -4.4 9.8 -9.4 12.1 -7.3 21.5 -15 25.4 -20.9 2.8 -4.1 3.2 -5.5 2.8 -9.3 -0.9 -8.2 -8.2 -11.3 -16.6 -7 -8.6 4.3 -20.2 22.1 -24.5 37.5 -0.4 1.3 -6.1 5.3 -15.4 10.8 -19.4 11.5 -29.7 19.3 -41.4 31.5 -29.7 31 -46.8 73.5 -42.8 106.7 2.3 18.9 7.2 33.4 16.2 47 10.6 16.2 23.4 25.3 39.2 28 l3.9 0.6 -0.6 15.2 c-0.9 22.9 -4.1 40.1 -11.1 61.2 -6.8 20.3 -13.4 32.8 -22.9 43.9 -4.5 5.2 -8.5 9.5 -8.9 9.5 -0.3 0.1 0.7 -3.4 2.4 -7.6 14 -35.7 10.9 -62.9 -10.7 -96.8 -1.8 -2.7 -6.4 -9.9 -10.2 -16 -8.5 -13.2 -13.5 -23.7 -16.5 -34.2 -3 -10.6 -3.2 -29.8 -0.4 -39.1 1.4 -4.6 1.6 -6.6 0.8 -7.4 -1.8 -1.8 -3.8 0.6 -5.8 7.5 -2.6 9 -2.4 27.5 0.5 38.2 2.8 10.4 11 26.9 21.7 43.6 11.7 18.2 16.7 27.7 20.5 38.9 2.6 8 3.2 11.5 3.6 22 0.8 18.7 -1.6 28.7 -12.9 53.5 -2.9 6.3 -6.6 11.9 -12.2 18.7 -4.4 5.3 -8.1 9.6 -8.3 9.4 -0.1 -0.1 1.3 -3.9 3.1 -8.3 14.7 -34.7 14 -72.6 -2 -110.3 -9.2 -21.8 -21.3 -39 -42.4 -60 -21 -21 -29.6 -25.9 -45.5 -25.9 -10.4 -0.1 -18.7 3.3 -16.6 6.7 0.5 0.8 2.4 0.6 7.1 -0.9 7.1 -2.3 14.5 -2 22.1 0.6 16.5 5.9 42.9 32.7 61.4 62.5 18.5 29.9 26.3 68.1 20 98 -4.4 20.8 -14.9 45.7 -23.8 56.8 -5.2 6.4 -6.4 7.5 -5.2 4.5 2.5 -6.3 7.6 -25.8 9.5 -36.8 3 -16.7 3.2 -40.6 0.6 -53.9 -3.4 -17.7 -8.2 -29.8 -17 -43.4 -16 -24.6 -44.9 -37.5 -71.2 -31.7 -35.3 7.7 -63.5 41.6 -63.4 76.2 0.1 26.4 16.5 50.6 40 58.9 5.1 1.9 8.6 2.4 16.6 2.4 16.4 0 26.8 -4.2 38.4 -15.5 10.2 -9.8 16.8 -27.3 15.7 -41 l-0.5 -6 1.5 3.5 c2.8 6.5 6.3 22.1 6.9 31.3 1.5 21.7 -4.4 46.2 -17.1 72.2 -19.1 38.9 -56.8 74.4 -103.5 97.3 -39.4 19.3 -94.9 33.1 -141 35.1 -14.4 0.6 -15.5 0.7 -15.5 2.5 0 3.1 4 3.5 24.8 2.6 32.6 -1.5 60.6 -6.5 95.2 -16.9 9.3 -2.8 17.7 -5.1 18.6 -5.1 3.5 0 17.6 -6 17.6 -7.5 0 -1.8 -0.2 -1.8 -2.8 -0.4 -1.1 0.6 -2.5 0.9 -3.1 0.7 -0.7 -0.3 1.7 -1.8 5.3 -3.6 13.2 -6.4 31.9 -17.7 39.3 -23.6 2.8 -2.3 7.8 -6.1 11.1 -8.6 16.8 -12.5 44.9 -45 55.1 -63.6 6.8 -12.4 14 -31.2 17.1 -44.3 2.4 -10.4 2.7 -13.5 2.7 -30.1 0 -16.2 -0.2 -19.6 -2.3 -27.5 -5.5 -21.1 -19 -38.8 -33.9 -44.6 -6.7 -2.6 -19.5 -3.1 -25.5 -1.1 -4.1 1.5 -13.8 7.8 -15 9.8 -0.4 0.7 -1.4 2 -2.3 2.8 -3 3.1 -6.4 14.3 -6.4 21.4 0 12.2 4.8 20.9 14.7 26.8 4.2 2.5 5.8 2.9 12.8 2.9 7.1 0 8.5 -0.3 12.3 -2.8 5.4 -3.5 8.1 -9.1 8.2 -16.5 0 -8.9 -4.1 -14.2 -11.1 -14.2 -2.8 0 -4.5 0.7 -6.8 3.1 -1.7 1.7 -3.1 3.4 -3.1 3.9 0 2.1 2.3 1.9 5.1 -0.4 1.7 -1.4 3.5 -2.6 4 -2.6 3.7 0 7.9 5.6 7.9 10.5 0 4.5 -2.7 9.3 -6.9 12.1 -11.1 7.3 -27.4 -0.6 -31.7 -15.2 -4 -14 3.4 -29.3 17.4 -35.7 3.6 -1.6 6.7 -2.2 12.7 -2.2 6.9 0 8.8 0.4 13.8 3 23.8 12 26.5 47.6 5.3 68.9 -22.6 22.7 -58.6 18.2 -77 -9.6 -7.9 -11.8 -11.5 -30.6 -8.6 -45 4.9 -25.2 23.6 -47.2 48.5 -57 6.6 -2.6 9.8 -3.2 18.5 -3.6 12.7 -0.5 19.8 1 31.9 6.9 12.3 6 24.4 18.8 31.8 33.4 3.1 5.9 8.2 21 10 29 4.9 22.6 1.6 58.2 -7.9 85.5 -5.5 15.7 -10.6 25.4 -18 34.5 -3.5 4.2 -8.5 10.8 -11.3 14.5 -2.7 3.8 -9.7 13.1 -15.5 20.7 -5.8 7.6 -10.9 14.6 -11.5 15.5 -0.5 0.9 -4.7 6.9 -9.3 13.4 -12.7 18.2 -36.5 55.5 -44.5 69.9 -14.4 25.6 -31.7 59.9 -31.7 62.7 0 4.4 3.5 0.9 7.8 -7.7z m-942.7 -67.6 c23.9 -22.8 56.4 -42.7 88.7 -54.3 8.4 -3 21.3 -6.7 35.2 -10.1 29.5 -7.3 70.4 -10.2 104.6 -7.5 41.4 3.3 90.1 16.8 136.9 37.9 10.4 4.7 10.4 4.7 18 7.9 48.2 20.4 81.5 29.4 119.4 32.3 13.7 1.1 35 0.7 38.5 -0.7 0.9 -0.3 1.6 -1.4 1.6 -2.3 0 -1.4 -2.3 -1.6 -22.7 -1.6 -13 0 -26.9 -0.6 -32.3 -1.3 -12.3 -1.7 -34.4 -6.5 -49.1 -10.7 -11.5 -3.4 -42.7 -15 -58.9 -22 -46.3 -20.1 -61.8 -25.9 -88.1 -33.1 -24.9 -6.7 -42.9 -9.6 -73.6 -11.6 -31 -2 -69.8 1.6 -99.1 9.2 -44.1 11.4 -78.6 28.1 -108.7 52.5 -12.4 10.2 -20.9 18.9 -20.2 20.9 0.4 0.9 1 1.6 1.5 1.6 0.5 0 4.2 -3.2 8.3 -7.1z m1442.9 -429.9 c40.6 -5 69.5 -32.3 86.4 -81.7 8.1 -23.9 11.4 -41.6 14.1 -75.8 3 -38.4 6.3 -50.2 18.8 -67.2 7.7 -10.3 22 -19.3 33.2 -20.8 l5 -0.7 -4 3.3 c-7.7 6.2 -16.3 15.9 -22.2 24.6 -12.1 18.1 -18.2 36.9 -25.3 78.3 -7.6 43.9 -10.6 54.5 -22.5 78.5 -8.3 16.8 -16.1 27.9 -29.7 42 -4.8 5.1 -8.8 9.5 -8.8 9.9 0 0.3 1 0.6 2.3 0.6 6.9 0 30.2 -28.9 41.7 -51.8 9.2 -18.1 14.4 -37.6 22 -81.5 8.7 -50.8 16.3 -68.1 40.2 -92 13.3 -13.3 13.8 -15.7 3.4 -15.7 -16.3 0 -35.5 13.5 -44.9 31.7 -9.4 18.3 -10.9 24.8 -13.7 58.8 -3 36.5 -5.4 49.9 -13.2 73.5 -8.3 25.2 -17.5 41.2 -32.7 56.7 -23.8 24.1 -46 29.4 -92.1 21.7 -19.7 -3.3 -33.7 -3.1 -41.3 0.7 -3.1 1.5 -4.6 2.9 -4.4 3.9 0.2 0.8 1 1.3 1.8 1.1 0.8 -0.2 3.7 -1 6.4 -1.7 7.3 -2 23.4 -1.7 37.1 0.7 21.8 3.8 30.3 4.3 42.4 2.9z m-599.5 -291.9 c18.2 -8.1 35.5 -33.3 52.8 -77.1 6.3 -15.9 15 -41.2 19.7 -57.1 l2.2 -7.6 14.7 -7.5 c12.5 -6.4 23.9 -11.6 38 -17.5 l3.3 -1.4 -7.7 14.8 c-4.3 8.1 -9.3 17.1 -11.2 20 -3.8 5.7 -9.6 11.3 -11.8 11.3 -2 0 -4.5 -2.8 -4.5 -5.1 0 -1.2 -0.7 -1.9 -2 -1.9 -2.9 0 -2.7 5.1 0.3 8.6 1.8 2.1 3.2 2.7 6.4 2.7 8.1 0 13.4 -6.7 28.1 -35.2 l8.9 -17.4 21.7 -7.3 c20.6 -6.9 21.6 -7.2 21.6 -5.1 0 1.2 -0.7 8.1 -1.5 15.2 -1.5 13.2 -2 39.9 -0.8 46.8 0.4 3 1 3.7 2.5 3.5 1.8 -0.3 1.9 -1.6 2.2 -23.3 0.1 -12.6 0.9 -28.3 1.6 -34.8 l1.4 -11.7 3.9 -1.1 c2.1 -0.5 13.1 -4.6 24.5 -8.9 l20.7 -7.9 4 3.8 c2.2 2.1 8 6.7 13 10.2 10.4 7.5 19.3 15.5 21.7 19.6 l1.7 2.9 -10.7 3.4 c-16 5 -35.3 12.4 -42.3 16.1 -7.5 4 -16.2 11.7 -17.9 15.9 -4.4 10.5 8.3 20 26.7 20 15.3 0 31.7 -6.4 41.7 -16.4 8.4 -8.2 11.1 -13.9 11.1 -23.6 0 -4.1 -0.4 -8.7 -0.9 -10.2 -0.6 -2.2 -0.5 -2.8 0.7 -2.8 0.8 0 7.7 -2.1 15.2 -4.6 7.5 -2.5 13.8 -4.4 14.1 -4.2 0.4 0.5 -8.8 40.9 -11 48.3 -1.9 5.9 -2 9.1 -0.5 10.1 2.7 1.6 3.9 -2.4 14.9 -48.2 l3.1 -13.2 8.2 -3.2 c6.4 -2.5 22.2 -10 39.8 -18.8 0.4 -0.1 0 2.1 -0.8 5 -2.4 9.3 -6.1 32.9 -6.8 43.8 -1.1 16.5 2.6 28.6 9.9 33.1 3.7 2.3 10.3 2.5 15.1 0.5 5.9 -2.5 16.6 -15 15 -17.6 -1.3 -2.1 -3.3 -0.8 -7.7 4.9 -7.9 10.1 -16.7 12.5 -22.2 6.1 -4.1 -4.9 -5.1 -9.5 -5 -23 0 -15.2 3 -34.6 7.9 -51.6 1.3 -4.7 2.3 -5.8 10.6 -12.4 15.8 -12.7 26.6 -27.9 27.6 -39 0.4 -4.6 0.2 -6.5 -1.1 -8.5 -3.9 -6 -11.6 -5.3 -18.2 1.5 -6.6 6.8 -10.9 15.2 -16.9 33.2 -3.1 9.5 -6.5 17.8 -7.4 18.5 -4.4 3.3 -43.4 21.3 -46.2 21.3 -0.4 0 0.4 -4.8 1.6 -10.7 1.3 -6 4.6 -21.6 7.4 -34.9 5.8 -27.3 6 -29.4 3.1 -29.4 -1.1 0 -2 0.3 -2 0.8 0 2.1 -16.2 75.8 -16.8 76.4 -0.9 0.9 -27.6 10.3 -31.7 11.2 -2.7 0.6 -3.2 0.2 -5.8 -3.9 -3 -4.7 -11.4 -12.4 -20.7 -19 -3 -2.1 -8.1 -6 -11.2 -8.6 l-5.7 -4.7 11.7 -5.9 c28.7 -14.5 40.1 -25.1 40.2 -37.3 0.1 -20.3 -34.1 -20.6 -55.8 -0.6 -11.4 10.7 -14.5 23.4 -8.4 35.4 1.8 3.5 3.2 6.4 3.2 6.7 0 0.9 -43 16.8 -43.7 16.1 -0.2 -0.2 1.2 -12.2 3.1 -26.6 3.6 -26.6 4.4 -40.5 2.6 -44.1 -1.7 -3.1 -7.2 -2.5 -10.8 1.1 -7.1 7.1 -20 29.5 -37.6 65.5 l-11.3 23 -12.5 4.8 c-6.8 2.7 -19.5 8.3 -28.1 12.5 -9.7 4.8 -15.5 7.1 -15.2 6.2 0.2 -0.8 2.2 -7.8 4.4 -15.5 3.5 -12.7 4.5 -15 10.5 -24 12.3 -18.5 22.3 -40.7 24.7 -54.7 1.1 -6.8 1.1 -7.9 -0.4 -10.2 -6.7 -10.1 -16.9 7.7 -29.2 50.9 -6.7 23.6 -8.3 26.5 -22.5 40.6 -13.7 13.6 -24.6 19.7 -33.7 18.6 -10.5 -1.1 -14.8 -11.9 -11.8 -29 1.6 -9 6.4 -23.4 16 -47.7 6.3 -15.9 8.5 -23.6 8.5 -30.2 0 -10.1 -4.4 -14.8 -14 -14.8 -9.2 0 -19.4 6.8 -27.1 18.2 -5.2 7.6 -12.3 22.4 -11.4 23.7 1.5 2.5 3.4 0.6 7.3 -7.3 7.7 -15.4 17.1 -25.9 26.2 -29.1 6 -2.1 8.7 -1.9 11.7 1.1 2.4 2.4 2.5 3 2 9.7 -0.5 7.4 -1.6 10.7 -14 43.2 -7.5 19.9 -9.2 25.3 -10.6 35.5 -2.2 14.6 2.9 27.4 12.2 30.9 11 4.2 25.7 -2.7 43 -20 4.3 -4.4 7.9 -7.9 8.1 -7.9 0.2 0 -1.3 5.3 -3.2 11.8 l-3.4 11.7 -7.7 4.6 c-10.3 6.4 -31 20.9 -40.1 28.3 -26.9 22 -45.9 46.4 -53.6 69.1 -4.9 14.7 -3.3 30.6 3.9 38.3 6.5 7 17.3 8.7 27.2 4.3z"/>
  <path d="M1494 1103.5 c-2.8 -3.4 -2.3 -8.7 1.8 -17 5 -10.1 14.1 -23 15.3 -21.8 0.5 0.5 1.3 4 1.7 7.7 1.5 12.3 -1.6 23.6 -8.2 29.4 -4 3.5 -8.5 4.2 -10.6 1.7z"/>
  <path d="M1402 1090.9 c-11.9 -1.3 -32.1 -6.4 -41.1 -10.3 -4.2 -1.8 -10.8 -5.4 -14.8 -8.1 -7.6 -5.1 -18.4 -15.9 -17.8 -17.9 0.4 -1.4 17 -6.9 30.2 -10.1 15.5 -3.6 27.5 -4.9 46 -4.9 27.3 0.1 45.3 5.1 54.9 15.4 9.9 10.6 6.1 22.4 -9.8 29.9 -11.6 5.6 -30.4 7.9 -47.6 6z"/>
  <path d="M1281.6 1069.2 c12 -14.9 18.1 -20.9 25 -25 3.9 -2.3 7.5 -4.2 8 -4.2 0.8 0 4.8 9.2 4.9 11.2 0 0.3 -5.4 3.3 -12 6.7 -6.6 3.3 -16.2 8.5 -21.3 11.5 l-9.2 5.5 4.6 -5.7z"/>
  <path d="M1510 1050.9 c-1.9 -4.5 -16.3 -18.6 -25 -24.4 -12.2 -8.2 -26 -13.7 -44.7 -17.7 -15.1 -3.2 -39.6 -3.2 -56.8 0.1 -21.8 4 -38 9.4 -54.2 18.1 l-9.5 5.1 0.7 -2.8 c0.9 -3.8 1.7 -4.6 9.4 -9.7 9.9 -6.6 14.5 -9.1 27.6 -15.6 14.1 -6.9 17.4 -8.1 32 -12.2 10.1 -2.9 12.3 -3.1 27 -3.2 23.8 -0.1 33.9 2.8 65.7 19.2 13.7 7 18.7 8.8 18.9 6.8 0 -0.6 0.3 -0.4 0.7 0.5 0.6 1.4 0.9 1.5 1.9 0.4 1 -1.1 0.5 -1.6 -2.5 -2.5 -2 -0.7 -8.9 -4.1 -15.3 -7.6 -23.2 -12.8 -34.8 -17.9 -45.9 -20.5 -13 -3 -35.6 -2.7 -48.5 0.6 -14.4 3.8 -44.2 17 -55.2 24.6 -2.4 1.7 -4.6 2.9 -4.8 2.7 -0.2 -0.2 5 -6 11.6 -13 12.2 -12.9 17.8 -17.2 31.9 -24.3 27.5 -13.9 58.1 -15.2 87.4 -3.9 8.8 3.4 34 16.6 35.1 18.4 1 1.7 26.9 14.8 34.5 17.5 4.1 1.4 8.2 3.2 9 4 1.2 1 8.6 2.9 13.9 3.6 1.6 0.2 -8.8 2.9 -11.2 2.9 -1.6 0 -2.6 0.4 -2.2 1 0.3 0.5 1.3 0.7 2.3 0.4 1.4 -0.5 1.5 -0.4 0.2 0.5 -0.8 0.6 -2.6 1.1 -4 1.2 -1.7 0.1 -1.9 0.3 -0.7 0.6 0.9 0.2 1.7 0.8 1.7 1.2 0 0.3 -3.2 3.8 -7.1 7.6 -3.8 3.9 -10.2 10.7 -14.1 15.3 -4 4.5 -7.5 8.2 -7.9 8.2 -0.3 0 -1.2 -1.4 -1.9 -3.1z"/>
  <path d="M1312.1 1034.3 c1.3 -1.6 2.8 -3.2 3.2 -3.8 0.6 -0.6 0.6 0 0.2 1.5 -0.8 2.5 -3.2 4.9 -4.9 5 -0.5 0 0.1 -1.2 1.5 -2.7z"/>
  <path d="M1581.5 1006.1 c3.3 -2.3 7.2 -5.1 8.7 -6.3 3.4 -2.7 4.4 -1.9 2.4 2 -1.6 3.1 -7.4 6.4 -13.6 7.7 -3.3 0.7 -3.2 0.5 2.5 -3.4z"/>
  <path d="M1546.2 979.9 c-28.1 -5 -53.6 -25.5 -55.9 -45 -0.6 -5.4 -1.7 -4.7 10.7 -6.9 3.6 -0.7 8.5 -2.2 11 -3.4 l4.5 -2.1 -0.3 -7.5 c-1.3 -29.3 30.8 -43.7 70 -31.4 16.8 5.3 26 12.1 31.5 23.1 3.3 6.7 3.5 7.7 3.1 14 -0.8 10.2 -4 17.4 -10.9 24.8 -11.7 12.4 -26 19.2 -46.7 22.1 -10.7 1.5 -12.6 1.6 -20.8 0.2 -16.1 -2.8 -25.7 -10.7 -27.1 -22.6 -0.6 -5.5 1 -12.2 3.4 -14.5 1.7 -1.4 1.8 -1.2 1.9 4.7 0.2 13.2 10.2 23.9 23.7 25.3 5.9 0.6 15.5 -1.5 22.5 -4.9 7.2 -3.4 15.5 -11.9 18.7 -18.9 3.8 -8.6 3.9 -19.2 0.3 -27 -4.1 -8.7 -8.9 -13.4 -18.5 -18 -7.4 -3.7 -9.3 -4.1 -15.7 -4.2 -8.8 0 -14.7 2.4 -20.2 8.5 -3.9 4.4 -8.3 13.3 -10.4 21.3 -0.7 2.8 -2.6 6.4 -4 8.1 -4.5 5.2 -6.3 11.4 -5.8 19.1 1.5 21.4 21.6 31.4 54.4 27.3 30.8 -3.9 55.1 -22.9 59.5 -46.5 1.4 -7.8 0.6 -13.1 -3.1 -20.6 -7.3 -14.3 -21.9 -23.9 -43.3 -28.3 -10 -2.1 -28 -2.1 -36 0 -12.2 3.1 -22.9 10.9 -27.6 20.1 -2.4 4.8 -4.2 14.9 -3.5 19.5 0.5 3.2 0.4 3.4 -5 5.5 -3.1 1.3 -8.1 2.6 -11.1 2.9 l-5.5 0.7 0.6 -3.4 c2.4 -12.2 10.2 -25.6 21.9 -37.5 10.2 -10.3 18.2 -14.9 31.9 -18.4 13.9 -3.5 28 -2.1 50.8 5 14.1 4.5 14.8 4.6 14.8 2.5 0 -1.9 -2.4 -3.1 -14.2 -7.1 -29.7 -10 -51.9 -9.1 -72 2.9 -18.3 11 -33.4 31.3 -37.2 50.1 l-1.3 6.1 -7.6 0.7 c-11.1 1 -35.4 5.4 -49.2 8.9 -13.8 3.5 -22.5 6.5 -33.1 11.4 l-7.5 3.4 6 -6 c4.5 -4.4 7.8 -6.7 13.1 -8.8 12.4 -5.1 16.3 -9.3 24.7 -26.7 4.1 -8.5 5.6 -10.4 13 -17.1 10 -9.2 15.7 -13.1 28.8 -19.8 35.2 -18.1 64.2 -22.6 109 -17 6 0.7 19.6 2.9 30 4.9 31.6 5.8 48.3 6.9 63.5 4.2 4.1 -0.8 7.6 -1.3 7.8 -1.1 0.1 0.1 -1.1 3.3 -2.6 7.1 -1.6 3.8 -5.3 14.1 -8.2 22.9 -5.7 17 -15.2 36.9 -22.5 47.1 -13.8 19.3 -31.3 30.6 -58.4 37.6 -9.7 2.5 -14 3.1 -26.1 3.3 -8 0.2 -16.9 0 -19.8 -0.6z"/>
  <path d="M1353 979.9 c0 -0.3 1.2 -3.4 2.6 -7 2.9 -7.1 7.7 -23.4 9.9 -33.9 2.9 -14 3.8 -20.9 4.4 -37.5 l0.6 -17 6 -1.5 c20.6 -5.5 44.4 -28.9 52.7 -52 2.1 -5.8 2.3 -8.2 2.2 -22.5 0 -14 -0.3 -17.3 -2.7 -26.1 -3.2 -12.5 -6.2 -20.5 -11.6 -31.1 -4.1 -8.3 -6.8 -10.8 -5.8 -5.5 0.3 1.5 2.6 7.9 5.2 14.2 5.8 14 9 26.6 10.6 41.4 1 9.7 0.9 12.3 -0.5 19.6 -3.9 20.2 -19 40.4 -39.3 52.7 -4.5 2.7 -13.8 6.3 -16.5 6.3 -0.4 0 -0.8 -3 -0.9 -6.7 0 -3.8 -0.4 -9 -0.7 -11.8 l-0.7 -5 -6.9 -0.8 c-16.8 -1.8 -28.9 -12.9 -32.5 -29.5 -1.6 -7.5 -1.4 -25.8 0.4 -34.3 4.6 -21.6 19 -41.3 33.4 -45.6 6.6 -1.9 17.3 -1.3 22.3 1.3 18.5 9.4 30 32.2 30.1 59.9 0 20.8 -7.4 36 -21.1 42.9 -7.5 3.8 -18.8 2.7 -22 -2.2 l-1.5 -2.3 5.5 0.7 c10.8 1.3 21.6 -4.3 27.3 -13.9 1.3 -2.3 2.9 -7.4 3.6 -11.4 2.1 -13 -1.8 -25 -11.1 -33.7 -7.9 -7.4 -12.1 -9.1 -22.5 -9.1 -7.5 0 -9.8 0.4 -14 2.4 -7.5 3.7 -15.9 12.6 -20 21.3 -8.5 17.8 -4.3 34.1 10.5 41.6 4.4 2.2 8 3.3 11.1 3.4 4 0 4.8 0.4 6.4 3 3.5 6 15.8 8.8 25.2 5.7 7.7 -2.4 17.3 -10.9 21.2 -18.5 1.2 -2.2 3.1 -7.8 4.2 -12.4 3 -11.7 2.3 -29.5 -1.6 -42.5 -7.1 -23.9 -22.4 -39.9 -40.3 -42 -13.6 -1.5 -28.2 5.7 -37.1 18.5 -10.8 15.4 -16.1 31.9 -16.3 50.5 0 10.3 0.3 13.1 2.5 20 1.5 4.4 3.9 10 5.5 12.5 6.1 9.6 17.2 16.8 27.4 17.8 3.2 0.2 6 0.8 6.2 1.1 0.2 0.3 0.7 4.8 1 9.9 l0.8 9.2 -2.4 0 c-13.3 0 -31.9 -14.8 -41.1 -32.8 -14.9 -28.9 -15.3 -60.8 -1.3 -93.2 10.3 -23.7 29.6 -48.8 48.6 -63.5 6.8 -5.2 32.8 -21.5 34.3 -21.5 0.1 0 0.3 6.2 0.3 13.8 0.1 12.6 0.4 14.6 3.7 26 3.5 11.5 5.4 16.1 19.1 46 12.7 27.5 16.6 41.7 17.3 63.2 0.8 23.4 -2.2 44.1 -9.9 68.5 -3.6 11.2 -4.2 12 -25.6 32.9 -8.3 8.2 -12.2 12.6 -12.2 14.1 0 1.6 -4.5 6.6 -14.8 16.6 -8.2 7.9 -18.1 18 -22 22.3 -4 4.4 -7.2 7.7 -7.2 7.5z"/>
  <path d="M1537.5 954.2 c-4.9 -2.4 -8.9 -6.5 -10.9 -11.4 -1.7 -3.9 -2.1 -13.4 -0.8 -15.5 1.8 -2.8 12.8 -4.5 16.1 -2.4 1.1 0.7 0.8 1.6 -1.4 4.5 -1.6 2.2 -2.9 5.3 -3.2 8 -0.5 3.8 -0.1 4.7 2.5 7.7 2.9 3.2 3.4 3.4 9.4 3.4 17.9 -0.1 31 -19.5 23.3 -34.5 -5.9 -11.4 -24.1 -15.8 -32.5 -8 -3.7 3.5 -3.8 6.8 -0.5 10.8 l2.5 3 -8.3 0.4 c-4.5 0.2 -8.4 0.3 -8.6 0.1 -1.1 -0.8 3.3 -11.7 7 -17.2 3.1 -4.7 5.2 -6.6 9.5 -8.7 4.8 -2.3 6.2 -2.6 11.5 -2 11.7 1.2 23.3 8.6 28 17.9 3.1 5.9 3.7 15.9 1.4 22.8 -2.4 7.1 -10.2 14.9 -19.1 19.1 -8.7 4.1 -19.7 4.9 -25.9 2z"/>
  <path d="M1543.5 942.6 c-2.7 -2 -2.1 -7 1.4 -11.8 4 -5.4 4 -9 0.1 -13.5 -5.9 -6.6 -2.4 -10.8 8.3 -10.1 10.5 0.6 16.7 7.2 16.7 17.7 0 4 -0.6 5.7 -3.3 9.3 -6 7.8 -18 12.2 -23.2 8.4z"/>
  <path d="M1408.7 928.5 c1.2 -1.7 5.3 -6.4 9.2 -10.5 5.7 -6 6.8 -6.8 5.5 -4.1 -1.8 3.9 -9.3 12.2 -13.9 15.4 l-3 2.2 2.2 -3z"/>
  <path d="M1462.3 862.5 c2.5 -5.1 7.6 -22 8.7 -29.1 0.6 -3.8 1.1 -13.8 1.1 -22.4 0 -17.1 -1 -23.9 -8.5 -60.5 -7.3 -35.7 -8.8 -53.9 -6.2 -74.6 4.5 -35.6 17.4 -63.1 39.6 -84.3 18.7 -17.8 37.1 -27.6 89.5 -48.2 20.8 -8.2 33.9 -14.1 41.2 -18.6 l3.3 -1.9 -1.5 4.2 c-5.2 14.7 -17.9 23.7 -58.1 41.4 -17.3 7.6 -32.2 15.8 -41.6 22.7 -8.7 6.4 -20.4 18.9 -26.9 28.6 -22.4 34 -28.7 71.6 -20.9 126.7 1.7 12 3.6 27.5 4.2 34.3 2.9 31.8 -5.7 65.5 -20.3 79.7 -4.4 4.3 -4.9 4.6 -3.6 2z"/>
  <path d="M1695.1 850.3 c6.6 -11.1 14.6 -19.7 19.4 -20.9 6.8 -1.7 5.3 5 -2.9 13.1 -5 4.9 -15.3 11.5 -18.1 11.5 -0.4 0 0.4 -1.7 1.6 -3.7z"/>
  <path d="M1496.1 835.4 c7.1 -7.2 9.8 -9.3 17.4 -12.9 21.2 -10.1 48.8 -12.8 85.5 -8.1 19.4 2.5 29.1 2.9 41.1 1.6 15.4 -1.6 24.6 -4.1 35.6 -9.5 24.1 -11.9 49.8 -41 69 -78.2 13.3 -25.8 20.2 -33.4 32.3 -35.7 3.4 -0.7 3.5 -0.7 1.5 1.1 -6.9 6.2 -14.9 19.1 -30.4 49.1 -13.7 26.4 -17.9 33.4 -27.7 45.7 -25 31.5 -54.6 47.5 -90.9 49.1 -13.9 0.7 -21.4 0 -48.5 -4.2 -34.7 -5.5 -65.5 -2.7 -86.2 7.7 -3.2 1.6 -6 2.9 -6.4 2.9 -0.4 0 3.1 -3.9 7.7 -8.6z"/>
  <path d="M1358.5 842.1 c-11.6 -2 -18.5 -10.8 -18.5 -23.4 0 -8.8 5.5 -20.1 13.3 -27.5 7.1 -6.6 11.4 -8.5 19.7 -8.6 13 -0.2 24.1 8.4 28.1 21.7 7 22.9 -7.4 41.4 -29 37.1 -2.1 -0.5 -3.3 -1.4 -3.7 -2.9 -0.5 -2.1 1.1 -12.9 2.3 -14.8 0.2 -0.4 2.4 0.7 4.7 2.4 2.4 1.7 6.2 3.3 8.4 3.6 3.7 0.5 4.5 0.2 7.7 -3 3.2 -3.2 3.5 -4 3.5 -9.3 -0.1 -17.6 -16.9 -30.2 -31.6 -23.5 -7.5 3.4 -14.4 14.4 -14.4 23 0 4.5 2.1 10.3 4.5 12.7 2.6 2.6 7.3 3.2 9.3 1.2 0.6 -0.6 1.3 -1 1.5 -0.7 0.6 0.8 -0.5 12.9 -1.1 12.8 -0.4 -0.1 -2.5 -0.5 -4.7 -0.8z"/>
  <path d="M1355.9 825.4 c-2.1 -2.6 -2.4 -12.5 -0.4 -16.5 3.9 -7.6 9.8 -11.9 16.5 -11.9 5.2 0 8.7 1.8 13.2 6.8 5.7 6.3 7.4 15.4 3.7 19.8 -2 2.4 -7.2 1.7 -10.9 -1.6 -5.7 -4.8 -9.8 -3.9 -15.8 3.4 -1.6 2 -4.6 2 -6.3 0z"/>
  <path d="M1519.5 810.2 c7.6 -7.4 8.6 -8 18.5 -11.5 18.9 -6.7 25.9 -8 39 -7.4 6.9 0.3 18 1.8 28 3.8 15 3 18.1 3.3 35 3.4 16.3 0 19.5 -0.3 27 -2.3 11.7 -3.2 20.3 -7 29 -12.8 11.1 -7.3 11.2 -7.2 2.5 1.1 -14.2 13.6 -28.1 21.4 -45 25.1 -10.4 2.3 -38.5 2.4 -58 0.1 -7.7 -0.9 -18 -1.9 -23 -2.3 -16.7 -1.2 -41.6 2.6 -54.4 8.2 -2.9 1.3 -5.6 2.4 -6 2.4 -0.3 0 3 -3.5 7.4 -7.8z"/>
  <path d="M1536.5 784.5 c5.6 -14.3 6.2 -30.3 2 -48.5 -5.2 -23 -5.8 -26.5 -5.8 -39.5 -0.1 -11.2 0.3 -14.4 2.6 -22.9 8.7 -31.7 26.7 -52.7 59.3 -68.9 16.8 -8.4 30.1 -12.9 66.4 -22.6 35.3 -9.5 47.2 -13 54.7 -16.2 2.5 -1.1 4.7 -1.8 4.9 -1.6 0.4 0.4 -11.4 17.4 -21.3 30.4 l-8.5 11.2 -2.9 -1.4 c-4.3 -2.3 -16.2 -4.5 -23.8 -4.5 -14.9 0 -30.7 4.3 -53.2 14.5 -29.2 13.1 -52.6 34.4 -61.9 56.4 -3.8 8.9 -6.4 23.7 -5.5 31.6 1.4 13.4 4.4 21.2 12.7 33.6 4.3 6.4 7.8 12.4 7.8 13.3 0 3.9 -3.5 9.2 -14.1 21.3 -6.1 7 -11.9 13.5 -12.7 14.3 -1.3 1.3 -1.4 1.3 -0.7 -0.5z"/>
  <path d="M1607.1 769.4 c-8.4 -2.2 -17.6 -7.1 -21 -11 -2.7 -3.1 -3.1 -4 -2.5 -7.2 0.4 -2 0.8 -3.9 1 -4.1 0.2 -0.3 2.1 1 4.2 2.7 5.2 4.5 12.2 8 19.5 9.9 11 2.8 29.4 0.6 37.7 -4.6 16.3 -10.2 27.3 -29.7 28.7 -51.3 1.1 -15.7 -3.8 -30.3 -13.6 -41 l-5.2 -5.7 13.3 -16.3 c7.3 -9 15.3 -18.9 17.7 -22.1 2.4 -3.2 4.8 -6 5.3 -6.3 1.4 -0.9 8.9 5.7 12 10.5 12.7 20 10.4 56.8 -5.7 90.8 -17.6 37.5 -44.4 57.5 -76.4 57.2 -5.3 0 -12 -0.7 -15 -1.5z"/>
  <path d="M1613.5 755.9 c-7.5 -1.1 -18.7 -6.4 -24.5 -11.7 -5.2 -4.7 -5.6 -3.5 4.9 -15.3 14.3 -16.2 14.4 -16.4 15.2 -14.3 0.4 1.1 0.8 5.1 0.8 9.1 0.1 6.3 0.4 7.5 2.8 10.4 5.1 6 13.6 7.6 20.8 3.8 20.7 -10.9 27.1 -42.1 12.1 -58.7 -2 -2.2 -3.6 -4.3 -3.6 -4.6 0 -1 8.7 -12.3 10.1 -13.2 1.7 -1 9.3 7.7 12.7 14.7 4.3 8.8 5.2 12.9 5.2 23.9 0 11.7 -1.7 18.8 -7.2 29.3 -10.5 20.1 -28.1 29.5 -49.3 26.6z"/>
  <path d="M1567.7 747.7 c-0.3 -1.9 -3.5 -7.8 -7.1 -13.1 -7.5 -11.2 -10.3 -17.9 -11.9 -28.7 -2.7 -18.8 4.4 -39.3 19.4 -55.5 18.8 -20.6 50.3 -38.1 78.9 -43.9 10.5 -2.2 29 -1.7 36.3 1 l4.7 1.7 -3.2 4.3 c-4.1 5.4 -25.6 31.7 -30 36.7 l-3.3 3.8 -8.8 -3.6 c-7.2 -2.9 -10.6 -3.7 -18 -4.1 -36.2 -2.1 -69.7 30.4 -63.8 62 1.5 8.2 4.7 15 11.4 24 l5.8 7.9 -4.2 4.6 c-2.3 2.6 -4.5 5.1 -4.9 5.5 -0.4 0.5 -1 -0.7 -1.3 -2.6z"/>
  <path d="M1577.7 732 c-4.8 -5.7 -9.4 -14.5 -11.3 -22.1 -5 -19.6 7.2 -41.9 29.1 -52.9 9.4 -4.7 17.4 -6.3 28.4 -5.8 9.4 0.5 17.1 2.4 21.8 5.5 2.3 1.5 2.3 1.5 0.3 4.2 -1 1.4 -3.6 4.5 -5.7 6.9 l-3.8 4.3 -4.5 -2.3 c-3.7 -1.9 -6.1 -2.3 -13.5 -2.3 -8.1 0 -9.7 0.3 -16 3.3 -12.5 5.9 -21.5 17.2 -21.5 27 0 8.8 5.3 13.2 15.9 13.2 3.4 0 6.1 0.4 6.1 0.9 0 0.5 -0.4 1.1 -0.8 1.3 -0.5 0.2 -5 5 -10.2 10.8 -5.1 5.8 -9.6 10.9 -10 11.3 -0.4 0.5 -2.3 -1 -4.3 -3.3z"/>
  <path d="M1619.4 733.9 c-3.8 -1.9 -5.4 -6.1 -5.4 -14.1 0 -4.2 -0.5 -7.9 -1.1 -8.5 -1.5 -1.5 0.2 -4.2 9 -14.4 3.6 -4.1 8.8 -10.2 11.5 -13.4 l4.9 -5.8 2.9 3.4 c6.2 7.3 7.3 10.6 7.3 21.4 0 9.1 -0.3 10.5 -2.9 15.8 -6.2 12.1 -18.3 19.4 -26.2 15.6z"/>
  <path d="M1592.7 705.9 c-5.3 -0.9 -6.7 -2.4 -6.7 -7.8 0.1 -16.4 22.4 -29.8 41.6 -25 2.4 0.6 4.7 1.5 5 2 0.3 0.5 -4.7 7 -11 14.5 -6.4 7.5 -12.2 14.3 -12.9 15.2 -1.3 1.8 -8.7 2.3 -16 1.1z"/>
  <path d="M1814.1 701.2 c-1.3 -0.2 -4.2 -1.5 -6.5 -2.8 -2.2 -1.3 -6.5 -3.7 -9.3 -5.1 -2.9 -1.5 -5.3 -3 -5.3 -3.3 0 -0.4 2.2 -1.2 4.9 -1.8 8.3 -1.9 17.6 2.2 19.9 8.7 1.2 3.5 0 4.9 -3.7 4.3z"/>
  <path d="M1413 656.1 c1.5 -5.3 9.1 -19 13.1 -23.4 7.3 -8.4 14.7 -9.8 16.9 -3.2 1.1 3.3 0.9 3.8 -1.9 7.4 -4.5 5.7 -10.3 10.6 -19.6 16.7 -4.6 3 -8.5 5.4 -8.8 5.4 -0.3 0 -0.2 -1.3 0.3 -2.9z"/>
  <path d="M1638.2 500.8 c0.9 -12.2 2.2 -17.4 4.6 -18.3 4.8 -1.8 6.9 9.2 3.2 17.3 -2 4.4 -6.8 11.2 -7.9 11.2 -0.4 0 -0.3 -4.6 0.1 -10.2z"/>
  <path d="M1699.4 421.1 c-6.1 -2.6 -8.4 -10.6 -5.9 -20.3 4.4 -17.2 25.9 -41.2 48.8 -54.3 l4.8 -2.7 -0.7 2.8 c-0.4 1.6 -3.3 11 -6.6 20.9 -8.9 27.3 -17.6 43.7 -27 50.9 -3.7 2.8 -10.1 4.1 -13.4 2.7z"/>
  <path d="M1493.6 376.4 c-2.8 -7.4 2 -27.1 12.9 -52.4 4.3 -10.1 17.6 -35.2 18.2 -34.6 1.5 1.4 -12.6 56.8 -17.6 69.4 -5.9 14.8 -11.7 22.4 -13.5 17.6z"/>
  <path d="M1639.9 316.8 c2.1 -5.5 24.6 -49.7 30.6 -60.1 6.8 -11.8 13.2 -20.8 15.2 -21.4 2.3 -0.8 2.6 5 0.9 18.6 -2.6 21.9 -6.5 51.3 -6.8 51.6 -0.2 0.1 -8.8 3.1 -19.3 6.5 -10.4 3.5 -19.6 6.5 -20.3 6.8 -0.9 0.3 -1 -0.2 -0.3 -2z"/>
  <path d="M1537.5 310.6 c-3.3 -0.9 -4 -1.6 -4 -3.6 0 -1.8 0.6 -2.6 2 -2.8 2.6 -0.4 8.9 3.8 9.3 6.1 0.4 2 -1.5 2.1 -7.3 0.3z"/>
  <path d="M1773 256.6 c-0.1 -2.2 4.4 -15.5 6.7 -19.7 5.8 -10.8 12.7 -7.5 7.3 3.5 -1.9 4.1 -13.9 17.9 -14 16.2z"/>
  <path d="M1018.2 491.9 c-11.7 -5.8 -13.3 -23 -4.2 -44 10 -23.5 31.6 -47.4 63.5 -70.6 10.5 -7.6 27.5 -18.7 27.9 -18.2 0.6 0.7 -15.7 48.4 -21.3 62.4 -6.1 15.1 -16.2 35.2 -22.3 44.5 -6.6 10.1 -18 21.5 -25.1 25 -7.2 3.6 -12.5 3.9 -18.5 0.9z"/>
  <path d="M1259.5 377.3 c-8.6 -1.9 -13.5 -5.5 -13.5 -9.9 0 -3.6 7.5 -10.9 16.3 -15.8 11.5 -6.4 51.3 -20.3 53.2 -18.5 1.9 1.8 1.2 16 -1 20.4 -4.9 10.1 -20.2 20.4 -34.1 23 -7.2 1.4 -16.6 1.8 -20.9 0.8z"/>
  <path d="M1178 318.7 c0 -0.3 4.2 -9.2 9.3 -19.8 15.2 -31.5 30.2 -57.2 36.2 -62.1 2.9 -2.3 3.6 -0.5 2.9 7.2 -0.7 8.3 -7.4 61.3 -7.7 61.5 -0.3 0.2 -36.5 12.4 -38.9 13.2 -1 0.3 -1.8 0.3 -1.8 0z"/>
  <path d="M1127 301.5 c0 -1.3 7.8 -26.3 11.3 -36.2 3.2 -9 8.7 -19.5 10.6 -20.1 2.1 -0.7 0.7 8.9 -2.5 18 -3.6 9.9 -19.3 41 -19.4 38.3z"/>
  <path d="M1270.5 281 c-3.3 -5.2 -4.8 -12.2 -3.6 -16.6 4.7 -17.1 29.6 -32.1 47.2 -28.5 16.9 3.5 13 18.2 -8.6 32.4 -7.4 4.9 -30 16.7 -31.9 16.7 -0.3 0 -1.7 -1.8 -3.1 -4z"/>
  <path d="M1414 283.6 c0 -2.1 7.6 -23 10.5 -29 6.2 -12.5 14.2 -19.3 18.2 -15.3 5.3 5.3 -3.7 23.2 -18.4 36.7 -6.4 5.8 -10.3 8.7 -10.3 7.6z"/>
 </g>
</svg>