<svg version="1.1" id="Layer_1" xmlns="http://www.w3.org/2000/svg" xmlns:xlink="http://www.w3.org/1999/xlink" x="0px" y="0px"
	 width="100%" viewBox="0 0 2816 1536" enable-background="new 0 0 2816 1536" xml:space="preserve">
<path fill="none" opacity="1.000000" stroke="#000000" stroke-linecap="round" stroke-linejoin="round" stroke-width="3.000000"
	d="
M1688.000000,780.000000 
	C1718.652588,753.779907 1735.413208,719.473694 1743.741455,680.944092 
	C1748.320312,659.760681 1750.969604,638.184570 1755.680542,616.929199 
	C1761.983521,588.489075 1775.738647,565.374817 1798.009888,547.012024 
	C1798.932373,546.251343 1799.333374,545.666687 1799.000000,545.000000 
	C1794.442139,542.379578 1786.259644,542.680786 1780.012207,546.022766 
	C1757.947144,557.825867 1746.478516,577.034119 1742.015259,601.002808 
	C1738.385132,620.497314 1738.905029,640.417419 1736.037842,660.005554 
	C1730.326538,699.022278 1719.474609,736.024536 1690.838013,764.838989 
	C1672.993042,782.794800 1650.626831,789.684387 1624.980591,788.381836 
	C1611.799805,787.712341 1599.131958,784.482605 1586.021240,783.661682 
	C1574.615845,782.947510 1563.713379,782.846558 1553.000000,787.000000 
"/>
<path fill="none" opacity="1.000000" stroke="#000000" stroke-linecap="round" stroke-linejoin="round" stroke-width="3.000000"
	d="
M739.000000,1224.000000 
	C712.724609,1226.629272 686.679260,1224.381836 661.032043,1218.851318 
	C633.718994,1212.961670 607.585571,1203.331299 581.945557,1192.124512 
	C546.537598,1176.648438 511.122345,1160.864258 472.979523,1153.100586 
	C442.999573,1146.998413 412.809723,1144.164673 381.983948,1145.671997 
	C347.122650,1147.376709 313.644806,1153.931885 280.967896,1165.912476 
	C253.691925,1175.912842 229.228455,1190.490356 207.023193,1209.027832 
	C200.499313,1214.474121 192.632324,1218.632324 189.000000,1227.000000 
"/>
<path fill="none" opacity="1.000000" stroke="#000000" stroke-linecap="round" stroke-linejoin="round" stroke-width="3.000000"
	d="
M1276.000000,1078.000000 
	C1273.107788,1068.155762 1279.029175,1059.929321 1281.059692,1051.013550 
	C1288.972900,1016.266968 1290.514771,982.094177 1274.043213,948.978516 
	C1256.670654,914.051392 1228.995483,904.944885 1205.016724,907.179810 
	C1176.944580,909.796326 1145.267700,938.021790 1139.380737,967.877930 
	C1133.713989,996.617554 1149.244141,1027.154907 1170.978394,1037.047363 
	C1204.502563,1052.305908 1242.680176,1030.179321 1243.893921,990.996704 
	C1244.597534,968.285767 1232.437988,953.303528 1212.000000,950.000061 
	C1194.837891,947.226074 1177.890137,960.605835 1174.000000,980.000000 
	C1171.615723,991.886597 1182.613403,1006.983582 1195.966187,1011.109314 
	C1203.426147,1013.414307 1208.785767,1009.617737 1213.894897,1005.857178 
	C1219.519165,1001.717651 1218.844849,994.767395 1217.766479,989.044006 
	C1216.245117,980.968445 1210.188354,980.091736 1202.000000,986.000000 
"/>
<path fill="none" opacity="1.000000" stroke="#000000" stroke-linecap="round" stroke-linejoin="round" stroke-width="3.000000"
	d="
M1641.000000,515.000000 
	C1655.982178,504.672302 1658.243408,492.235107 1646.561035,481.600342 
	C1636.844238,489.600708 1639.478027,501.011261 1639.375000,511.003876 
	C1639.306885,517.603333 1638.004150,520.809143 1632.121948,524.210815 
	C1607.354126,538.533997 1580.112183,546.944763 1553.953125,557.888062 
	C1505.869019,578.003357 1471.359375,609.624939 1460.938110,662.987915 
	C1456.302246,686.726074 1456.920410,710.368835 1461.056885,733.990051 
	C1465.206787,757.688232 1471.874146,780.988953 1473.815063,805.014954 
	C1475.364136,824.191223 1470.543457,842.566101 1465.508179,861.137817 
	C1461.535767,875.789551 1453.844116,885.441162 1442.306274,894.394653 
	C1435.675171,899.540344 1430.724976,907.636169 1428.775391,916.953003 
	C1427.517578,922.964355 1423.167114,928.836304 1416.952393,929.623840 
	C1410.860229,930.395874 1407.374023,934.081482 1403.000000,937.000000 
"/>
<path fill="none" opacity="1.000000" stroke="#000000" stroke-linecap="round" stroke-linejoin="round" stroke-width="3.000000"
	d="
M1781.000000,1219.000000 
	C1758.550049,1219.103394 1736.335205,1222.783936 1713.987183,1223.681396 
	C1698.646240,1224.297485 1683.339844,1225.530151 1667.998901,1225.961060 
	C1654.334229,1226.345093 1640.659424,1226.467285 1626.994873,1226.774414 
	C1575.088867,1227.941650 1524.210327,1221.169312 1475.009766,1203.972168 
	C1431.169067,1188.648560 1395.769165,1162.546509 1368.743530,1124.180664 
	C1344.741211,1090.106812 1311.039551,1082.010620 1270.992065,1099.982300 
	C1267.841675,1101.396118 1264.962158,1104.477295 1261.000000,1102.000000 
"/>
<path fill="none" opacity="1.000000" stroke="#000000" stroke-linecap="round" stroke-linejoin="round" stroke-width="3.000000"
	d="
M1246.000000,980.000000 
	C1254.168579,987.999329 1254.716675,998.997314 1255.718140,1009.028137 
	C1258.812378,1040.017456 1251.270508,1069.168945 1235.869019,1095.924561 
	C1213.328491,1135.082520 1180.229248,1163.056396 1141.149292,1185.262695 
	C1105.756470,1205.373901 1067.118774,1213.870850 1027.943726,1220.675781 
	C1011.292236,1223.568237 994.063416,1223.950806 977.000000,1223.000000 
"/>
<path fill="none" opacity="1.000000" stroke="#000000" stroke-linecap="round" stroke-linejoin="round" stroke-width="3.000000"
	d="
M1635.000000,524.000000 
	C1636.282837,530.825317 1632.925415,535.975891 1629.016235,541.012634 
	C1616.952515,556.556274 1599.030151,562.548035 1581.998291,569.996216 
	C1553.338379,582.529541 1525.597046,596.389771 1508.027466,624.017517 
	C1487.350830,656.531128 1480.897095,691.793213 1485.702881,730.037354 
	C1489.114624,757.186890 1494.458984,784.362732 1491.913574,811.992004 
	C1491.194702,819.793884 1489.456299,827.497375 1487.028687,835.009277 
	C1485.712646,839.081238 1482.914185,843.396057 1488.442017,847.285095 
	C1495.300781,836.440552 1505.952637,828.813538 1512.589355,817.340881 
	C1515.054443,813.079224 1523.066040,810.461975 1526.781128,805.824646 
	C1538.042603,791.766724 1551.713745,779.955688 1562.922607,765.938110 
	C1569.308472,757.952271 1575.938965,750.320496 1584.000000,744.000000 
"/>
<path fill="none" opacity="1.000000" stroke="#000000" stroke-linecap="round" stroke-linejoin="round" stroke-width="3.000000"
	d="
M1793.000000,693.000000 
	C1801.237305,683.599182 1816.649902,687.792969 1821.981201,696.012207 
	C1823.535645,698.408569 1825.225586,701.452209 1823.828125,703.901917 
	C1821.813232,707.434143 1818.268311,706.015137 1814.982544,705.060120 
	C1807.671387,702.935181 1802.077393,697.637878 1795.094116,694.770630 
	C1789.769409,692.584351 1787.856934,693.138855 1783.705933,697.734436 
	C1768.158936,714.946350 1759.331787,735.877319 1749.042358,756.021667 
	C1734.995972,783.521729 1717.516113,808.155212 1690.951904,824.923889 
	C1668.087524,839.356995 1643.187988,844.831787 1615.974731,842.267639 
	C1595.566528,840.344604 1575.506348,835.438232 1554.998047,835.132080 
	C1536.454590,834.855347 1518.203491,837.083801 1500.919800,844.820801 
	C1497.725464,846.250671 1494.394043,850.333984 1490.000000,847.000000 
"/>
<path fill="none" opacity="1.000000" stroke="#000000" stroke-linecap="round" stroke-linejoin="round" stroke-width="3.000000"
	d="
M1369.000000,832.000000 
	C1369.333374,833.666687 1370.023560,835.351440 1369.939941,836.996948 
	C1369.513916,845.383972 1370.849365,852.315796 1379.937744,856.147766 
	C1389.203979,860.054749 1396.884033,857.104919 1403.930298,851.905518 
	C1417.949707,841.560669 1421.986938,825.989929 1421.652222,810.007263 
	C1421.292480,792.830505 1417.193359,776.257080 1406.110962,761.914246 
	C1389.052246,739.836670 1365.203857,740.403809 1350.298096,756.279846 
	C1330.398438,777.474670 1323.950562,803.188416 1331.896484,832.028503 
	C1337.186157,851.227417 1349.672852,860.256470 1369.390137,860.418823 
	C1376.229858,899.727417 1368.825562,936.880066 1358.319580,974.090210 
	C1352.487549,994.745972 1338.046509,1007.720886 1324.391968,1022.365479 
	C1317.912354,1029.314941 1314.965332,1039.705933 1305.984863,1044.974243 
	C1296.156616,1050.739624 1291.032837,1060.732178 1284.071289,1069.059570 
	C1282.492798,1070.947754 1280.301392,1072.938721 1281.000000,1076.000000 
"/>
<path fill="none" opacity="1.000000" stroke="#000000" stroke-linecap="round" stroke-linejoin="round" stroke-width="3.000000"
	d="
M1725.000000,565.000000 
	C1695.666626,573.333374 1666.361572,581.767578 1636.991577,589.969788 
	C1610.901978,597.255920 1586.311035,607.268372 1565.969849,625.967163 
	C1535.684692,653.806885 1528.423462,688.218567 1537.107056,726.976013 
	C1541.138306,744.968689 1545.454102,762.732239 1539.012451,781.004395 
	C1538.145264,783.464478 1540.161377,785.596008 1540.000000,788.000000 
"/>
<path fill="none" opacity="1.000000" stroke="#000000" stroke-linecap="round" stroke-linejoin="round" stroke-width="3.000000"
	d="
M1329.000000,1057.000000 
	C1343.901001,1080.459473 1367.624512,1088.903320 1393.024048,1093.877075 
	C1411.700073,1097.534180 1430.661865,1098.093506 1448.953491,1091.863525 
	C1464.231323,1086.660278 1471.008057,1078.604492 1470.246582,1067.982300 
	C1469.486328,1057.373413 1461.795898,1052.480591 1454.784668,1048.367065 
	C1445.335205,1042.822998 1433.990845,1040.830566 1422.991211,1040.141235 
	C1395.116821,1038.394653 1367.667236,1041.332520 1341.024170,1050.073608 
	C1336.519531,1051.551514 1332.333374,1054.000000 1328.000000,1056.000000 
"/>
<path fill="none" opacity="1.000000" stroke="#000000" stroke-linecap="round" stroke-linejoin="round" stroke-width="3.000000"
	d="
M1758.000000,499.000000 
	C1750.941406,517.005432 1737.540894,529.098694 1722.158813,540.219604 
	C1698.814819,557.096497 1672.553345,566.498474 1644.934204,571.647217 
	C1622.157959,575.893066 1599.602905,579.761169 1578.991821,590.985046 
	C1553.351440,604.947510 1531.840820,622.544006 1522.944214,651.983154 
	C1516.551392,673.136902 1517.340332,694.338745 1519.760254,716.026733 
	C1523.083862,745.813049 1524.586914,775.852234 1514.667236,804.886292 
	C1513.447998,808.454834 1513.600586,811.653442 1513.000000,815.000000 
"/>
<path fill="none" opacity="1.000000" stroke="#000000" stroke-linecap="round" stroke-linejoin="round" stroke-width="3.000000"
	d="
M1585.000000,741.000000 
	C1568.693359,728.009460 1561.775879,704.488708 1569.823242,685.923340 
	C1582.600220,656.446289 1624.055176,639.492493 1655.460815,660.305420 
	C1678.531128,631.675720 1702.135986,603.479553 1723.219971,573.152954 
	C1746.272949,539.994446 1768.812012,506.636902 1785.936890,469.970551 
	C1798.941895,442.125854 1810.942871,413.940552 1815.183594,383.025177 
	C1816.804688,371.206604 1816.223511,359.842743 1811.834106,349.067566 
	C1806.504883,335.984680 1792.229126,330.440796 1775.023560,334.110413 
	C1768.876587,335.421387 1762.959595,337.888336 1757.013550,340.037598 
	C1752.757324,341.576111 1753.655029,345.340942 1752.565063,348.865479 
	C1746.111328,369.732971 1741.024780,391.247894 1729.005005,410.003204 
	C1724.671143,416.765594 1719.846558,424.289703 1711.941162,425.660706 
	C1696.306763,428.372162 1691.691162,419.521454 1694.292969,402.043610 
	C1695.390625,394.669403 1700.239624,388.015869 1705.038208,382.030579 
	C1717.624390,366.331757 1731.197021,351.776428 1751.000000,345.000000 
"/>
<path fill="none" opacity="1.000000" stroke="#000000" stroke-linecap="round" stroke-linejoin="round" stroke-width="3.000000"
	d="
M1695.000000,858.000000 
	C1698.802124,844.427063 1706.351562,834.084656 1719.700928,828.712646 
	C1727.244629,832.321350 1724.224487,838.074097 1721.780884,841.858521 
	C1716.493042,850.047913 1707.986084,855.232178 1698.905762,857.645569 
	C1692.072144,859.461609 1689.966797,863.049255 1687.844238,868.943909 
	C1677.863403,896.662781 1670.436401,925.339539 1651.251465,949.202148 
	C1635.095703,969.296692 1613.518921,978.655396 1589.931519,983.678345 
	C1562.726318,989.471619 1536.294800,986.800720 1512.956055,969.057800 
	C1487.369995,949.606201 1484.856812,927.996094 1500.405884,902.245056 
	C1518.421875,872.408569 1547.825317,856.031982 1587.046021,867.847168 
	C1595.442993,870.376709 1604.016479,872.240356 1612.000000,876.000000 
"/>
<path fill="none" opacity="1.000000" stroke="#000000" stroke-linecap="round" stroke-linejoin="round" stroke-width="3.000000"
	d="
M1415.000000,664.000000 
	C1427.096924,658.277893 1438.123047,651.645874 1446.363037,640.262817 
	C1450.288940,634.839661 1450.159912,630.612305 1446.743164,627.261902 
	C1443.405884,623.989258 1437.742798,625.022766 1434.081055,628.096558 
	C1423.696045,636.814087 1416.576050,648.022949 1413.297485,661.074768 
	C1412.217651,665.373535 1411.775024,667.052979 1407.165527,669.334473 
	C1360.156738,692.601746 1326.939331,728.580872 1314.450073,780.109070 
	C1306.988037,810.896179 1313.477783,841.009277 1334.230591,865.807068 
	C1351.761597,886.755066 1375.006592,894.090637 1403.961914,869.954407 
	C1420.247681,856.379089 1431.758545,839.398865 1433.724854,817.974731 
	C1435.224243,801.638367 1430.585815,785.623840 1425.827026,770.052856 
	C1423.492310,762.414307 1419.333374,755.333313 1416.000000,748.000000 
"/>
<path fill="none" opacity="1.000000" stroke="#000000" stroke-linecap="round" stroke-linejoin="round" stroke-width="3.000000"
	d="
M1698.000000,612.000000 
	C1719.215576,629.850281 1720.147583,652.897522 1716.210693,678.033020 
	C1711.925781,705.390564 1701.197388,729.662415 1682.781128,749.799866 
	C1663.450928,770.936951 1639.298584,780.879944 1609.984253,774.067627 
	C1599.091187,771.536255 1589.913818,766.876892 1584.017456,757.072998 
	C1582.853760,752.227661 1591.824219,748.177917 1584.225220,743.367676 
	C1607.822632,715.849609 1630.911255,688.924805 1654.000000,662.000000 
"/>
<path fill="none" opacity="1.000000" stroke="#000000" stroke-linecap="round" stroke-linejoin="round" stroke-width="3.000000"
	d="
M1298.000000,1050.000000 
	C1296.654419,1046.813477 1297.376587,1044.079834 1298.888428,1040.946167 
	C1303.604736,1031.169556 1306.071167,1020.708435 1308.143433,1010.027832 
	C1312.031006,989.990662 1310.302368,970.465820 1305.020264,950.994507 
	C1298.138794,925.627197 1285.219849,903.757690 1268.150269,883.871033 
	C1257.880859,871.906982 1247.479370,860.407043 1234.012085,851.980713 
	C1223.264282,845.255859 1212.018555,844.076111 1199.953613,847.851562 
	C1197.881226,848.500122 1197.418579,849.418640 1197.000000,851.000000 
"/>
<path fill="none" opacity="1.000000" stroke="#000000" stroke-linecap="round" stroke-linejoin="round" stroke-width="3.000000"
	d="
M1119.000000,327.000000 
	C1110.279053,330.717529 1106.679810,340.030212 1099.106201,345.156921 
	C1095.118774,347.856110 1091.190796,350.583588 1087.051270,353.084900 
	C1079.893311,357.410278 1072.164185,359.436707 1065.149902,354.774536 
	C1057.472168,349.671509 1055.050415,340.767700 1056.173706,332.022308 
	C1058.700684,312.346191 1066.960449,294.339478 1073.944946,275.979065 
	C1076.940674,268.104248 1080.071899,260.149750 1081.735474,251.946365 
	C1082.809814,246.648621 1083.611572,240.192780 1077.982178,236.024048 
	C1072.127075,231.688293 1066.397583,234.820389 1061.042236,237.099274 
	C1052.304810,240.817337 1046.961548,248.739883 1042.375854,256.230103 
	C1038.923462,261.869324 1034.887207,267.917450 1034.000000,275.000000 
"/>
<path fill="none" opacity="1.000000" stroke="#000000" stroke-linecap="round" stroke-linejoin="round" stroke-width="3.000000"
	d="
M1692.000000,610.000000 
	C1673.333374,600.996399 1654.289062,604.447815 1636.095947,610.298279 
	C1613.543701,617.550354 1592.223267,628.409363 1575.173584,645.176514 
	C1554.018066,665.981628 1543.007935,690.452820 1552.786377,721.068237 
	C1555.461060,729.442444 1561.044800,735.657654 1565.203857,742.882690 
	C1567.477295,746.832214 1570.208008,750.395996 1571.000000,755.000000 
"/>
<path fill="none" opacity="1.000000" stroke="#000000" stroke-linecap="round" stroke-linejoin="round" stroke-width="3.000000"
	d="
M1688.000000,864.000000 
	C1680.507446,860.829773 1673.390259,865.111145 1666.002808,865.209534 
	C1641.836792,865.531433 1618.516602,859.777039 1595.042969,855.749329 
	C1552.290161,848.413696 1511.484253,851.649231 1472.992065,872.985718 
	C1469.848511,874.728210 1466.598389,876.317078 1463.000000,874.000000 
"/>
<path fill="none" opacity="1.000000" stroke="#000000" stroke-linecap="round" stroke-linejoin="round" stroke-width="3.000000"
	d="
M1410.000000,670.000000 
	C1408.251587,696.060120 1415.000244,720.013977 1426.851929,743.076111 
	C1435.833740,760.554077 1443.928955,778.515930 1448.045654,797.990356 
	C1453.907837,825.721252 1450.154541,852.967529 1443.662720,879.918762 
	C1442.583984,884.397156 1442.169922,888.590210 1442.000000,893.000000 
"/>
<path fill="none" opacity="1.000000" stroke="#000000" stroke-linecap="round" stroke-linejoin="round" stroke-width="3.000000"
	d="
M1290.000000,817.000000 
	C1279.999634,847.028870 1289.696899,873.043823 1305.902466,898.063232 
	C1316.465820,914.371765 1327.975098,930.102051 1332.247803,949.946655 
	C1336.280884,968.678284 1335.662354,986.511902 1327.929077,1003.968567 
	C1325.594238,1009.239075 1325.562378,1014.528625 1326.000000,1020.000000 
"/>
<path fill="none" opacity="1.000000" stroke="#000000" stroke-linecap="round" stroke-linejoin="round" stroke-width="3.000000"
	d="
M1515.000000,1059.000000 
	C1496.712646,1031.243896 1469.562134,1017.164001 1437.949341,1012.331299 
	C1409.009888,1007.907288 1380.500000,1012.609070 1352.963379,1022.902039 
	C1345.355469,1025.745728 1338.131836,1029.281128 1331.061279,1033.113037 
	C1326.834229,1035.403687 1322.651733,1036.380005 1318.000000,1036.000000 
"/>
<path fill="none" opacity="1.000000" stroke="#000000" stroke-linecap="round" stroke-linejoin="round" stroke-width="3.000000"
	d="
M1705.000000,784.000000 
	C1698.818604,798.187012 1685.540894,804.353210 1672.861572,809.669861 
	C1651.487793,818.632324 1628.666748,818.049683 1606.003174,814.976807 
	C1579.810791,811.425659 1553.737915,809.803650 1527.986694,817.957886 
	C1522.491089,819.698120 1517.475830,824.585571 1511.000000,821.000000 
"/>
<path fill="none" opacity="1.000000" stroke="#000000" stroke-linecap="round" stroke-linejoin="round" stroke-width="3.000000"
	d="
M1317.000000,1143.000000 
	C1315.529297,1152.464600 1319.508789,1160.423706 1328.000000,1165.000000 
	C1332.821777,1167.598755 1345.881592,1165.817749 1350.000122,1162.000122 
	C1357.707153,1154.855835 1360.684937,1142.746216 1355.903931,1134.052856 
	C1347.561890,1118.884033 1333.063477,1113.381470 1316.988525,1112.148804 
	C1295.712769,1110.517578 1275.809570,1116.468018 1255.906738,1123.744995 
	C1230.759521,1132.939575 1217.757935,1153.588867 1203.984497,1173.989502 
	C1179.102661,1210.843262 1156.819946,1249.199219 1136.886963,1288.943359 
	C1135.884033,1290.943237 1136.791626,1293.895752 1134.000000,1295.000000 
"/>
<path fill="none" opacity="1.000000" stroke="#000000" stroke-linecap="round" stroke-linejoin="round" stroke-width="3.000000"
	d="
M1372.000000,847.000000 
	C1373.666626,846.666687 1375.503540,845.700439 1376.974243,846.095886 
	C1395.970215,851.202820 1410.043457,835.668335 1408.872070,814.006897 
	C1408.123535,800.166138 1397.398438,787.483704 1385.000000,784.000000 
	C1369.456299,779.632568 1354.032227,787.730042 1345.000000,805.000000 
	C1337.785522,818.794189 1339.978516,835.288818 1351.145874,842.782654 
	C1356.427490,846.326904 1362.914307,849.765259 1370.000000,846.000000 
"/>
<path fill="none" opacity="1.000000" stroke="#000000" stroke-linecap="round" stroke-linejoin="round" stroke-width="3.000000"
	d="
M1557.000000,1016.000000 
	C1532.207153,1006.617920 1508.492065,995.208557 1485.883179,981.188293 
	C1466.551514,969.200256 1445.158813,962.925964 1421.998169,963.960022 
	C1406.854980,964.636047 1392.657837,968.692688 1378.999878,974.999817 
	C1375.808838,976.473511 1372.850586,978.724182 1369.000000,978.000000 
"/>
<path fill="none" opacity="1.000000" stroke="#000000" stroke-linecap="round" stroke-linejoin="round" stroke-width="3.000000"
	d="
M1525.000000,930.000000 
	C1527.280518,936.513184 1524.694824,943.996643 1529.916870,950.071472 
	C1541.176392,963.170227 1553.742798,964.338867 1572.032837,954.058289 
	C1592.525024,942.539856 1597.565674,917.359680 1578.691284,901.364319 
	C1569.482056,893.559875 1556.720337,887.548584 1544.142456,894.266724 
	C1531.312744,901.119385 1526.946655,913.991394 1526.000000,928.000000 
"/>
<path fill="none" opacity="1.000000" stroke="#000000" stroke-linecap="round" stroke-linejoin="round" stroke-width="3.000000"
	d="
M1279.000000,291.000000 
	C1289.898315,281.863922 1304.416992,278.847229 1315.273804,269.311798 
	C1318.010132,266.908508 1321.077393,264.400848 1323.944214,261.935150 
	C1329.396729,257.245636 1332.190674,250.470352 1329.673218,244.129776 
	C1326.649170,236.513901 1318.556519,234.229248 1311.025146,235.195541 
	C1295.555176,237.180374 1281.660400,242.429688 1272.916016,256.949402 
	C1265.116211,269.900513 1266.411987,280.651245 1276.907715,291.092743 
	C1285.224487,299.366455 1294.731812,306.013306 1304.050293,312.932281 
	C1310.586670,317.785583 1315.749878,323.541809 1319.709473,331.394897 
	C1303.107666,337.287231 1286.604370,341.882233 1270.931641,348.846039 
	C1263.880493,351.978973 1257.372925,355.507385 1252.011230,361.010986 
	C1244.946411,368.262878 1245.180054,375.758759 1254.092407,379.796082 
	C1277.520264,390.408844 1318.420532,375.085968 1322.240845,350.036743 
	C1323.248291,343.430237 1322.649170,337.779724 1319.894287,331.867401 
	C1331.300659,328.232910 1342.590454,324.408844 1354.032471,321.112732 
	C1358.031616,319.960693 1359.501587,317.770142 1360.034424,314.004883 
	C1363.090210,292.416412 1368.739136,271.347809 1373.119629,250.024582 
	C1373.746094,246.975540 1373.891846,244.025024 1374.000000,241.000000 
"/>
<path fill="none" opacity="1.000000" stroke="#000000" stroke-linecap="round" stroke-linejoin="round" stroke-width="3.000000"
	d="
M1800.000000,602.000000 
	C1786.972168,607.977722 1780.576416,618.734924 1775.732666,631.901672 
	C1767.095215,655.381165 1759.159180,679.312988 1752.914062,703.238586 
	C1745.953003,729.907349 1732.357178,751.204834 1716.099121,772.077148 
	C1706.228271,784.749573 1691.399048,788.390320 1677.875854,793.682800 
	C1655.101685,802.595642 1631.340942,800.208008 1608.019775,794.912659 
	C1586.738647,790.080505 1565.759521,789.241150 1545.017944,797.047729 
	C1541.888794,798.225525 1539.000000,800.622192 1536.000000,797.000000 
"/>
<path fill="none" opacity="1.000000" stroke="#000000" stroke-linecap="round" stroke-linejoin="round" stroke-width="3.000000"
	d="
M1501.000000,1015.000000 
	C1488.065796,1011.311768 1477.106079,1003.439636 1465.111694,997.763977 
	C1439.797852,985.785767 1414.279785,985.245972 1387.999634,992.998779 
	C1370.943604,998.030518 1355.456177,1006.479126 1339.996826,1014.994324 
	C1338.128906,1016.023254 1336.468384,1018.476990 1334.000000,1016.000000 
"/>
<path fill="none" opacity="1.000000" stroke="#000000" stroke-linecap="round" stroke-linejoin="round" stroke-width="3.000000"
	d="
M1171.000000,329.000000 
	C1149.784546,336.569214 1130.159424,346.919830 1110.589478,358.293579 
	C1091.848999,369.185211 1074.661011,381.562256 1058.046631,395.057434 
	C1038.964844,410.556885 1023.387451,428.969299 1014.061096,452.024719 
	C1010.456421,460.935638 1008.283325,470.002930 1009.833984,480.025696 
	C1012.704224,498.577057 1029.163574,502.924835 1042.941650,494.899902 
	C1056.128296,487.219543 1064.773438,475.149445 1072.003174,462.001740 
	C1089.550903,430.089569 1102.184204,396.282379 1111.000000,361.000000 
"/>
<path fill="none" opacity="1.000000" stroke="#000000" stroke-linecap="round" stroke-linejoin="round" stroke-width="3.000000"
	d="
M1222.000000,381.000000 
	C1220.327881,361.254059 1221.887207,341.709930 1223.548584,321.962036 
	C1225.770508,295.552368 1232.031982,269.603516 1231.940186,243.000214 
	C1231.933350,241.020279 1233.028687,238.717438 1229.936890,236.015533 
	C1226.426514,236.933105 1223.823975,238.358185 1220.688354,242.778946 
	C1203.601074,266.869019 1192.107666,293.844818 1178.984497,319.992249 
	C1171.093872,335.714050 1164.151489,351.935028 1154.923584,366.953033 
	C1151.950195,371.792114 1148.014160,376.014099 1142.169800,379.007050 
	C1138.713013,377.781128 1133.727051,377.348663 1134.000000,371.000000 
"/>
<path fill="none" opacity="1.000000" stroke="#000000" stroke-linecap="round" stroke-linejoin="round" stroke-width="3.000000"
	d="
M1687.000000,308.000000 
	C1685.706665,300.488495 1688.214355,293.317200 1689.050049,286.005707 
	C1690.538452,272.985352 1692.496216,260.017578 1693.902466,246.989471 
	C1694.335693,242.976028 1695.264526,238.237167 1689.315552,235.705856 
	C1681.622559,240.805588 1677.458984,248.758682 1672.770874,256.867554 
	C1661.844971,275.765747 1652.119263,295.212616 1643.037231,315.017059 
	C1642.049805,317.169861 1639.510742,319.263428 1642.000000,322.000000 
"/>
<path fill="none" opacity="1.000000" stroke="#000000" stroke-linecap="round" stroke-linejoin="round" stroke-width="3.000000"
	d="
M1551.000000,314.000000 
	C1547.197021,316.697754 1543.342407,316.082794 1538.957397,315.215759 
	C1534.197754,314.274658 1533.089233,311.404968 1534.191772,308.063263 
	C1535.487427,304.136658 1538.534180,302.921539 1543.063721,304.850250 
	C1548.463013,307.149261 1551.049683,311.617004 1553.180054,316.300415 
	C1572.034424,309.137909 1588.223755,299.808716 1599.035400,283.022766 
	C1603.059692,276.774658 1606.717163,270.089111 1607.708496,262.959473 
	C1608.889160,254.467422 1609.288452,245.285324 1601.006104,238.991928 
	C1592.745972,232.715393 1583.532715,234.093506 1575.079346,237.214874 
	C1562.415283,241.890945 1552.764771,250.900803 1544.879150,261.913452 
	C1542.895996,264.683105 1541.798584,269.103210 1537.000000,269.000000 
"/>
<path fill="none" opacity="1.000000" stroke="#000000" stroke-linecap="round" stroke-linejoin="round" stroke-width="3.000000"
	d="
M1658.000000,662.000000 
	C1690.664307,688.661316 1674.953247,742.375244 1646.944336,755.884705 
	C1629.529053,764.284729 1612.179565,764.018372 1595.979492,752.027771 
	C1593.459717,750.162659 1590.666626,748.666687 1588.000000,747.000000 
"/>
<path fill="none" opacity="1.000000" stroke="#000000" stroke-linecap="round" stroke-linejoin="round" stroke-width="3.000000"
	d="
M1555.000000,317.000000 
	C1561.973022,332.069092 1566.518555,348.134247 1573.874512,363.061859 
	C1574.634644,364.604431 1575.458984,366.863403 1576.220703,367.825226 
	C1588.953613,383.903320 1599.308228,390.186554 1614.760498,368.826721 
	C1622.831055,357.670654 1629.235840,345.123627 1633.948730,331.981598 
	C1635.728760,327.017761 1638.415161,324.348694 1643.943481,322.798431 
	C1678.380737,313.141388 1712.420532,302.077637 1743.899780,284.817169 
	C1761.242920,275.307648 1778.403564,265.092926 1790.195679,248.136108 
	C1792.261841,245.164978 1793.810547,242.080826 1794.784180,238.933243 
	C1795.712158,235.934189 1795.916138,231.775864 1791.958252,230.098648 
	C1789.111084,228.892090 1786.791016,230.697449 1784.995850,232.996719 
	C1778.565308,241.232391 1773.669312,249.953247 1776.000000,261.000000 
"/>
<path fill="none" opacity="1.000000" stroke="#000000" stroke-linecap="round" stroke-linejoin="round" stroke-width="3.000000"
	d="
M1116.000000,353.000000 
	C1118.114136,335.125458 1120.838501,317.589569 1132.922852,302.936401 
	C1144.698486,288.657776 1150.907837,271.518402 1155.875244,253.964691 
	C1156.690552,251.083710 1156.636475,247.562256 1154.000732,245.000610 
	C1147.182129,244.128265 1145.709473,250.761322 1144.380249,254.149216 
	C1138.886108,268.152527 1133.549561,282.291595 1129.868286,296.966949 
	C1129.155029,299.810455 1128.700684,301.947510 1131.000000,304.000000 
"/>
<path fill="none" opacity="1.000000" stroke="#000000" stroke-linecap="round" stroke-linejoin="round" stroke-width="3.000000"
	d="
M1721.000000,485.000000 
	C1716.859131,516.489258 1698.100342,536.767090 1671.050293,551.094849 
	C1657.129150,558.468445 1642.106079,563.152344 1628.000000,570.000000 
"/>
<path fill="none" opacity="1.000000" stroke="#000000" stroke-linecap="round" stroke-linejoin="round" stroke-width="3.000000"
	d="
M1368.000000,830.000000 
	C1371.431030,826.959778 1374.182861,820.403748 1379.875732,826.123657 
	C1383.979492,830.246887 1388.352661,831.821411 1392.895020,828.840088 
	C1398.755859,824.993469 1396.429077,818.164551 1395.711914,813.040283 
	C1394.371948,803.464905 1379.684326,794.621643 1371.000000,797.000000 
	C1360.256958,799.942200 1352.364868,815.661865 1355.897095,826.035034 
	C1358.218262,832.851685 1362.607178,832.676208 1368.000000,831.000000 
"/>
<path fill="none" opacity="1.000000" stroke="#000000" stroke-linecap="round" stroke-linejoin="round" stroke-width="3.000000"
	d="
M1417.000000,289.000000 
	C1431.721924,281.220367 1441.712036,269.400330 1448.292725,254.126114 
	C1449.538330,251.234894 1449.467529,248.705521 1450.031250,246.006516 
	C1450.828735,242.187256 1448.718262,239.483582 1445.911743,238.191589 
	C1443.445923,237.056381 1440.301392,238.257721 1438.024658,240.031631 
	C1428.191772,247.692612 1423.845825,258.753235 1420.035645,270.012054 
	C1411.456055,295.363556 1405.188354,321.257019 1403.079712,348.006287 
	C1402.578613,354.363617 1403.018677,360.726318 1404.917725,367.024811 
	C1409.098145,380.890442 1420.589966,384.617340 1430.935547,374.931152 
	C1434.019653,372.043671 1436.333374,368.333313 1439.000000,365.000000 
"/>
<path fill="none" opacity="1.000000" stroke="#000000" stroke-linecap="round" stroke-linejoin="round" stroke-width="3.000000"
	d="
M1546.000000,924.000000 
	C1553.110840,927.333313 1546.977539,931.707520 1545.656738,933.781372 
	C1542.978760,937.986511 1541.400513,942.055054 1544.178711,945.869812 
	C1547.268433,950.112122 1552.197510,949.319824 1557.020630,948.080078 
	C1568.203125,945.205688 1576.319214,936.030945 1576.000122,926.000000 
	C1575.677124,915.844482 1569.355591,908.779419 1559.000000,906.999939 
	C1552.763794,905.928284 1549.199707,907.487671 1542.999512,914.000183 
	C1542.837280,917.664917 1546.997192,919.408630 1547.000000,923.000000 
"/>
<path fill="none" opacity="1.000000" stroke="#000000" stroke-linecap="round" stroke-linejoin="round" stroke-width="3.000000"
	d="
M1557.000000,1020.000000 
	C1547.722778,1023.343262 1542.694336,1031.675171 1536.052856,1038.054932 
	C1522.309692,1051.256470 1510.481934,1066.127319 1500.125732,1082.081665 
	C1496.886353,1087.071777 1493.906494,1092.517334 1493.923584,1099.000244 
	C1493.934937,1103.293213 1493.482544,1107.908936 1498.064209,1109.848389 
	C1501.939087,1111.488525 1505.983032,1109.290405 1508.915283,1106.896240 
	C1517.328491,1100.026611 1519.529907,1089.868408 1519.501953,1080.001465 
	C1519.489990,1075.800659 1519.846436,1069.948608 1516.000000,1066.000000 
"/>
<path fill="none" opacity="1.000000" stroke="#000000" stroke-linecap="round" stroke-linejoin="round" stroke-width="3.000000"
	d="
M1644.000000,680.000000 
	C1664.221680,697.918457 1653.662598,729.813171 1636.027954,738.059753 
	C1624.965942,743.232666 1616.179443,738.144287 1615.996582,726.000061 
	C1615.925659,721.284302 1617.080688,716.180298 1612.000000,713.000000 
"/>
<path fill="none" opacity="1.000000" stroke="#000000" stroke-linecap="round" stroke-linejoin="round" stroke-width="3.000000"
	d="
M1490.000000,931.000000 
	C1478.057129,929.916748 1466.587891,933.064270 1455.006958,935.040894 
	C1437.129883,938.092285 1420.070190,943.854858 1402.810425,949.411133 
	C1386.905884,954.531006 1376.290283,963.485962 1367.869141,976.917969 
	C1365.489380,980.713623 1361.642456,983.675110 1357.000000,985.000000 
"/>
<path fill="none" opacity="1.000000" stroke="#000000" stroke-linecap="round" stroke-linejoin="round" stroke-width="3.000000"
	d="
M1528.000000,290.000000 
	C1516.785278,300.419525 1512.889038,315.173523 1506.370483,328.185577 
	C1500.485962,339.932159 1496.697388,352.934570 1494.084351,366.016846 
	C1493.508179,368.901764 1494.299072,372.037506 1493.928711,374.991058 
	C1493.395630,379.241943 1496.281250,381.657135 1499.121826,382.652069 
	C1500.616577,383.175629 1503.507080,380.849976 1505.160767,378.096558 
	C1513.766113,363.769531 1518.044800,347.944519 1521.950562,331.987915 
	C1525.655640,316.851410 1526.870361,300.854645 1530.967285,286.271759 
	C1535.792358,269.098328 1534.946899,251.939392 1538.000000,235.000000 
"/>
<path fill="none" opacity="1.000000" stroke="#000000" stroke-linecap="round" stroke-linejoin="round" stroke-width="3.000000"
	d="
M1638.000000,676.000000 
	C1621.777710,666.229004 1597.049805,674.460266 1589.229858,691.107971 
	C1583.251465,703.835449 1587.223633,711.349548 1601.000488,711.019775 
	C1603.696411,710.955322 1606.467163,710.595825 1609.000000,712.000000 
"/>
<path fill="none" opacity="1.000000" stroke="#000000" stroke-linecap="round" stroke-linejoin="round" stroke-width="3.000000"
	d="
M1790.000000,497.000000 
	C1788.259766,517.557434 1776.381714,532.031616 1760.885986,543.850525 
	C1754.061890,549.055420 1748.164185,556.786987 1738.000000,556.000000 
"/>
<path fill="none" opacity="1.000000" stroke="#000000" stroke-linecap="round" stroke-linejoin="round" stroke-width="3.000000"
	d="
M1769.000000,272.000000 
	C1770.950317,275.000000 1769.694946,278.022705 1768.984497,280.996277 
	C1764.682495,299.003754 1760.304932,316.993286 1756.049316,335.011658 
	C1755.676514,336.590240 1756.000000,338.333344 1756.000000,340.000000 
"/>
<path fill="none" opacity="1.000000" stroke="#000000" stroke-linecap="round" stroke-linejoin="round" stroke-width="3.000000"
	d="
M1684.000000,312.000000 
	C1685.253906,319.735687 1683.667847,327.333038 1683.109009,335.007935 
	C1682.067383,349.313568 1680.675293,363.666656 1683.000000,378.000000 
"/>
<path fill="none" opacity="1.000000" stroke="#000000" stroke-linecap="round" stroke-linejoin="round" stroke-width="3.000000"
	d="
M1356.000000,322.000000 
	C1357.968262,329.111908 1354.111328,335.368713 1352.887573,341.979187 
	C1350.459717,355.093842 1345.857422,367.736328 1344.000000,381.000000 
"/>
<path fill="none" opacity="1.000000" stroke="#000000" stroke-linecap="round" stroke-linejoin="round" stroke-width="3.000000"
	d="
M1409.000000,297.000000 
	C1396.315308,300.792816 1385.603149,309.006317 1373.010986,313.034393 
	C1368.690063,314.416565 1364.674561,316.775482 1360.000000,317.000000 
"/>
<path fill="none" opacity="1.000000" stroke="#000000" stroke-linecap="round" stroke-linejoin="round" stroke-width="3.000000"
	d="
M1275.000000,291.000000 
	C1259.215454,297.275024 1243.997192,305.149078 1227.000000,308.000000 
"/>
<path fill="none" opacity="1.000000" stroke="#000000" stroke-linecap="round" stroke-linejoin="round" stroke-width="3.000000"
	d="
M1559.000000,1019.000000 
	C1566.766724,1016.213623 1574.549194,1013.864014 1583.000366,1013.899719 
	C1591.348755,1013.934814 1597.035522,1008.269958 1598.177612,998.476868 
	C1589.912720,1002.147766 1582.581665,1005.458984 1578.000000,1013.000000 
"/>
<path fill="none" opacity="1.000000" stroke="#000000" stroke-linecap="round" stroke-linejoin="round" stroke-width="3.000000"
	d="
M1326.000000,1055.000000 
	C1313.706299,1062.674927 1300.844360,1070.824951 1287.696655,1075.057617 
	C1272.427368,1079.973145 1267.155396,1090.581177 1259.675781,1101.783447 
	C1254.010864,1110.267700 1245.085815,1116.445557 1238.817871,1124.864380 
	C1236.797729,1127.577637 1235.762451,1129.869263 1236.000000,1133.000000 
"/>
<path fill="none" opacity="1.000000" stroke="#000000" stroke-linecap="round" stroke-linejoin="round" stroke-width="3.000000"
	d="
M1222.000000,311.000000 
	C1207.432983,314.560547 1194.100464,322.204071 1179.000000,324.000000 
"/>
<path fill="none" opacity="1.000000" stroke="#000000" stroke-linecap="round" stroke-linejoin="round" stroke-width="3.000000"
	d="
M1785.000000,694.000000 
	C1777.651245,690.811157 1772.415039,695.231323 1767.000488,699.000671 
	C1761.498413,702.830933 1759.170288,709.836975 1753.000000,713.000000 
"/>
<path fill="none" opacity="1.000000" stroke="#000000" stroke-linecap="round" stroke-linejoin="round" stroke-width="3.000000"
	d="
M1634.000000,329.000000 
	C1623.779053,329.036713 1614.867432,332.608643 1607.000000,339.000000 
"/>
<path fill="none" opacity="1.000000" stroke="#000000" stroke-linecap="round" stroke-linejoin="round" stroke-width="3.000000"
	d="
M1487.000000,848.000000 
	C1479.217407,854.529297 1474.603760,864.378479 1465.000000,869.000000 
"/>
<path fill="none" opacity="1.000000" stroke="#000000" stroke-linecap="round" stroke-linejoin="round" stroke-width="3.000000"
	d="
M1428.000000,913.000000 
	C1420.388550,915.756653 1415.120605,920.563843 1414.000000,929.000000 
"/>
<path fill="none" opacity="1.000000" stroke="#000000" stroke-linecap="round" stroke-linejoin="round" stroke-width="3.000000"
	d="
M1320.000000,1038.000000 
	C1321.971558,1044.308960 1324.143188,1050.528931 1328.000000,1056.000000 
"/>
<path fill="none" opacity="1.000000" stroke="#000000" stroke-linecap="round" stroke-linejoin="round" stroke-width="3.000000"
	d="
M1545.000000,924.000000 
	C1539.029541,923.278198 1533.466919,924.868347 1528.000000,927.000000 
"/>
<path fill="none" opacity="1.000000" stroke="#000000" stroke-linecap="round" stroke-linejoin="round" stroke-width="2.000000"
	d="
M1402.000000,939.000000 
	C1399.472412,942.197388 1395.068237,944.081116 1395.000000,949.000000 
"/>
</svg>