<?xml version="1.0" encoding="utf-8"?>
<svg version="1.2" baseProfile="tiny-ps" xmlns="http://www.w3.org/2000/svg" width="2816px" height="1536px" viewBox="0 0 2816 1536" preserveAspectRatio="xMidYMid meet">
 <g fill="#000000" fill-rule="evenodd">
  <path d="M0 1530 L2.4 1532.5C3.8 1533.8 5.1 1535 5.4 1535 C5.7 1535 6 1535.2 6 1535.5 L6 1536L6 1536 L5.5 1536C5.2 1536 3.8 1536 2.5 1536 C0.3 1536 0 1535.5 0 1533 L0 1530"/>
  <path d="M2816 1533 L2816 1534.5C2816 1535.3 2815.5 1536 2815 1536 C2814.4 1536 2813.7 1536 2813.5 1536 L2813 1536L2813 1536 L2814.5 1534.5L2816 1533"/>
  <path d="M1129 1293.1 C1129 1290.3 1146.5 1255.7 1160.6 1230.5 C1168.7 1216.1 1192.5 1178.7 1205.2 1160.6 C1209.7 1154.1 1213.9 1148 1214.5 1147.1 C1215 1146.2 1220.2 1139.3 1226 1131.6 C1231.7 1124 1238.7 1114.7 1241.5 1111 C1244.2 1107.2 1249.3 1100.7 1252.7 1096.4 C1270.5 1074.7 1282.2 1032.7 1280.7 996.5 C1280.1 981.8 1278.5 973.5 1273.9 960.5 C1268.4 944.8 1262.5 935.3 1251.9 924.8 C1244.3 917.3 1233 911.1 1222 908.3 C1211.6 905.8 1196.6 906.8 1186.5 910.8 C1161.6 920.6 1142.8 942.5 1137.9 967.7 C1133.1 992.5 1145.5 1020.6 1165.8 1030.9 C1186.1 1041.1 1208.2 1037.9 1223.6 1022.4 C1244.7 1001.1 1242 965.4 1218.3 953.4 C1213.3 950.9 1211.4 950.5 1204.5 950.5 C1198.4 950.5 1195.3 951 1191.8 952.6 C1177.7 959.1 1170.3 974.3 1174.4 988.4 C1178.6 1003 1195 1010.8 1206 1003.5 C1210.2 1000.7 1213 996 1213 991.4 C1213 986.6 1208.7 981 1205.1 981 C1204.5 981 1202.7 982.1 1201 983.5 C1198.2 985.9 1196 986.1 1196 984 C1196 983.5 1197.3 981.7 1199 980 C1201.4 977.7 1203 977 1205.8 977 C1212.8 977 1217 982.2 1216.9 991.2 C1216.9 998.5 1214.1 1004.2 1208.8 1007.6 C1204.9 1010.1 1203.5 1010.4 1196.5 1010.4 C1189.5 1010.4 1187.9 1010.1 1183.7 1007.6 C1173.7 1001.6 1169 992.9 1169 980.8 C1169 973.7 1172.3 962.4 1175.4 959.4 C1176.2 958.5 1177.3 957.3 1177.7 956.6 C1178.9 954.5 1188.6 948.2 1192.7 946.8 C1198.6 944.7 1211.4 945.2 1218.1 947.8 C1233.1 953.6 1246.5 971.4 1252.1 992.5 C1254.1 1000.4 1254.4 1003.7 1254.4 1020 C1254.4 1036.5 1254.1 1039.7 1251.6 1050.1 C1248.6 1063.1 1241.3 1081.9 1234.5 1094.4 C1224.4 1113 1196.3 1145.5 1179.5 1158 C1176.2 1160.4 1171.2 1164.3 1168.4 1166.5 C1161 1172.5 1142.2 1183.7 1129 1190.2 C1125.5 1191.9 1123.1 1193.5 1123.7 1193.7 C1124.3 1193.9 1125.7 1193.6 1126.8 1193 C1129.4 1191.6 1129.6 1191.7 1129.6 1193.4 C1129.6 1194.9 1115.5 1201 1112.1 1201 C1111.1 1201 1102.8 1203.2 1093.5 1206 C1058.8 1216.5 1030.8 1221.4 998.2 1222.9 C977.4 1223.9 973.5 1223.4 973.5 1220.4 C973.5 1218.6 974.5 1218.4 989 1217.8 C1047.8 1215.4 1116.6 1194.6 1158 1166.9 C1172.8 1157 1179 1152 1191.3 1140.7 C1224.4 1110 1245.6 1070.7 1250.1 1032 C1251.9 1016.1 1249.1 994.4 1243.6 982 C1242.1 978.5 1242.1 978.5 1242.6 984.5 C1243.8 998.2 1237.1 1015.7 1227 1025.5 C1215.3 1036.8 1204.9 1041 1188.6 1040.9 C1180.6 1040.9 1177.1 1040.4 1172 1038.6 C1148.4 1030.2 1132 1006.1 1132 979.7 C1131.9 945.1 1160 911.2 1195.4 903.4 C1221.6 897.6 1250.6 910.5 1266.5 935.1 C1275.4 948.8 1280.1 960.9 1283.6 978.6 C1286.2 991.9 1285.9 1015.7 1283 1032.5 C1281.1 1043.4 1276 1062.9 1273.4 1069.2 C1272.2 1072.2 1273.4 1071.2 1278.7 1064.7 C1287.6 1053.7 1298 1028.8 1302.4 1007.9 C1308.8 978 1301 939.8 1282.4 910 C1268.5 887.5 1244.4 860.4 1231.3 852.6 C1219.1 845.3 1209.4 843.6 1199 846.8 C1194.2 848.3 1192.3 848.6 1191.8 847.7 C1189.7 844.4 1198.1 841 1208.5 841 C1224.3 841 1232.9 845.9 1254 866.9 C1275 887.9 1287.2 905.1 1296.4 926.9 C1312.3 964.7 1313 1002.6 1298.4 1037.3 C1296.5 1041.7 1295.1 1045.4 1295.3 1045.6 C1295.4 1045.7 1299.1 1041.5 1303.6 1036.2 C1309.2 1029.4 1312.8 1023.8 1315.7 1017.5 C1327 992.7 1329.4 982.7 1328.7 964 C1327.9 943.9 1323.1 931.7 1304.6 903 C1293.8 886.3 1285.6 869.9 1282.8 859.5 C1280 848.8 1279.7 830.3 1282.4 821.2 C1284.4 814.4 1286.3 811.9 1288.2 813.8 C1289 814.6 1288.8 816.5 1287.4 821.2 C1284.5 830.4 1284.7 849.7 1287.7 860.3 C1290.7 870.7 1295.8 881.2 1304.2 894.5 C1308.1 900.5 1312.7 907.7 1314.4 910.5 C1332.9 939.3 1337.7 963.1 1330.5 990.5 C1329.2 995.4 1326.8 1002.9 1325.2 1007.2 C1323.5 1011.5 1322.4 1014.9 1322.8 1014.9 C1323.2 1014.9 1327.1 1010.6 1331.6 1005.4 C1341.2 994.3 1347.7 981.8 1354.5 961.5 C1361.6 940.4 1364.7 923.2 1365.6 900.3 C1366.2 885.1 1366.2 885.1 1362.3 884.4 C1346.6 881.8 1333.8 872.6 1323.2 856.5 C1314.2 842.8 1309.2 828.4 1306.9 809.4 C1304.6 789.5 1309.4 767.1 1321.1 743.6 C1328.7 728.2 1337.9 715.2 1349.8 702.8 C1361.5 690.6 1371.8 682.7 1391.2 671.2 C1400.5 665.7 1406.2 661.7 1406.5 660.5 C1410.8 645.1 1422.4 627.3 1431 622.9 C1439.5 618.6 1446.7 621.7 1447.6 630 C1448 633.8 1447.6 635.2 1444.9 639.3 C1441 645.1 1431.6 652.8 1419.5 660.1 C1411.3 665.1 1410.4 665.9 1409.6 669.5 C1408.3 675.8 1409.5 695.5 1411.9 704.8 C1414.5 714.9 1420.3 729.7 1426.5 742.1 C1437 763 1445.1 784.5 1447.4 797.8 C1451.7 822.1 1449.4 853.4 1441.4 880 C1438.4 890 1438.5 889.7 1441 887.4 C1444.4 884.3 1451.5 873.9 1455.3 866.2 C1469.4 838.3 1471.4 804.1 1461.4 762.5 C1454.2 732.3 1451.5 710.1 1452.3 687.5 C1454 634.6 1476.3 594.6 1518.5 569 C1530.2 561.9 1546.4 554.5 1578.7 541.6 C1610.9 528.6 1619.1 524.9 1627.5 519.3 C1632.6 516 1632.6 516 1633.3 503.2 C1634.1 488.9 1635 484.4 1638 480.6 C1642.5 474.9 1650.9 478.9 1652.5 487.5 C1654.1 495.9 1650.7 504.3 1641.9 513.4 C1637.7 517.8 1635.7 520.8 1634.7 524.5 C1629 543.9 1618.2 553.1 1584.8 567.3 C1550.5 581.9 1534.4 591.6 1519.9 606.6 C1501.7 625.4 1492 644.6 1485.8 673.5 C1483.8 683 1483.5 687.3 1483.5 706 C1483.5 725.5 1483.8 729.4 1486.9 749.5 C1490 769.4 1490.3 773.5 1490.4 793.5 C1490.4 814.2 1490.3 816 1487.7 826.3 C1486.2 832.2 1484.5 838 1483.8 839.3 C1483.2 840.5 1485.7 838.5 1489.4 835 C1494.9 829.6 1497 826.6 1501.1 818 C1514.7 789.4 1517.3 772.3 1513.5 736.2 C1507.5 679.3 1510.1 654.5 1524.7 629.5 C1530.4 619.6 1547.1 602.5 1558 595.2 C1572.4 585.6 1596.8 574.6 1637.1 559.5 C1663 549.9 1680.1 539.8 1694 526 C1701 518.9 1703.4 515.8 1707.3 508 C1709.9 502.7 1712.7 495.3 1713.6 491.5 C1715.7 481.8 1715.7 482 1717.4 482 C1720.9 481.9 1718.1 495.5 1712 508.5 C1702.7 528.4 1686 542.6 1655.2 556.7 C1644.3 561.7 1618.1 571.9 1616.1 572 C1615.5 572 1614.8 572.4 1614.5 572.9 C1614.1 573.5 1614.4 573.7 1615.1 573.4 C1615.9 573.2 1626 570.7 1637.7 568 C1664.7 561.7 1680.1 556.6 1696.5 548.4 C1722.2 535.7 1740.8 518.8 1752.2 498 C1753.6 495.3 1754.3 495 1755.4 495.9 C1757.2 497.4 1756.8 498.5 1751.1 508.4 C1743 522.2 1726.1 537.3 1706.4 548.3 C1686.9 559.2 1666.8 566 1626.9 575.3 C1602 581.1 1587.8 585.7 1575.4 592 C1543.9 608.2 1524.6 632.2 1519.5 661.5 C1517.4 673.4 1517.6 690 1520 716.8 C1522.6 744.9 1522.3 765.4 1519 780.5 C1516 794.1 1512.1 807.7 1510.2 811.4 C1508.9 813.9 1509.9 813.3 1515.8 808 C1523.5 800.9 1528.2 792.8 1533.6 777.4 C1537.5 766.2 1537.4 751.4 1533.5 735 C1529 715.6 1528 709 1528 695.5 C1528 676.8 1532 661.3 1541.2 645.5 C1549.9 630.4 1560 620.3 1578 608.7 C1598.8 595.2 1613.8 589.7 1669 575.1 C1698.5 567.2 1710.8 563.4 1720.4 559.1 C1726.8 556.1 1726.8 556.1 1739.6 536.8 C1758.4 508.3 1763.9 498.9 1776.4 473.5 C1789.4 447.2 1796.1 431 1801.8 412.5 C1808.3 391 1809.4 384.9 1809.4 370.5 C1809.5 351.1 1805.7 342 1795.5 336.2 C1791.1 333.8 1789.4 333.5 1782 333.5 C1773.4 333.5 1768.2 334.7 1757.7 339.2 C1753.6 340.9 1752.8 341.7 1751.9 345.3 C1746 367.6 1740.1 383.9 1733 398.5 C1723.1 418.4 1713.8 426.7 1702.3 425.7 C1692 424.9 1688.5 420 1688.5 406.9 C1688.5 398.6 1688.6 397.9 1693.1 388.9 C1695.7 383.7 1700.2 376.5 1703.2 373 C1713 361.1 1729.9 347.5 1744.2 340 C1748.9 337.5 1748.9 337.5 1752.4 323 C1761.3 286 1764.5 270.9 1763.6 271 C1763.3 271 1758.9 273.7 1753.8 277 C1739.5 286.4 1713.1 298.8 1691 306.5 C1684.5 308.8 1684.5 308.8 1683.2 319.6 C1682.5 325.6 1681.7 341.2 1681.5 354.4 C1681.2 367.5 1680.6 378.7 1680.1 379.2 C1676.2 383.1 1674.9 361.5 1677.4 331.6 C1678.3 320.6 1678.9 311.5 1678.7 311.4 C1678.6 311.2 1668.8 314.4 1657.1 318.3 C1635.8 325.6 1635.8 325.6 1628.8 339.5 C1615.4 366.2 1608.5 376 1600.6 379.9 C1589.3 385.4 1577.6 379.1 1569.1 363 C1567.5 359.9 1562.9 349.4 1559 339.5 C1549.2 315.1 1549.8 316 1542.8 316 C1539.7 315.9 1535.9 315.5 1534.6 315 C1524.2 311.1 1526.6 297.8 1537.3 299.3 C1540.3 299.7 1542.5 301 1546.4 304.9 C1551.6 310 1551.6 310 1555.8 308.5 C1566.2 304.8 1574.5 299.5 1583 291 C1595.6 278.5 1602 266.1 1602 253.9 C1601.9 246.2 1600.1 242 1595.4 238.3 C1591.9 235.7 1591 235.5 1583 235.5 C1575.6 235.5 1573.7 235.9 1569 238.4 C1560.3 242.9 1552.9 249.2 1544.8 259.2 C1533.2 273.5 1532.3 275.1 1530 287.5 C1519.4 344.4 1507.8 378 1497.3 382 C1493.6 383.4 1490.3 381.6 1488.9 377.4 C1484.4 363.6 1499 321.9 1521.4 285 C1527.9 274.3 1528.8 270.5 1531 246 C1531.6 238.5 1532.4 232.1 1532.6 231.7 C1533.3 230.6 1535.7 230.8 1536.4 231.9 C1536.8 232.4 1536.3 239.7 1535.5 248.1 C1534.7 256.5 1534.1 263.5 1534.3 263.7 C1534.5 263.8 1536.6 261.5 1538.9 258.4 C1552.1 240.9 1566.2 231.5 1580.9 230.3 C1597.3 228.9 1607 237.8 1607 254.2 C1607 275.2 1586.3 301.1 1561.3 311.5 C1557.5 313.1 1554.3 314.4 1554.2 314.5 C1554.1 314.5 1555.3 317.7 1556.9 321.5 C1558.6 325.3 1562.4 334.8 1565.4 342.7 C1572 359.6 1576.3 367.1 1582.4 372.8 C1586.3 376.4 1587.5 377 1591.5 377 C1599.1 376.9 1603 374 1610.7 362.5 C1614.5 356.6 1629 329.2 1629 327.7 C1629 327.3 1627.3 327.6 1625.2 328.5 C1623.1 329.4 1617.3 331.6 1612.2 333.5 C1603.4 336.7 1602.9 336.8 1602 335 C1600.6 332.4 1601.6 331.8 1617.6 326.5 C1631.7 321.8 1631.7 321.8 1648.8 287.6 C1671.9 241.7 1680.8 228.8 1688 230.7 C1693.9 232.2 1693.6 241.9 1686 296.5 C1685.5 299.8 1685.3 302.6 1685.6 302.9 C1685.8 303.1 1691.9 301.1 1699.2 298.4 C1716 292.1 1741.2 279.5 1755.5 270.2 C1766.5 263 1766.5 263 1768.8 253.7 C1773.2 235.6 1777.6 228 1785.3 225.7 C1789 224.6 1789.3 224.7 1791.6 227.3 C1797.1 233.8 1793 244.1 1779.4 257.5 C1770.2 266.5 1770.2 266.5 1765.5 288 C1762.9 299.8 1759.5 314.8 1757.9 321.3 C1756.3 327.9 1755 333.5 1755 333.9 C1755 334.3 1758.9 333.2 1763.7 331.6 C1770.8 329.1 1774.1 328.6 1781.5 328.5 C1792.3 328.5 1798.9 330.9 1804.6 337.2 C1820 354.3 1817.8 388.3 1797.9 438.1 C1783.2 474.8 1765.8 507.4 1740.8 544.7 C1738.1 548.7 1736.1 552 1736.5 552 C1738.1 552 1746.4 547 1753 541.9 C1762.5 534.6 1773.6 522.9 1777.4 515.9 C1779 513 1781.5 506.7 1783 502 C1784.9 496.1 1786.3 493.3 1787.5 493.1 C1791.7 492.2 1786.3 510.5 1779 521.7 C1770.7 534.5 1756.3 546.8 1738.7 556 C1733.3 558.8 1728.5 562 1727.9 563.1 C1726.1 566.4 1713.2 584.7 1704.2 596.7 C1695.8 607.9 1695.8 607.9 1701.3 613 C1722 631.9 1722.1 676.5 1701.5 718 C1686.6 748.1 1668.4 765.2 1643 773.1 C1636.7 775.1 1633.4 775.4 1622.5 775.4 C1611.1 775.3 1608.4 775 1601.4 772.7 C1591.8 769.5 1583.2 763.8 1580.5 758.8 C1578.8 755.5 1578.7 754.5 1579.6 749.8 C1580.2 746.8 1580.6 744.3 1580.3 744 C1579.6 743.3 1575.6 747.5 1565.4 760 C1559.7 766.8 1550.8 777.2 1545.6 782.9 C1540.4 788.7 1536.2 793.5 1536.3 793.6 C1536.4 793.7 1540.3 792.5 1545.1 790.9 C1563.7 784.8 1575.9 784.7 1604.5 790.2 C1619.9 793.1 1623.2 793.4 1640.5 793.4 C1658.4 793.4 1660 793.3 1668.8 790.6 C1691.5 783.9 1709.5 770.6 1722.3 751.1 C1736.6 729.3 1746.1 705.7 1762.9 650 C1770.1 626.2 1772 621.5 1777 614 C1783.6 604.3 1794.9 595.2 1798.6 596.6 C1801.1 597.6 1800 599.9 1796.2 601.8 C1794.1 602.9 1789.8 606.4 1786.6 609.6 C1779.7 616.6 1775.6 624.7 1770.5 641.5 C1768.6 648.1 1762.5 666.8 1757.1 683.2 C1751.7 699.6 1747.5 713 1747.6 713 C1747.8 712.9 1748.8 711.2 1749.9 709.1 C1753.2 702.5 1761.5 694.3 1768.2 691 C1773 688.6 1775.5 687.9 1780.6 688 C1785.2 688 1787.8 687.4 1790.5 685.8 C1793 684.3 1796.4 683.5 1801.3 683.2 C1807.9 682.8 1808.8 683 1813.2 685.8 C1818.4 689.2 1821.6 693.6 1822.6 698.9 C1823.1 701.7 1822.8 702.6 1821 704.1 C1817.4 707.1 1814 706.3 1801.5 700 C1795.1 696.7 1788.8 694 1787.5 694 C1784.6 693.9 1777.2 701.3 1771.5 710 C1769.2 713.5 1763.2 724.6 1758.2 734.5 C1739.8 771 1730 786.4 1716 801.2 C1680.3 838.9 1646.4 848.7 1585 839 C1558.7 834.9 1536.3 834.2 1522 837.3 C1504.5 841 1489.5 847.4 1477 856.5 C1472 860.1 1458.9 874.4 1463 871.9 C1478.1 862.2 1497.7 854.5 1517.9 850.2 C1529.2 847.9 1532.6 847.6 1551.5 847.6 C1574 847.6 1575.7 847.8 1616.5 854.9 C1642.8 859.5 1662.4 860.9 1673.5 859.1 C1685.3 857 1686.2 856.6 1690.1 849.7 C1698.5 835.1 1707.6 825.7 1714.5 824.4 C1719.1 823.5 1721.6 824.6 1722.8 828 C1725.8 836.6 1716.4 848 1699.6 856 C1689.6 860.8 1689.6 860.8 1686.7 868.1 C1685.1 872.2 1681.7 881.3 1679.2 888.5 C1667.6 922.1 1658.7 939.1 1645 953.3 C1630.8 968.2 1612.7 977.6 1587.8 983.1 C1574.2 986.1 1549.1 986.4 1539 983.6 C1519.5 978.2 1498.7 963.7 1490.6 949.8 C1488.4 946.1 1485.1 934.6 1485 930.7 C1485 930.3 1483.3 930.2 1481.2 930.4 C1433.1 936.8 1406.9 944 1386.2 956.5 C1380.3 960 1365.5 972.8 1366.3 973.6 C1366.5 973.9 1369 973 1371.7 971.6 C1379.9 967.4 1396.6 962.1 1406.7 960.3 C1431.1 956.2 1458.2 962.1 1485.2 977.5 C1489.7 980.1 1495.5 983.4 1498 984.8 C1500.4 986.2 1503 987.9 1503.7 988.5 C1506.4 991.2 1525 999.9 1533.5 1002.5 C1538.4 1004 1542.9 1005.8 1543.5 1006.5 C1545 1008.3 1548.5 1009.6 1555.3 1010.8 C1563.1 1012.3 1567.3 1010.8 1580 1001.9 C1593 992.8 1595.6 991.7 1597.5 994.4 C1600.5 998.4 1596 1006.9 1589.1 1010.4 C1584.1 1012.9 1572.9 1016 1568.8 1016 C1566 1016 1554 1019.8 1549.4 1022.2 C1546 1024 1531.8 1038.4 1521.3 1050.8 C1514.1 1059.2 1514.1 1059.2 1515.6 1063.3 C1517.7 1069.2 1518.5 1081.8 1517 1087.6 C1514.4 1098.1 1508.7 1106.2 1501.9 1109 C1497.8 1110.7 1492.5 1109.4 1489.9 1106.2 C1488.1 1103.9 1487.8 1102.4 1488.1 1097 C1488.6 1088.8 1492.3 1080.8 1501.3 1068.2 C1505 1063.2 1508 1058.6 1508 1058 C1507.9 1055.6 1501 1046.2 1495.3 1040.8 C1483.6 1029.7 1465.7 1020 1448.9 1015.6 C1433 1011.4 1425.4 1010.6 1407.2 1011.2 C1388.4 1011.9 1374.3 1014.4 1356.7 1020.3 C1345.4 1024.1 1321 1035.6 1320.3 1037.5 C1320.1 1038.1 1320.8 1041.1 1321.9 1044.2 C1324 1049.8 1324 1049.8 1335.7 1045.8 C1380.5 1030.8 1436.2 1031.5 1457.9 1047.4 C1467.4 1054.4 1471.5 1066 1467.6 1075.2 C1466 1079.1 1458.6 1086.1 1453.2 1088.8 C1430.6 1100.4 1384.7 1097.4 1354.1 1082.4 C1343.6 1077.2 1341.8 1075.9 1332.2 1066.3 C1321.7 1055.8 1321.7 1055.8 1310.1 1061.4 C1290.4 1071 1274.4 1081.4 1265.7 1090.1 C1261.4 1094.4 1258 1098.4 1258 1099 C1258 1099.6 1260.3 1098.8 1263.2 1097.1 C1280 1087.6 1303.9 1083.6 1321.2 1087.6 C1341.6 1092.2 1353.7 1101.8 1375 1130.4 C1406.4 1172.4 1450.9 1197.5 1520.6 1212.5 C1555.7 1220 1585.6 1222.6 1626.9 1221.5 C1642.6 1221.1 1658.6 1220.8 1662.5 1220.9 C1669.4 1221 1683.6 1220.3 1730 1217.4 C1743.4 1216.6 1761 1215.7 1769 1215.4 C1783.1 1215 1783.3 1215 1778 1216.4 C1774.9 1217.2 1769 1217.9 1764.8 1217.9 C1760.5 1217.9 1754 1218.6 1750.3 1219.4 C1746.5 1220.1 1734.7 1221.3 1724 1221.9 C1713.2 1222.5 1697.5 1223.5 1689 1224.1 C1652.5 1226.6 1600.8 1227 1574 1225 C1505.9 1219.9 1442.2 1198.1 1403 1166.5 C1389.9 1155.9 1380.1 1145.1 1363.1 1122.2 C1353.8 1109.7 1339.9 1099 1326.9 1094.3 C1320.2 1091.9 1318 1091.6 1306 1091.5 C1294.8 1091.5 1291.1 1091.9 1284.5 1093.8 C1262.4 1100.1 1246 1110.8 1236.1 1125.2 C1232.9 1129.9 1232.9 1129.9 1240.2 1125.6 C1268.3 1109.2 1304.1 1102.8 1327.6 1110.1 C1343.8 1115.1 1351.6 1122.2 1355.5 1135.4 C1358 1144.2 1355.6 1153.2 1348.8 1159.6 C1341.6 1166.4 1332.5 1168.1 1323.9 1164.2 C1315.2 1160.3 1309.1 1150.1 1311.5 1143.3 C1313.1 1138.8 1314.9 1139.2 1315 1144.1 C1315.1 1153.4 1321.8 1160.7 1331.1 1161.6 C1338.3 1162.4 1343.6 1159.7 1348.1 1153.3 C1356.7 1140.8 1349.9 1124.9 1332.6 1116.9 C1309.3 1106.1 1265.9 1113.5 1235.9 1133.6 C1232.3 1136 1227.7 1139.6 1225.6 1141.7 C1216.5 1151.1 1189.6 1191.2 1165.7 1231 C1163.2 1235.1 1156.7 1247.1 1151.2 1257.5 C1133.7 1290.8 1132 1293.9 1130.5 1294.5 C1129.5 1294.8 1129 1294.3 1129 1293.1 M1493.9 1103.5 C1491.1 1099.8 1491.7 1094.7 1495.8 1086.5 C1500.8 1076.3 1509.8 1063.4 1511.1 1064.7 C1511.6 1065.2 1512.4 1068.6 1512.8 1072.4 C1514.3 1084.6 1511.1 1095.9 1504.6 1101.7 C1500.6 1105.2 1495.8 1106 1493.9 1103.5 M1401.7 1090.9 C1389.6 1089.5 1369.5 1084.4 1360.9 1080.6 C1356.7 1078.8 1350 1075.1 1346.1 1072.5 C1338.4 1067.3 1327.6 1056.5 1328.2 1054.6 C1328.7 1053.2 1345.2 1047.6 1358.5 1044.5 C1374 1040.8 1386 1039.5 1404.5 1039.6 C1431.7 1039.6 1449.8 1044.7 1459.4 1055 C1469.3 1065.6 1465.4 1077.3 1449.6 1084.9 C1437.9 1090.5 1418.2 1093 1401.7 1090.9 M1281.6 1069.2 C1293.1 1054.7 1299.6 1048.3 1306.6 1044.2 C1310.5 1041.8 1314.1 1040 1314.6 1040 C1315.3 1040 1319.3 1049.1 1319.4 1051.1 C1319.4 1051.5 1313.9 1054.5 1307.2 1057.9 C1300.5 1061.2 1290.9 1066.4 1286 1069.5 C1277 1075 1277 1075 1281.6 1069.2 M1509.8 1050.9 C1508.1 1046.5 1493.8 1032.4 1485 1026.4 C1472.8 1018.2 1459 1012.8 1440.2 1008.8 C1425.1 1005.6 1400.7 1005.6 1383.5 1008.8 C1361.6 1012.9 1345.5 1018.3 1329.2 1027 C1319.7 1032.1 1319.7 1032.1 1320.4 1029.3 C1321.4 1025.5 1322.2 1024.6 1329.8 1019.5 C1339.8 1013 1344.3 1010.4 1357.5 1004 C1371.6 997.1 1374.9 995.8 1389.5 991.7 C1399.5 988.9 1401.8 988.6 1416.5 988.5 C1440.3 988.4 1450.3 991.4 1482.2 1007.7 C1495.8 1014.8 1500.9 1016.6 1501 1014.6 C1501.1 1014 1501.4 1014.2 1501.8 1015.1 C1502.3 1016.5 1502.7 1016.5 1503.7 1015.4 C1504.7 1014.3 1504.2 1013.9 1501.2 1012.9 C1499.1 1012.3 1492.2 1008.9 1485.8 1005.3 C1462.6 992.6 1451.1 987.4 1440 984.8 C1426.9 981.8 1404.4 982.1 1391.5 985.5 C1377 989.2 1347.3 1002.5 1336.2 1010.1 C1333.8 1011.8 1331.6 1013 1331.4 1012.8 C1331.2 1012.6 1336.4 1006.7 1343 999.8 C1355.2 986.8 1360.9 982.5 1375 975.4 C1402.4 961.6 1433 960.2 1462.4 971.6 C1471.2 974.9 1496.3 988.1 1497.4 989.9 C1498.5 991.6 1524.4 1004.7 1531.9 1007.4 C1536.1 1008.9 1540.1 1010.7 1540.9 1011.4 C1542.1 1012.5 1549.6 1014.4 1554.9 1015 C1556.5 1015.2 1546 1017.9 1543.6 1017.9 C1542.1 1017.9 1541.1 1018.4 1541.4 1018.9 C1541.7 1019.4 1542.8 1019.6 1543.7 1019.3 C1545.2 1018.8 1545.2 1018.9 1544 1019.8 C1543.1 1020.4 1541.3 1021 1540 1021.1 C1538.2 1021.1 1538 1021.3 1539.2 1021.6 C1540.2 1021.9 1541 1022.4 1541 1022.8 C1541 1023.2 1537.8 1026.6 1533.9 1030.5 C1530 1034.3 1523.7 1041.2 1519.9 1045.7 C1516.1 1050.2 1512.5 1054 1512 1054 C1511.4 1054 1510.4 1052.6 1509.8 1050.9 M1312.2 1034.2 C1316 1029.5 1316.2 1029.4 1315.4 1031.9 C1314.6 1034.7 1312.5 1037 1311 1037 C1310.4 1037 1311 1035.7 1312.2 1034.2 M1581.7 1005.9 C1584.9 1003.7 1588.7 1000.9 1590.2 999.7 C1593.6 997 1594.6 997.9 1592.6 1001.7 C1591 1004.8 1584.4 1008.5 1579 1009.5 C1576.3 1009.9 1576.6 1009.5 1581.7 1005.9 M1545.9 979.9 C1517.3 974.3 1492.6 954.3 1490.3 934.9 C1489.6 929.4 1488.6 930.1 1501 927.9 C1504.5 927.3 1509.5 925.8 1512 924.6 C1516.5 922.4 1516.5 922.4 1516.1 914.9 C1514.8 885.6 1547 871.2 1586.2 883.6 C1602.9 888.8 1612.1 895.6 1617.6 906.7 C1621 913.4 1621.2 914.4 1620.7 920.7 C1619.9 930.8 1616.8 938 1609.8 945.4 C1598.2 957.9 1583.8 964.7 1563.1 967.6 C1552.4 969.1 1550.5 969.1 1542.4 967.7 C1526.2 965 1516.7 957.1 1515.3 945.2 C1514.6 939.6 1516.2 932.9 1518.7 930.7 C1520.3 929.2 1520.5 929.5 1520.6 935.3 C1520.8 948.6 1530.8 959.3 1544.2 960.6 C1550.1 961.2 1559.8 959.2 1566.8 955.8 C1573.9 952.3 1582.3 943.8 1585.4 936.8 C1589.3 928.3 1589.4 917.7 1585.7 909.8 C1581.7 901.2 1576.8 896.4 1567.3 891.8 C1559.8 888.2 1558 887.7 1551.5 887.7 C1542.7 887.6 1536.9 890.1 1531.4 896.2 C1527.4 900.6 1523.1 909.4 1520.9 917.5 C1520.2 920.2 1518.4 923.9 1516.9 925.6 C1512.5 930.7 1510.6 936.9 1511.2 944.7 C1512.7 966 1532.7 976.1 1565.6 971.9 C1596.4 968.1 1620.7 949.1 1625 925.4 C1626.5 917.6 1625.7 912.3 1621.9 904.9 C1614.7 890.5 1600 880.9 1578.6 876.5 C1568.7 874.5 1550.6 874.5 1542.7 876.5 C1530.4 879.7 1519.8 887.5 1515.1 896.7 C1512.7 901.4 1510.9 911.5 1511.6 916.2 C1512.1 919.4 1511.9 919.5 1506.5 921.7 C1503.5 922.9 1498.5 924.2 1495.4 924.6 C1489.9 925.2 1489.9 925.2 1490.6 921.8 C1492.9 909.6 1500.7 896.3 1512.5 884.4 C1522.6 874 1530.6 869.4 1544.4 865.9 C1558.3 862.4 1572.3 863.8 1595.1 871 C1609.3 875.4 1610 875.5 1610 873.5 C1610 871.6 1607.6 870.4 1595.8 866.4 C1566 856.4 1543.8 857.3 1523.7 869.3 C1505.4 880.2 1490.4 900.5 1486.5 919.3 C1485.3 925.5 1485.3 925.5 1477.7 926.1 C1466.5 927.2 1442.2 931.6 1428.5 935 C1414.7 938.5 1405.9 941.5 1395.3 946.4 C1387.8 949.9 1387.8 949.9 1393.9 943.9 C1398.4 939.4 1401.7 937.2 1406.9 935 C1419.3 930 1423.3 925.7 1431.7 908.4 C1435.8 899.9 1437.3 897.9 1444.6 891.2 C1454.7 882 1460.4 878.1 1473.5 871.4 C1508.7 853.4 1537.6 848.8 1582.4 854.4 C1588.5 855.2 1602 857.4 1612.5 859.3 C1644 865.1 1660.8 866.2 1676 863.5 C1680.1 862.8 1683.6 862.3 1683.7 862.4 C1683.9 862.5 1682.7 865.7 1681.1 869.5 C1679.6 873.3 1675.9 883.7 1672.9 892.5 C1667.2 909.4 1657.7 929.3 1650.4 939.5 C1632.2 965.1 1603.1 979.2 1566 980.5 C1557.6 980.7 1548.7 980.5 1545.9 979.9 M1353 979.6 C1353 979.4 1354.1 976.4 1355.6 972.9 C1358.5 965.8 1363.2 949.5 1365.4 939 C1368.4 925 1369.2 918 1369.8 901.5 C1370.5 884.5 1370.5 884.5 1376.5 882.9 C1397.1 877.4 1420.8 854 1429.1 831 C1431.2 825.1 1431.4 822.8 1431.4 808.5 C1431.3 794.5 1431 791.2 1428.7 782.4 C1425.4 769.9 1422.4 761.9 1417.1 751.2 C1412.9 742.9 1410.3 740.4 1411.2 745.7 C1411.5 747.2 1413.9 753.6 1416.5 759.9 C1422.2 774 1425.4 786.6 1427 801.3 C1428.1 811 1428 813.7 1426.6 821 C1422.6 841.2 1407.5 861.4 1387.3 873.7 C1382.8 876.4 1373.4 880 1370.8 880 C1370.3 880 1369.9 876.9 1369.9 873.2 C1369.8 869.5 1369.5 864.2 1369.1 861.5 C1368.5 856.5 1368.5 856.5 1361.5 855.7 C1344.7 853.8 1332.6 842.8 1329.1 826.2 C1327.5 818.6 1327.7 800.4 1329.5 791.9 C1334 770.2 1348.5 750.5 1362.9 746.3 C1369.4 744.4 1380.1 745 1385.1 747.5 C1403.7 757 1415.1 779.8 1415.2 807.5 C1415.3 828.3 1407.9 843.4 1394.1 850.4 C1386.7 854.2 1375.4 853 1372.2 848.2 C1370.7 845.9 1370.7 845.9 1376.1 846.5 C1386.9 847.8 1397.7 842.3 1403.4 832.6 C1404.7 830.3 1406.4 825.2 1407 821.2 C1409.2 808.2 1405.2 796.2 1395.9 787.5 C1388 780.1 1383.9 778.5 1373.5 778.5 C1365.9 778.5 1363.6 778.9 1359.5 780.9 C1351.9 784.6 1343.5 793.5 1339.4 802.2 C1331 819.9 1335.1 836.2 1350 843.7 C1354.3 845.9 1358 847.1 1361.1 847.1 C1365.1 847.2 1365.9 847.6 1367.4 850.2 C1371 856.2 1383.3 859 1392.7 855.9 C1400.3 853.4 1410 845 1413.9 837.4 C1415 835.2 1416.9 829.6 1418.1 824.9 C1421 813.2 1420.4 795.5 1416.5 782.5 C1409.4 758.5 1394 742.5 1376.1 740.5 C1362.6 738.9 1348 746.2 1339 759 C1328.2 774.4 1322.9 790.8 1322.8 809.5 C1322.7 819.8 1323.1 822.6 1325.3 829.5 C1326.7 833.9 1329.2 839.5 1330.7 842 C1336.9 851.6 1348 858.8 1358.2 859.7 C1361.4 860 1364.2 860.5 1364.4 860.8 C1364.5 861.2 1365 865.6 1365.4 870.7 C1366.1 880 1366.1 880 1363.7 880 C1350.4 880 1331.9 865.1 1322.6 847.1 C1307.8 818.2 1307.3 786.4 1321.4 754 C1331.7 730.2 1350.9 705.1 1370 690.4 C1376.7 685.2 1402.8 668.9 1404.3 669 C1404.4 669 1404.5 675.1 1404.6 682.7 C1404.7 695.4 1405 697.4 1408.3 708.7 C1411.7 720.3 1413.6 724.9 1427.4 754.7 C1440 782.2 1443.9 796.4 1444.7 818 C1445.5 841.3 1442.5 862.1 1434.7 886.4 C1431.2 897.7 1430.6 898.4 1409.1 919.4 C1400.8 927.5 1397 932 1397 933.5 C1397 935 1392.4 940.2 1382 950.3 C1373.7 958.4 1363.8 968.3 1360 972.5 C1356.1 976.6 1353 979.8 1353 979.6 M1537.2 954.1 C1532.5 951.7 1528.5 947.5 1526.5 942.7 C1524.9 938.9 1524.4 929.3 1525.7 927.3 C1527.5 924.4 1538.5 922.8 1541.8 924.9 C1542.9 925.6 1542.7 926.4 1540.5 929.3 C1538.8 931.5 1537.5 934.7 1537.2 937.3 C1536.8 941.1 1537.1 942.1 1539.8 945.1 C1542.6 948.2 1543.2 948.4 1549.2 948.4 C1567 948.4 1580.1 929 1572.4 914 C1566.6 902.6 1548.3 898.1 1539.9 906 C1536.3 909.4 1536.1 912.8 1539.4 916.8 C1541.9 919.7 1541.9 919.7 1533.7 920.2 C1529.2 920.4 1525.3 920.4 1525 920.3 C1523.9 919.4 1528.4 908.5 1532 903.1 C1535.2 898.3 1537.2 896.5 1541.5 894.4 C1546.3 892 1547.8 891.8 1553.1 892.3 C1564.7 893.5 1576.4 901 1581.1 910.2 C1584.1 916.2 1584.7 926.2 1582.4 933 C1580 940.2 1572.2 948 1563.5 952 C1554.8 955.9 1542.8 956.9 1537.2 954.1 M1543.3 942.6 C1540.7 940.5 1541.4 935.4 1544.9 930.7 C1548.8 925.4 1548.8 921.7 1545 917.3 C1539.1 910.6 1542.5 906.4 1553.2 907.1 C1563.8 907.8 1570 914.3 1570 924.8 C1570 928.9 1569.4 930.6 1566.7 934.1 C1560.5 942.2 1548.3 946.7 1543.3 942.6 M1408.9 928.2 C1409.9 926.7 1414 922.1 1417.9 918 C1423.6 912 1424.7 911.1 1423.4 913.9 C1421.4 918 1414.1 926.2 1410 929 C1407 931 1407 931 1408.9 928.2 M1462.3 862.2 C1464.8 857.4 1469.8 840.4 1471 833.3 C1471.6 829.6 1472 819.5 1472 811 C1472 793.9 1471 787.1 1463.6 750.5 C1456.3 714.7 1454.7 696.5 1457.3 675.9 C1461.8 640.2 1474.8 612.7 1497 591.6 C1515.7 573.8 1534 563.9 1586.5 543.3 C1607.3 535.2 1620.4 529.3 1627.7 524.8 C1630.9 522.8 1630.9 522.8 1629.4 527 C1624.2 541.8 1611.6 550.8 1571.3 568.5 C1554 576.1 1539.1 584.2 1529.7 591.1 C1521.1 597.5 1509.3 610.1 1502.9 619.8 C1480.4 653.7 1474.2 691.4 1481.9 746.4 C1486.7 780.9 1487.5 791 1486.1 806.3 C1484 829.8 1475.9 851.5 1466 860.5 C1461.7 864.3 1461.1 864.6 1462.3 862.2 M1695.1 850.2 C1703.2 836.2 1714.5 826.1 1718.1 829.7 C1721.4 833 1710 846.3 1699.7 851.2 C1696.5 852.7 1693.7 854 1693.5 854 C1693.2 854 1693.9 852.3 1695.1 850.2 M1496.2 835.4 C1503.2 828.1 1505.8 826.1 1513.5 822.5 C1534.7 812.3 1562.3 809.7 1599 814.4 C1618.3 816.8 1628.1 817.2 1640.1 815.9 C1655.4 814.3 1664.7 811.8 1675.7 806.4 C1699.7 794.6 1725.4 765.5 1744.6 728.3 C1758 702.4 1764.8 694.8 1777 692.5 C1780.4 691.9 1780.4 691.9 1778.4 693.7 C1771.5 699.9 1763.5 712.8 1748.1 742.7 C1734.4 769.2 1730.1 776.2 1720.4 788.5 C1695.3 819.9 1665.8 835.9 1629.5 837.6 C1615.6 838.2 1608 837.6 1581 833.3 C1546.3 827.8 1515.6 830.6 1494.7 841.1 C1491.5 842.7 1488.7 844 1488.5 844 C1488.2 844 1491.7 840.1 1496.2 835.4 M1358.2 842.1 C1346.6 839.6 1340 831.1 1340 818.7 C1340 809.8 1345.4 798.6 1353.3 791.2 C1360.3 784.6 1364.7 782.7 1373 782.5 C1385.9 782.4 1397.1 791 1401.1 804.2 C1408.1 827.1 1393.6 845.6 1372.1 841.3 C1369.9 840.9 1368.7 840 1368.3 838.4 C1367.8 836.3 1369.5 825.6 1370.6 823.7 C1370.9 823.3 1373 824.3 1375.4 826 C1377.8 827.7 1381.5 829.4 1383.8 829.7 C1387.5 830.2 1388.2 829.9 1391.4 826.7 C1394.7 823.4 1394.9 822.7 1394.9 817.3 C1394.9 799.7 1378 787.2 1363.4 793.8 C1355.8 797.3 1348.9 808.2 1349 816.9 C1349 821.3 1351 827.1 1353.5 829.6 C1356 832.1 1360.8 832.7 1362.7 830.8 C1364.4 829.1 1364.6 829.7 1364.2 836.7 C1363.9 843.4 1363.9 843.4 1358.2 842.1 M1355.8 825.4 C1353.7 822.6 1353.5 812.7 1355.5 808.9 C1359.3 801.2 1365.3 797 1372 797 C1377.1 797 1380.6 798.8 1385.2 803.8 C1390.8 810 1392.5 819.1 1388.9 823.5 C1386.9 826 1381.7 825.2 1377.9 822 C1372.2 817.1 1367.9 818.1 1362.2 825.4 C1360.6 827.4 1357.3 827.4 1355.8 825.4 M1519.7 810.2 C1527.1 802.7 1527.9 802.2 1538 798.7 C1556.9 792 1563.9 790.6 1576.9 791.2 C1583.9 791.6 1595 793.1 1605 795.1 C1620 798.1 1623.1 798.4 1640 798.4 C1656.3 798.4 1659.5 798.2 1667 796.1 C1678.7 792.9 1687.2 789.2 1696 783.4 C1707 776.1 1707.2 776.1 1698.5 784.5 C1684.2 798.1 1670.3 805.8 1653.5 809.6 C1643 811.9 1615 811.9 1595.5 809.6 C1587.8 808.7 1577.4 807.7 1572.5 807.4 C1555.7 806.2 1530.6 810 1518.2 815.6 C1515.3 816.9 1512.7 818 1512.5 818 C1512.2 818 1515.4 814.4 1519.7 810.2 M1536.6 784.2 C1542.1 769.1 1542.7 754.1 1538.5 736 C1533.2 712.9 1532.7 709.5 1532.6 696.5 C1532.6 685.3 1532.9 682.1 1535.3 673.6 C1544 641.8 1562 620.9 1594.6 604.6 C1611.3 596.3 1624.6 591.7 1661 582 C1696.2 572.6 1708.2 569.1 1715.7 565.9 C1718.2 564.8 1720.4 564 1720.5 564.2 C1721 564.7 1709.1 581.6 1699.2 594.7 C1690.7 605.9 1690.7 605.9 1687.9 604.4 C1683.6 602.2 1671.6 600 1664 600 C1649.1 600 1633.4 604.2 1610.8 614.4 C1581.6 627.6 1558.3 648.9 1548.9 670.9 C1545.1 679.8 1542.5 694.5 1543.4 702.5 C1544.9 715.9 1547.8 723.7 1556.1 736 C1560.4 742.4 1564 748.4 1564 749.3 C1564 753.3 1560.5 758.5 1550 770.4 C1543.9 777.3 1538.3 783.6 1537.5 784.5 C1536.1 785.8 1536 785.8 1536.6 784.2 M1606.8 769.4 C1598.3 766.9 1589.3 762.2 1586 758.4 C1583.3 755.3 1583 754.3 1583.6 751.1 C1583.9 749.1 1584.4 747.3 1584.6 747 C1584.8 746.8 1586.6 748 1588.7 749.8 C1593.9 754.2 1600.9 757.7 1608.2 759.6 C1619.3 762.4 1637.7 760.2 1646 755.1 C1662.3 744.9 1673.2 725.4 1674.7 703.8 C1675.7 688 1670.9 673.5 1661.1 662.8 C1655.9 657.1 1655.9 657.1 1669.2 640.8 C1676.5 631.8 1684.5 621.8 1686.9 618.7 C1689.3 615.5 1691.6 612.6 1692.1 612.3 C1692.6 612.1 1694.8 613.3 1697.1 615.1 C1720.3 633.5 1716.3 689 1688.7 731.2 C1671.5 757.5 1648.9 771 1622 771 C1615.9 771 1609.9 770.3 1606.8 769.4 M1613.2 756 C1601.6 753.9 1583 742.3 1585.5 738.6 C1586.5 737.1 1598.7 723.2 1604.8 716.6 C1608 713.1 1608.4 712.9 1609.1 714.6 C1609.5 715.6 1609.8 719.7 1609.9 723.6 C1609.9 729.9 1610.3 731.2 1612.7 734 C1617.8 740.1 1626.3 741.6 1633.5 737.9 C1654.1 727 1660.5 695.8 1645.5 679.2 C1643.6 677 1642 674.9 1642 674.5 C1642 673.6 1650.7 662.2 1652 661.4 C1655 659.6 1666.3 676.3 1668.9 686.5 C1670.4 692.4 1670.2 708.7 1668.4 715.4 C1664.6 729.9 1653.1 745.8 1642.3 751.3 C1633.5 755.7 1622.3 757.5 1613.2 756 M1567.5 747.6 C1567.3 745.6 1564.4 740.2 1560.6 734.5 C1553.1 723.4 1550.3 716.6 1548.7 705.8 C1545.9 687 1553.1 666.6 1568 650.3 C1586.9 629.8 1618.3 612.3 1646.9 606.5 C1657.5 604.3 1675.9 604.8 1683.2 607.4 C1688 609.2 1688 609.2 1684.7 613.5 C1680.7 618.8 1659.2 645.1 1654.7 650.2 C1651.5 653.9 1651.5 653.9 1642.6 650.4 C1635.5 647.5 1632 646.7 1624.6 646.2 C1588.4 644.1 1555 676.6 1560.8 708.2 C1562.3 716.5 1565.6 723.3 1572.2 732.2 C1578.1 740.1 1578.1 740.1 1574 744.5 C1571.8 747 1569.5 749.4 1569 750 C1568.3 750.6 1567.8 749.8 1567.5 747.6 M1577.6 731.9 C1572.8 726.2 1568.3 717.3 1566.4 709.9 C1561.3 690.3 1573.6 667.9 1595.4 657 C1604.8 652.3 1612.8 650.7 1623.9 651.2 C1633.2 651.6 1640.9 653.6 1645.6 656.7 C1647.9 658.2 1647.9 658.2 1646 660.8 C1644.9 662.3 1642.3 665.4 1640.3 667.7 C1636.5 672 1636.5 672 1632 669.7 C1628.3 667.9 1625.8 667.5 1618.5 667.5 C1610.3 667.5 1608.8 667.8 1602.5 670.8 C1590 676.7 1581 687.9 1581 697.8 C1580.9 706.6 1586.3 711 1596.9 711 C1600.2 711 1603 711.4 1603 711.9 C1603 712.4 1602.6 712.9 1602.1 713.1 C1601.7 713.3 1597.2 718.1 1592.1 723.7 C1587.1 729.3 1582.5 734.4 1582 735 C1581.3 735.6 1579.8 734.6 1577.6 731.9 M1619.1 733.9 C1615.5 731.7 1614 727.5 1614 719.7 C1614 715.5 1613.5 711.9 1612.8 711.2 C1611.3 709.7 1613 707.1 1621.9 696.9 C1625.5 692.7 1630.7 686.7 1633.4 683.5 C1638.3 677.7 1638.3 677.7 1641.1 681.1 C1647.4 688.4 1648.5 691.6 1648.5 702.5 C1648.5 711.5 1648.2 713 1645.5 718.2 C1639.4 730.3 1626.3 738.1 1619.1 733.9 M1592.5 706.1 C1587.2 704.8 1585.9 703.3 1586 698.1 C1586.1 681.6 1608.3 668.2 1627.5 673.1 C1630 673.7 1632.2 674.6 1632.5 675.1 C1632.8 675.6 1627.9 682.1 1621.5 689.5 C1615.1 697 1609.3 704 1608.4 705 C1607.3 706.5 1605.7 707 1601.5 707 C1598.4 707 1594.4 706.6 1592.5 706.1 M1813.8 701.4 C1812.7 701 1809.8 699.7 1807.6 698.3 C1805.3 697 1801.1 694.7 1798.2 693.2 C1795.3 691.7 1793 690.3 1793 689.9 C1793 689.6 1795.1 688.8 1797.8 688.2 C1806.1 686.3 1815.4 690.3 1817.8 696.9 C1819.1 700.5 1817.4 702.4 1813.8 701.4 M1412.9 656 C1414.6 650.5 1422.2 637 1426 632.6 C1433.4 624.2 1440.8 622.9 1443 629.5 C1444 632.7 1443.9 633.2 1441.1 636.8 C1436.5 642.6 1430.7 647.5 1421.4 653.5 C1416.7 656.5 1412.7 659 1412.5 659 C1412.2 659 1412.4 657.6 1412.9 656 M1637.9 500.7 C1639.1 488.3 1640.4 483.4 1642.7 482.5 C1645.5 481.4 1648 485.4 1647.9 490.8 C1647.9 495.8 1645.6 501.9 1641.5 507.5 C1637.4 513.1 1636.8 512.1 1637.9 500.7 M1699.1 421 C1693.2 418.1 1691 410.3 1693.4 400.8 C1697.8 383.5 1719.4 359.5 1742.3 346.4 C1747.1 343.7 1747.1 343.7 1746.4 346.6 C1746 348.2 1743 357.6 1739.8 367.5 C1730.7 395.1 1721.9 411.5 1712.5 418.4 C1708.6 421.2 1702 422.5 1699.1 421 M1493.5 376.4 C1490 365.4 1499.8 334.6 1517.1 302.2 C1521 294.9 1524.4 289.1 1524.7 289.4 C1526.1 290.8 1512 346.1 1507 358.7 C1501.2 373.5 1495.1 381.5 1493.5 376.4 M1639.9 316.6 C1642.1 310.9 1664.6 266.8 1670.4 256.7 C1677.2 244.9 1683.6 235.9 1685.7 235.2 C1687.9 234.5 1688.2 240.2 1686.6 253.8 C1684 275.8 1680 305.2 1679.7 305.4 C1679.6 305.6 1671 308.4 1660.7 311.8 C1650.4 315.2 1641.3 318.2 1640.5 318.5 C1639.2 318.9 1639.1 318.5 1639.9 316.6 M1537.2 310.7 C1534.2 309.7 1533.5 308.9 1533.5 306.9 C1533.5 303.5 1536.6 303.2 1541 306.2 C1547.6 310.7 1545.3 313.4 1537.2 310.7 M1773 256.3 C1773 254.1 1777.6 240.7 1779.6 236.8 C1785.6 225.9 1792.2 229.3 1787 240.6 C1785.2 244.4 1773 258.1 1773 256.3 "/>
  <path d="M184.3 1223.4 C183 1220.1 204.1 1201.5 225 1187.5 C274.1 1154.7 346.8 1136.5 412.2 1140.8 C442.9 1142.8 460.9 1145.6 485.8 1152.4 C512.2 1159.6 527.6 1165.4 574 1185.5 C590.2 1192.5 621.3 1204.1 632.8 1207.4 C647.6 1211.7 669.7 1216.5 682 1218.1 C687.4 1218.9 701.2 1219.4 714.2 1219.4 C734.6 1219.4 737 1219.6 737 1221.1 C736.9 1223.4 735.2 1223.9 722.6 1224.6 C680.3 1226.9 627.5 1214.4 568.5 1187.9 C567.4 1187.4 563.3 1185.6 559.5 1183.9 C523.1 1167.5 480.8 1154.2 448 1149 C406.5 1142.4 355.8 1144.1 318 1153.4 C296.7 1158.7 281.2 1163.6 270 1168.7 C248 1178.6 240.2 1182.8 224 1193.8 C212.3 1201.6 203.7 1208.6 194.2 1217.9 C190.2 1221.8 186.5 1225 186 1225 C185.4 1225 184.7 1224.2 184.3 1223.4 "/>
  <path d="M1613.7 788 C1609.7 787.5 1601.1 786.2 1594.6 785 C1580.9 782.6 1564.8 782.3 1557.5 784.3 C1554.7 785.1 1551.8 785.9 1551 786.1 C1550.2 786.3 1549.4 785.8 1549.2 784.9 C1549 783.9 1550.6 782.6 1553.7 781 C1561.2 777.3 1575.3 777.1 1595 780.3 C1641 788 1663.2 782.8 1687 758.6 C1702.2 743.2 1711.5 727.2 1719.8 702 C1727.6 678.4 1730 665 1732.9 628.5 C1735.7 594.4 1737.2 587.9 1746.7 569.6 C1756 551.5 1775.2 538 1791.5 538 C1801.9 538 1801.4 540.4 1788.1 553.6 C1764.2 577.5 1756.6 594.9 1747.9 645.6 C1740.4 689.5 1735.1 709 1726 727.2 C1714.4 750.1 1691.1 778.9 1684.2 778.9 C1683 778.9 1682 778.7 1682 778.3 C1682 778 1685.9 773.6 1690.8 768.5 C1704.3 754.3 1712.2 743.2 1720.4 726.5 C1732.3 702.4 1735.4 691.8 1742.9 648 C1750.1 606.5 1756.2 587.8 1768.3 569.7 C1774.1 560.9 1782.8 551.3 1790.5 545 C1794.5 541.7 1794.5 541.7 1789.5 542.4 C1778.3 543.9 1763.9 552.9 1756.3 563.3 C1743.8 580.2 1740.5 592 1737.5 630.5 C1734.8 664.7 1731.5 682.4 1723.3 706.2 C1711.5 740.8 1692.3 766.3 1668.9 778.4 C1652.5 786.9 1632.3 790.4 1613.7 788 "/>
  <path d="M1021.2 498.1 C1009.1 494.5 1003.6 485.8 1003.7 470.5 C1003.7 459.7 1006.5 450.1 1013.6 437.1 C1028.3 410.1 1059.8 380.6 1100.1 356.1 C1107.7 351.5 1107.7 351.5 1111.2 339.7 C1113.1 333.2 1114.5 328 1114.3 328 C1114.2 328 1110.5 331.5 1106.2 335.8 C1089 353.2 1074.3 360.1 1063.3 355.9 C1053.9 352.3 1048.9 339.6 1051 325 C1052.5 314.8 1054.1 309.3 1061.7 289.5 C1074 256.9 1075.1 253.7 1075.7 246.3 C1076.2 239.6 1076.1 239 1073.6 236.5 C1070.7 233.6 1068 233.3 1061.9 235.5 C1052.8 238.7 1043.4 249.1 1035.8 264.6 C1031.9 272.5 1029.9 274.4 1028.4 271.9 C1027.6 270.5 1034.7 255.7 1039.8 248.1 C1047.6 236.7 1057.7 230 1067 230 C1076.5 230 1081 234.6 1081 244.7 C1081 251.3 1078.8 259.1 1072.5 275 C1062.9 299.3 1058 313.7 1056.4 322.6 C1053.4 339.8 1057.8 350.5 1068.3 351.7 C1077.3 352.7 1088.3 346.7 1102 333 C1116.1 319 1117.8 316 1124.5 292.5 C1136.7 249.3 1147 231.4 1153.6 241.5 C1158.4 248.8 1146.5 280.7 1129.4 306.5 C1123.4 315.5 1122.4 317.8 1118.8 330.5 C1116.6 338.2 1114.7 345.1 1114.4 346 C1114.1 346.9 1119.9 344.5 1129.6 339.8 C1138.3 335.6 1150.9 329.9 1157.8 327.3 C1170.3 322.5 1170.3 322.5 1181.5 299.5 C1199.2 263.4 1212 241 1219.1 234 C1222.7 230.3 1228.2 229.8 1229.9 232.9 C1231.8 236.4 1231 250.4 1227.4 277 C1225.4 291.4 1224 303.3 1224.2 303.6 C1224.9 304.3 1268 288.4 1268 287.4 C1268 287.2 1266.5 284.2 1264.8 280.8 C1260.6 272.6 1260.6 265.8 1264.5 257 C1272.7 238.8 1301.9 225.6 1319.2 232.3 C1328.1 235.7 1331.4 245 1327.1 254.5 C1323.4 262.5 1310.2 272.4 1288.7 283.2 C1277 289.2 1277 289.2 1282.7 293.9 C1285.9 296.4 1290.9 300.3 1294 302.4 C1303.2 309 1311.6 316.7 1314.6 321.5 C1317.2 325.6 1317.7 325.9 1320.5 325.3 C1324.6 324.5 1351.3 315 1352.2 314.1 C1352.8 313.5 1368.9 239.9 1368.9 237.7 C1368.9 237.3 1369.9 237 1371 237 C1373.9 237 1373.6 239.1 1367.9 266.4 C1365.1 279.6 1361.7 295.3 1360.5 301.2 C1359.2 307.1 1358.5 311.9 1358.8 311.9 C1361.6 311.9 1400.6 293.9 1405.1 290.6 C1406 289.9 1409.3 281.6 1412.5 272.1 C1420.3 248.7 1428 236.5 1436.8 233.9 C1448.6 230.4 1452.8 243.6 1444.6 258.2 C1439.3 267.6 1431.2 276.8 1421 284.9 C1412.8 291.5 1411.8 292.7 1410.5 297.3 C1405.6 314.4 1402.6 333.8 1402.5 349 C1402.4 362.5 1403.4 367 1407.6 371.9 C1413 378.4 1421.8 376 1429.7 365.8 C1434.1 360.2 1436.2 358.9 1437.4 360.9 C1439 363.5 1428.4 376 1422.4 378.5 C1417.7 380.5 1411.1 380.3 1407.3 378 C1400 373.6 1396.4 361.5 1397.4 345 C1398.1 334.1 1401.8 310.4 1404.3 301.2 C1405 298.3 1405.4 296 1405.1 296.2 C1387.5 305 1371.6 312.5 1365.3 315 C1357.1 318.2 1357.1 318.2 1353.9 331.3 C1343 377.2 1341.8 381.2 1339 379.5 C1337.5 378.6 1337.7 375.4 1339.5 369.5 C1341.8 362 1351 321.7 1350.5 321.2 C1350.3 321 1344 322.8 1336.4 325.4 C1328.9 327.9 1322.1 330 1321.3 330 C1320.1 330 1319.9 330.5 1320.6 332.7 C1321.1 334.2 1321.4 338.8 1321.4 343 C1321.4 352.6 1318.8 358.3 1310.4 366.6 C1300.3 376.5 1283.9 383 1268.6 383 C1250.2 383 1237.6 373.5 1242 362.9 C1243.7 358.8 1252.4 351.1 1259.8 347.1 C1266.8 343.4 1286.2 336 1302.1 330.9 C1312.8 327.6 1312.8 327.6 1311.1 324.7 C1308.8 320.5 1299.9 312.5 1289.4 305 C1284.5 301.5 1278.6 296.9 1276.4 294.8 C1272.4 291 1272.4 291 1251.8 298.9 C1240.4 303.3 1229.3 307.3 1227.2 307.9 C1223.3 308.9 1223.3 308.9 1222 320.7 C1221.2 327.2 1220.5 342.8 1220.3 355.5 C1220.1 377.2 1219.9 378.5 1218.1 378.8 C1216.6 379 1216.1 378.3 1215.6 375.3 C1214.5 368.4 1214.9 341.7 1216.4 328.5 C1217.2 321.3 1217.9 314.5 1217.9 313.3 C1217.9 311.2 1217 311.4 1196.3 318.4 C1174.7 325.7 1174.7 325.7 1165.8 343 C1151.1 371.5 1145.8 378.2 1137.6 378.2 C1134.5 378.2 1133.1 377.6 1131.3 375.5 C1128.3 372.1 1128.1 367 1131 367 C1132.3 367 1133 367.6 1133 368.9 C1133 371.1 1135.5 374 1137.5 374 C1139.7 374 1145.5 368.4 1149.3 362.7 C1151.2 359.8 1156.2 350.8 1160.4 342.6 C1168.2 327.8 1168.2 327.8 1164.8 329.2 C1150.8 335.1 1139.4 340.4 1126.8 346.8 C1112.2 354.2 1112.2 354.2 1109.9 361.8 C1094.2 415.2 1075.3 457.9 1057.6 479.7 C1046.7 493.2 1031.1 501.1 1021.2 498.1 M1017.9 491.8 C1012.5 489 1008.9 482.7 1008.2 475 C1006.1 451.8 1027.2 417.7 1060.4 390.6 C1075.7 378.1 1104.4 358 1105.4 359 C1106 359.7 1089.7 407.5 1084 421.5 C1077.9 436.5 1067.9 456.6 1061.7 466 C1059.4 469.5 1054.2 475.9 1050.1 480.2 C1037.9 493 1027.4 496.8 1017.9 491.8 M1259.2 377.4 C1258.2 377.1 1256 376.4 1254.3 375.8 C1249.7 374.4 1246 370.6 1246 367.3 C1246 363.7 1253.5 356.4 1262.2 351.6 C1273.7 345.1 1313.6 331.3 1315.5 333.1 C1317.3 334.9 1316.6 349.1 1314.5 353.5 C1309.6 363.5 1294.3 373.8 1280.5 376.5 C1272.8 378 1262.4 378.4 1259.2 377.4 M1178 318.6 C1178 318.3 1182.2 309.4 1187.3 298.8 C1202.5 267.4 1217.4 241.7 1223.4 236.8 C1226.3 234.4 1227.1 236.2 1226.4 244 C1225.6 252.3 1219 305.3 1218.7 305.5 C1218.1 305.8 1181.8 318 1180 318.5 C1178.9 318.7 1178 318.8 1178 318.6 M1127 301.2 C1127 300.1 1135.2 273.9 1138.3 265.2 C1141.4 256.3 1147 245.7 1148.9 245.1 C1150.9 244.5 1149.6 254.1 1146.3 263.1 C1142.6 273.6 1127 304.3 1127 301.2 M1270.5 281 C1267.1 275.7 1265.6 268.7 1266.9 264.3 C1271.6 247.2 1296.5 232.2 1314.1 235.9 C1330.9 239.4 1327.1 254 1305.5 268.2 C1298.1 273.1 1275.4 285 1273.5 285 C1273.2 285 1271.8 283.2 1270.5 281 M1414 283.5 C1414 281.5 1421.6 260.5 1424.5 254.6 C1430.6 242 1438.7 235.2 1442.7 239.3 C1447.9 244.5 1439.1 262.1 1424.5 275.8 C1418.6 281.3 1414 284.7 1414 283.5 "/>
 </g>
 <g fill="#ffffff" fill-rule="evenodd">
  <path d="M0 1530 L0 765C0 0 0 0 1408 0 C2816 0 2816 0 2816 766 C2816 1187.3 2816 1532.2 2816 1532.5 L2816 1533L2816 1533 L2814.5 1534.5L2813 1536L2813 1536 L2457.5 1536C2261.9 1536 2101.7 1536 2101.5 1536 C2101.2 1536 1629.6 1536 1053.5 1536 L6 1536L6 1536 L6 1535.5C6 1535.2 5.7 1535 5.4 1535 C5.1 1535 3.8 1533.8 2.4 1532.5 L0 1530M1129 1293.1 C1129 1290.3 1146.5 1255.7 1160.6 1230.5 C1168.7 1216.1 1192.5 1178.7 1205.2 1160.6 C1209.7 1154.1 1213.9 1148 1214.5 1147.1 C1215 1146.2 1220.2 1139.3 1226 1131.6 C1231.7 1124 1238.7 1114.7 1241.5 1111 C1244.2 1107.2 1249.3 1100.7 1252.7 1096.4 C1270.5 1074.7 1282.2 1032.7 1280.7 996.5 C1280.1 981.8 1278.5 973.5 1273.9 960.5 C1268.4 944.8 1262.5 935.3 1251.9 924.8 C1244.3 917.3 1233 911.1 1222 908.3 C1211.6 905.8 1196.6 906.8 1186.5 910.8 C1161.6 920.6 1142.8 942.5 1137.9 967.7 C1133.1 992.5 1145.5 1020.6 1165.8 1030.9 C1186.1 1041.1 1208.2 1037.9 1223.6 1022.4 C1244.7 1001.1 1242 965.4 1218.3 953.4 C1213.3 950.9 1211.4 950.5 1204.5 950.5 C1198.4 950.5 1195.3 951 1191.8 952.6 C1177.7 959.1 1170.3 974.3 1174.4 988.4 C1178.6 1003 1195 1010.8 1206 1003.5 C1210.2 1000.7 1213 996 1213 991.4 C1213 986.6 1208.7 981 1205.1 981 C1204.5 981 1202.7 982.1 1201 983.5 C1198.2 985.9 1196 986.1 1196 984 C1196 983.5 1197.3 981.7 1199 980 C1201.4 977.7 1203 977 1205.8 977 C1212.8 977 1217 982.2 1216.9 991.2 C1216.9 998.5 1214.1 1004.2 1208.8 1007.6 C1204.9 1010.1 1203.5 1010.4 1196.5 1010.4 C1189.5 1010.4 1187.9 1010.1 1183.7 1007.6 C1173.7 1001.6 1169 992.9 1169 980.8 C1169 973.7 1172.3 962.4 1175.4 959.4 C1176.2 958.5 1177.3 957.3 1177.7 956.6 C1178.9 954.5 1188.6 948.2 1192.7 946.8 C1198.6 944.7 1211.4 945.2 1218.1 947.8 C1233.1 953.6 1246.5 971.4 1252.1 992.5 C1254.1 1000.4 1254.4 1003.7 1254.4 1020 C1254.4 1036.5 1254.1 1039.7 1251.6 1050.1 C1248.6 1063.1 1241.3 1081.9 1234.5 1094.4 C1224.4 1113 1196.3 1145.5 1179.5 1158 C1176.2 1160.4 1171.2 1164.3 1168.4 1166.5 C1161 1172.5 1142.2 1183.7 1129 1190.2 C1125.5 1191.9 1123.1 1193.5 1123.7 1193.7 C1124.3 1193.9 1125.7 1193.6 1126.8 1193 C1129.4 1191.6 1129.6 1191.7 1129.6 1193.4 C1129.6 1194.9 1115.5 1201 1112.1 1201 C1111.1 1201 1102.8 1203.2 1093.5 1206 C1058.8 1216.5 1030.8 1221.4 998.2 1222.9 C977.4 1223.9 973.5 1223.4 973.5 1220.4 C973.5 1218.6 974.5 1218.4 989 1217.8 C1047.8 1215.4 1116.6 1194.6 1158 1166.9 C1172.8 1157 1179 1152 1191.3 1140.7 C1224.4 1110 1245.6 1070.7 1250.1 1032 C1251.9 1016.1 1249.1 994.4 1243.6 982 C1242.1 978.5 1242.1 978.5 1242.6 984.5 C1243.8 998.2 1237.1 1015.7 1227 1025.5 C1215.3 1036.8 1204.9 1041 1188.6 1040.9 C1180.6 1040.9 1177.1 1040.4 1172 1038.6 C1148.4 1030.2 1132 1006.1 1132 979.7 C1131.9 945.1 1160 911.2 1195.4 903.4 C1221.6 897.6 1250.6 910.5 1266.5 935.1 C1275.4 948.8 1280.1 960.9 1283.6 978.6 C1286.2 991.9 1285.9 1015.7 1283 1032.5 C1281.1 1043.4 1276 1062.9 1273.4 1069.2 C1272.2 1072.2 1273.4 1071.2 1278.7 1064.7 C1287.6 1053.7 1298 1028.8 1302.4 1007.9 C1308.8 978 1301 939.8 1282.4 910 C1268.5 887.5 1244.4 860.4 1231.3 852.6 C1219.1 845.3 1209.4 843.6 1199 846.8 C1194.2 848.3 1192.3 848.6 1191.8 847.7 C1189.7 844.4 1198.1 841 1208.5 841 C1224.3 841 1232.9 845.9 1254 866.9 C1275 887.9 1287.2 905.1 1296.4 926.9 C1312.3 964.7 1313 1002.6 1298.4 1037.3 C1296.5 1041.7 1295.1 1045.4 1295.3 1045.6 C1295.4 1045.7 1299.1 1041.5 1303.6 1036.2 C1309.2 1029.4 1312.8 1023.8 1315.7 1017.5 C1327 992.7 1329.4 982.7 1328.7 964 C1327.9 943.9 1323.1 931.7 1304.6 903 C1293.8 886.3 1285.6 869.9 1282.8 859.5 C1280 848.8 1279.7 830.3 1282.4 821.2 C1284.4 814.4 1286.3 811.9 1288.2 813.8 C1289 814.6 1288.8 816.5 1287.4 821.2 C1284.5 830.4 1284.7 849.7 1287.7 860.3 C1290.7 870.7 1295.8 881.2 1304.2 894.5 C1308.1 900.5 1312.7 907.7 1314.4 910.5 C1332.9 939.3 1337.7 963.1 1330.5 990.5 C1329.2 995.4 1326.8 1002.9 1325.2 1007.2 C1323.5 1011.5 1322.4 1014.9 1322.8 1014.9 C1323.2 1014.9 1327.1 1010.6 1331.6 1005.4 C1341.2 994.3 1347.7 981.8 1354.5 961.5 C1361.6 940.4 1364.7 923.2 1365.6 900.3 C1366.2 885.1 1366.2 885.1 1362.3 884.4 C1346.6 881.8 1333.8 872.6 1323.2 856.5 C1314.2 842.8 1309.2 828.4 1306.9 809.4 C1304.6 789.5 1309.4 767.1 1321.1 743.6 C1328.7 728.2 1337.9 715.2 1349.8 702.8 C1361.5 690.6 1371.8 682.7 1391.2 671.2 C1400.5 665.7 1406.2 661.7 1406.5 660.5 C1410.8 645.1 1422.4 627.3 1431 622.9 C1439.5 618.6 1446.7 621.7 1447.6 630 C1448 633.8 1447.6 635.2 1444.9 639.3 C1441 645.1 1431.6 652.8 1419.5 660.1 C1411.3 665.1 1410.4 665.9 1409.6 669.5 C1408.3 675.8 1409.5 695.5 1411.9 704.8 C1414.5 714.9 1420.3 729.7 1426.5 742.1 C1437 763 1445.1 784.5 1447.4 797.8 C1451.7 822.1 1449.4 853.4 1441.4 880 C1438.4 890 1438.5 889.7 1441 887.4 C1444.4 884.3 1451.5 873.9 1455.3 866.2 C1469.4 838.3 1471.4 804.1 1461.4 762.5 C1454.2 732.3 1451.5 710.1 1452.3 687.5 C1454 634.6 1476.3 594.6 1518.5 569 C1530.2 561.9 1546.4 554.5 1578.7 541.6 C1610.9 528.6 1619.1 524.9 1627.5 519.3 C1632.6 516 1632.6 516 1633.3 503.2 C1634.1 488.9 1635 484.4 1638 480.6 C1642.5 474.9 1650.9 478.9 1652.5 487.5 C1654.1 495.9 1650.7 504.3 1641.9 513.4 C1637.7 517.8 1635.7 520.8 1634.7 524.5 C1629 543.9 1618.2 553.1 1584.8 567.3 C1550.5 581.9 1534.4 591.6 1519.9 606.6 C1501.7 625.4 1492 644.6 1485.8 673.5 C1483.8 683 1483.5 687.3 1483.5 706 C1483.5 725.5 1483.8 729.4 1486.9 749.5 C1490 769.4 1490.3 773.5 1490.4 793.5 C1490.4 814.2 1490.3 816 1487.7 826.3 C1486.2 832.2 1484.5 838 1483.8 839.3 C1483.2 840.5 1485.7 838.5 1489.4 835 C1494.9 829.6 1497 826.6 1501.1 818 C1514.7 789.4 1517.3 772.3 1513.5 736.2 C1507.5 679.3 1510.1 654.5 1524.7 629.5 C1530.4 619.6 1547.1 602.5 1558 595.2 C1572.4 585.6 1596.8 574.6 1637.1 559.5 C1663 549.9 1680.1 539.8 1694 526 C1701 518.9 1703.4 515.8 1707.3 508 C1709.9 502.7 1712.7 495.3 1713.6 491.5 C1715.7 481.8 1715.7 482 1717.4 482 C1720.9 481.9 1718.1 495.5 1712 508.5 C1702.7 528.4 1686 542.6 1655.2 556.7 C1644.3 561.7 1618.1 571.9 1616.1 572 C1615.5 572 1614.8 572.4 1614.5 572.9 C1614.1 573.5 1614.4 573.7 1615.1 573.4 C1615.9 573.2 1626 570.7 1637.7 568 C1664.7 561.7 1680.1 556.6 1696.5 548.4 C1722.2 535.7 1740.8 518.8 1752.2 498 C1753.6 495.3 1754.3 495 1755.4 495.9 C1757.2 497.4 1756.8 498.5 1751.1 508.4 C1743 522.2 1726.1 537.3 1706.4 548.3 C1686.9 559.2 1666.8 566 1626.9 575.3 C1602 581.1 1587.8 585.7 1575.4 592 C1543.9 608.2 1524.6 632.2 1519.5 661.5 C1517.4 673.4 1517.6 690 1520 716.8 C1522.6 744.9 1522.3 765.4 1519 780.5 C1516 794.1 1512.1 807.7 1510.2 811.4 C1508.9 813.9 1509.9 813.3 1515.8 808 C1523.5 800.9 1528.2 792.8 1533.6 777.4 C1537.5 766.2 1537.4 751.4 1533.5 735 C1529 715.6 1528 709 1528 695.5 C1528 676.8 1532 661.3 1541.2 645.5 C1549.9 630.4 1560 620.3 1578 608.7 C1598.8 595.2 1613.8 589.7 1669 575.1 C1698.5 567.2 1710.8 563.4 1720.4 559.1 C1726.8 556.1 1726.8 556.1 1739.6 536.8 C1758.4 508.3 1763.9 498.9 1776.4 473.5 C1789.4 447.2 1796.1 431 1801.8 412.5 C1808.3 391 1809.4 384.9 1809.4 370.5 C1809.5 351.1 1805.7 342 1795.5 336.2 C1791.1 333.8 1789.4 333.5 1782 333.5 C1773.4 333.5 1768.2 334.7 1757.7 339.2 C1753.6 340.9 1752.8 341.7 1751.9 345.3 C1746 367.6 1740.1 383.9 1733 398.5 C1723.1 418.4 1713.8 426.7 1702.3 425.7 C1692 424.9 1688.5 420 1688.5 406.9 C1688.5 398.6 1688.6 397.9 1693.1 388.9 C1695.7 383.7 1700.2 376.5 1703.2 373 C1713 361.1 1729.9 347.5 1744.2 340 C1748.9 337.5 1748.9 337.5 1752.4 323 C1761.3 286 1764.5 270.9 1763.6 271 C1763.3 271 1758.9 273.7 1753.8 277 C1739.5 286.4 1713.1 298.8 1691 306.5 C1684.5 308.8 1684.5 308.8 1683.2 319.6 C1682.5 325.6 1681.7 341.2 1681.5 354.4 C1681.2 367.5 1680.6 378.7 1680.1 379.2 C1676.2 383.1 1674.9 361.5 1677.4 331.6 C1678.3 320.6 1678.9 311.5 1678.7 311.4 C1678.6 311.2 1668.8 314.4 1657.1 318.3 C1635.8 325.6 1635.8 325.6 1628.8 339.5 C1615.4 366.2 1608.5 376 1600.6 379.9 C1589.3 385.4 1577.6 379.1 1569.1 363 C1567.5 359.9 1562.9 349.4 1559 339.5 C1549.2 315.1 1549.8 316 1542.8 316 C1539.7 315.9 1535.9 315.5 1534.6 315 C1524.2 311.1 1526.6 297.8 1537.3 299.3 C1540.3 299.7 1542.5 301 1546.4 304.9 C1551.6 310 1551.6 310 1555.8 308.5 C1566.2 304.8 1574.5 299.5 1583 291 C1595.6 278.5 1602 266.1 1602 253.9 C1601.9 246.2 1600.1 242 1595.4 238.3 C1591.9 235.7 1591 235.5 1583 235.5 C1575.6 235.5 1573.7 235.9 1569 238.4 C1560.3 242.9 1552.9 249.2 1544.8 259.2 C1533.2 273.5 1532.3 275.1 1530 287.5 C1519.4 344.4 1507.8 378 1497.3 382 C1493.6 383.4 1490.3 381.6 1488.9 377.4 C1484.4 363.6 1499 321.9 1521.4 285 C1527.9 274.3 1528.8 270.5 1531 246 C1531.6 238.5 1532.4 232.1 1532.6 231.7 C1533.3 230.6 1535.7 230.8 1536.4 231.9 C1536.8 232.4 1536.3 239.7 1535.5 248.1 C1534.7 256.5 1534.1 263.5 1534.3 263.7 C1534.5 263.8 1536.6 261.5 1538.9 258.4 C1552.1 240.9 1566.2 231.5 1580.9 230.3 C1597.3 228.9 1607 237.8 1607 254.2 C1607 275.2 1586.3 301.1 1561.3 311.5 C1557.5 313.1 1554.3 314.4 1554.2 314.5 C1554.1 314.5 1555.3 317.7 1556.9 321.5 C1558.6 325.3 1562.4 334.8 1565.4 342.7 C1572 359.6 1576.3 367.1 1582.4 372.8 C1586.3 376.4 1587.5 377 1591.5 377 C1599.1 376.9 1603 374 1610.7 362.5 C1614.5 356.6 1629 329.2 1629 327.7 C1629 327.3 1627.3 327.6 1625.2 328.5 C1623.1 329.4 1617.3 331.6 1612.2 333.5 C1603.4 336.7 1602.9 336.8 1602 335 C1600.6 332.4 1601.6 331.8 1617.6 326.5 C1631.7 321.8 1631.7 321.8 1648.8 287.6 C1671.9 241.7 1680.8 228.8 1688 230.7 C1693.9 232.2 1693.6 241.9 1686 296.5 C1685.5 299.8 1685.3 302.6 1685.6 302.9 C1685.8 303.1 1691.9 301.1 1699.2 298.4 C1716 292.1 1741.2 279.5 1755.5 270.2 C1766.5 263 1766.5 263 1768.8 253.7 C1773.2 235.6 1777.6 228 1785.3 225.7 C1789 224.6 1789.3 224.7 1791.6 227.3 C1797.1 233.8 1793 244.1 1779.4 257.5 C1770.2 266.5 1770.2 266.5 1765.5 288 C1762.9 299.8 1759.5 314.8 1757.9 321.3 C1756.3 327.9 1755 333.5 1755 333.9 C1755 334.3 1758.9 333.2 1763.7 331.6 C1770.8 329.1 1774.1 328.6 1781.5 328.5 C1792.3 328.5 1798.9 330.9 1804.6 337.2 C1820 354.3 1817.8 388.3 1797.9 438.1 C1783.2 474.8 1765.8 507.4 1740.8 544.7 C1738.1 548.7 1736.1 552 1736.5 552 C1738.1 552 1746.4 547 1753 541.9 C1762.5 534.6 1773.6 522.9 1777.4 515.9 C1779 513 1781.5 506.7 1783 502 C1784.9 496.1 1786.3 493.3 1787.5 493.1 C1791.7 492.2 1786.3 510.5 1779 521.7 C1770.7 534.5 1756.3 546.8 1738.7 556 C1733.3 558.8 1728.5 562 1727.9 563.1 C1726.1 566.4 1713.2 584.7 1704.2 596.7 C1695.8 607.9 1695.8 607.9 1701.3 613 C1722 631.9 1722.1 676.5 1701.5 718 C1686.6 748.1 1668.4 765.2 1643 773.1 C1636.7 775.1 1633.4 775.4 1622.5 775.4 C1611.1 775.3 1608.4 775 1601.4 772.7 C1591.8 769.5 1583.2 763.8 1580.5 758.8 C1578.8 755.5 1578.7 754.5 1579.6 749.8 C1580.2 746.8 1580.6 744.3 1580.3 744 C1579.6 743.3 1575.6 747.5 1565.4 760 C1559.7 766.8 1550.8 777.2 1545.6 782.9 C1540.4 788.7 1536.2 793.5 1536.3 793.6 C1536.4 793.7 1540.3 792.5 1545.1 790.9 C1563.7 784.8 1575.9 784.7 1604.5 790.2 C1619.9 793.1 1623.2 793.4 1640.5 793.4 C1658.4 793.4 1660 793.3 1668.8 790.6 C1691.5 783.9 1709.5 770.6 1722.3 751.1 C1736.6 729.3 1746.1 705.7 1762.9 650 C1770.1 626.2 1772 621.5 1777 614 C1783.6 604.3 1794.9 595.2 1798.6 596.6 C1801.1 597.6 1800 599.9 1796.2 601.8 C1794.1 602.9 1789.8 606.4 1786.6 609.6 C1779.7 616.6 1775.6 624.7 1770.5 641.5 C1768.6 648.1 1762.5 666.8 1757.1 683.2 C1751.7 699.6 1747.5 713 1747.6 713 C1747.8 712.9 1748.8 711.2 1749.9 709.1 C1753.2 702.5 1761.5 694.3 1768.2 691 C1773 688.6 1775.5 687.9 1780.6 688 C1785.2 688 1787.8 687.4 1790.5 685.8 C1793 684.3 1796.4 683.5 1801.3 683.2 C1807.9 682.8 1808.8 683 1813.2 685.8 C1818.4 689.2 1821.6 693.6 1822.6 698.9 C1823.1 701.7 1822.8 702.6 1821 704.1 C1817.4 707.1 1814 706.3 1801.5 700 C1795.1 696.7 1788.8 694 1787.5 694 C1784.6 693.9 1777.2 701.3 1771.5 710 C1769.2 713.5 1763.2 724.6 1758.2 734.5 C1739.8 771 1730 786.4 1716 801.2 C1680.3 838.9 1646.4 848.7 1585 839 C1558.7 834.9 1536.3 834.2 1522 837.3 C1504.5 841 1489.5 847.4 1477 856.5 C1472 860.1 1458.9 874.4 1463 871.9 C1478.1 862.2 1497.7 854.5 1517.9 850.2 C1529.2 847.9 1532.6 847.6 1551.5 847.6 C1574 847.6 1575.7 847.8 1616.5 854.9 C1642.8 859.5 1662.4 860.9 1673.5 859.1 C1685.3 857 1686.2 856.6 1690.1 849.7 C1698.5 835.1 1707.6 825.7 1714.5 824.4 C1719.1 823.5 1721.6 824.6 1722.8 828 C1725.8 836.6 1716.4 848 1699.6 856 C1689.6 860.8 1689.6 860.8 1686.7 868.1 C1685.1 872.2 1681.7 881.3 1679.2 888.5 C1667.6 922.1 1658.7 939.1 1645 953.3 C1630.8 968.2 1612.7 977.6 1587.8 983.1 C1574.2 986.1 1549.1 986.4 1539 983.6 C1519.5 978.2 1498.7 963.7 1490.6 949.8 C1488.4 946.1 1485.1 934.6 1485 930.7 C1485 930.3 1483.3 930.2 1481.2 930.4 C1433.1 936.8 1406.9 944 1386.2 956.5 C1380.3 960 1365.5 972.8 1366.3 973.6 C1366.5 973.9 1369 973 1371.7 971.6 C1379.9 967.4 1396.6 962.1 1406.7 960.3 C1431.1 956.2 1458.2 962.1 1485.2 977.5 C1489.7 980.1 1495.5 983.4 1498 984.8 C1500.4 986.2 1503 987.9 1503.7 988.5 C1506.4 991.2 1525 999.9 1533.5 1002.5 C1538.4 1004 1542.9 1005.8 1543.5 1006.5 C1545 1008.3 1548.5 1009.6 1555.3 1010.8 C1563.1 1012.3 1567.3 1010.8 1580 1001.9 C1593 992.8 1595.6 991.7 1597.5 994.4 C1600.5 998.4 1596 1006.9 1589.1 1010.4 C1584.1 1012.9 1572.9 1016 1568.8 1016 C1566 1016 1554 1019.8 1549.4 1022.2 C1546 1024 1531.8 1038.4 1521.3 1050.8 C1514.1 1059.2 1514.1 1059.2 1515.6 1063.3 C1517.7 1069.2 1518.5 1081.8 1517 1087.6 C1514.4 1098.1 1508.7 1106.2 1501.9 1109 C1497.8 1110.7 1492.5 1109.4 1489.9 1106.2 C1488.1 1103.9 1487.8 1102.4 1488.1 1097 C1488.6 1088.8 1492.3 1080.8 1501.3 1068.2 C1505 1063.2 1508 1058.6 1508 1058 C1507.9 1055.6 1501 1046.2 1495.3 1040.8 C1483.6 1029.7 1465.7 1020 1448.9 1015.6 C1433 1011.4 1425.4 1010.6 1407.2 1011.2 C1388.4 1011.9 1374.3 1014.4 1356.7 1020.3 C1345.4 1024.1 1321 1035.6 1320.3 1037.5 C1320.1 1038.1 1320.8 1041.1 1321.9 1044.2 C1324 1049.8 1324 1049.8 1335.7 1045.8 C1380.5 1030.8 1436.2 1031.5 1457.9 1047.4 C1467.4 1054.4 1471.5 1066 1467.6 1075.2 C1466 1079.1 1458.6 1086.1 1453.2 1088.8 C1430.6 1100.4 1384.7 1097.4 1354.1 1082.4 C1343.6 1077.2 1341.8 1075.9 1332.2 1066.3 C1321.7 1055.8 1321.7 1055.8 1310.1 1061.4 C1290.4 1071 1274.4 1081.4 1265.7 1090.1 C1261.4 1094.4 1258 1098.4 1258 1099 C1258 1099.6 1260.3 1098.8 1263.2 1097.1 C1280 1087.6 1303.9 1083.6 1321.2 1087.6 C1341.6 1092.2 1353.7 1101.8 1375 1130.4 C1406.4 1172.4 1450.9 1197.5 1520.6 1212.5 C1555.7 1220 1585.6 1222.6 1626.9 1221.5 C1642.6 1221.1 1658.6 1220.8 1662.5 1220.9 C1669.4 1221 1683.6 1220.3 1730 1217.4 C1743.4 1216.6 1761 1215.7 1769 1215.4 C1783.1 1215 1783.3 1215 1778 1216.4 C1774.9 1217.2 1769 1217.9 1764.8 1217.9 C1760.5 1217.9 1754 1218.6 1750.3 1219.4 C1746.5 1220.1 1734.7 1221.3 1724 1221.9 C1713.2 1222.5 1697.5 1223.5 1689 1224.1 C1652.5 1226.6 1600.8 1227 1574 1225 C1505.9 1219.9 1442.2 1198.1 1403 1166.5 C1389.9 1155.9 1380.1 1145.1 1363.1 1122.2 C1353.8 1109.7 1339.9 1099 1326.9 1094.3 C1320.2 1091.9 1318 1091.6 1306 1091.5 C1294.8 1091.5 1291.1 1091.9 1284.5 1093.8 C1262.4 1100.1 1246 1110.8 1236.1 1125.2 C1232.9 1129.9 1232.9 1129.9 1240.2 1125.6 C1268.3 1109.2 1304.1 1102.8 1327.6 1110.1 C1343.8 1115.1 1351.6 1122.2 1355.5 1135.4 C1358 1144.2 1355.6 1153.2 1348.8 1159.6 C1341.6 1166.4 1332.5 1168.1 1323.9 1164.2 C1315.2 1160.3 1309.1 1150.1 1311.5 1143.3 C1313.1 1138.8 1314.9 1139.2 1315 1144.1 C1315.1 1153.4 1321.8 1160.7 1331.1 1161.6 C1338.3 1162.4 1343.6 1159.7 1348.1 1153.3 C1356.7 1140.8 1349.9 1124.9 1332.6 1116.9 C1309.3 1106.1 1265.9 1113.5 1235.9 1133.6 C1232.3 1136 1227.7 1139.6 1225.6 1141.7 C1216.5 1151.1 1189.6 1191.2 1165.7 1231 C1163.2 1235.1 1156.7 1247.1 1151.2 1257.5 C1133.7 1290.8 1132 1293.9 1130.5 1294.5 C1129.5 1294.8 1129 1294.3 1129 1293.1 M1493.9 1103.5 C1491.1 1099.8 1491.7 1094.7 1495.8 1086.5 C1500.8 1076.3 1509.8 1063.4 1511.1 1064.7 C1511.6 1065.2 1512.4 1068.6 1512.8 1072.4 C1514.3 1084.6 1511.1 1095.9 1504.6 1101.7 C1500.6 1105.2 1495.8 1106 1493.9 1103.5 M1401.7 1090.9 C1389.6 1089.5 1369.5 1084.4 1360.9 1080.6 C1356.7 1078.8 1350 1075.1 1346.1 1072.5 C1338.4 1067.3 1327.6 1056.5 1328.2 1054.6 C1328.7 1053.2 1345.2 1047.6 1358.5 1044.5 C1374 1040.8 1386 1039.5 1404.5 1039.6 C1431.7 1039.6 1449.8 1044.7 1459.4 1055 C1469.3 1065.6 1465.4 1077.3 1449.6 1084.9 C1437.9 1090.5 1418.2 1093 1401.7 1090.9 M1281.6 1069.2 C1293.1 1054.7 1299.6 1048.3 1306.6 1044.2 C1310.5 1041.8 1314.1 1040 1314.6 1040 C1315.3 1040 1319.3 1049.1 1319.4 1051.1 C1319.4 1051.5 1313.9 1054.5 1307.2 1057.9 C1300.5 1061.2 1290.9 1066.4 1286 1069.5 C1277 1075 1277 1075 1281.6 1069.2 M1509.8 1050.9 C1508.1 1046.5 1493.8 1032.4 1485 1026.4 C1472.8 1018.2 1459 1012.8 1440.2 1008.8 C1425.1 1005.6 1400.7 1005.6 1383.5 1008.8 C1361.6 1012.9 1345.5 1018.3 1329.2 1027 C1319.7 1032.1 1319.7 1032.1 1320.4 1029.3 C1321.4 1025.5 1322.2 1024.6 1329.8 1019.5 C1339.8 1013 1344.3 1010.4 1357.5 1004 C1371.6 997.1 1374.9 995.8 1389.5 991.7 C1399.5 988.9 1401.8 988.6 1416.5 988.5 C1440.3 988.4 1450.3 991.4 1482.2 1007.7 C1495.8 1014.8 1500.9 1016.6 1501 1014.6 C1501.1 1014 1501.4 1014.2 1501.8 1015.1 C1502.3 1016.5 1502.7 1016.5 1503.7 1015.4 C1504.7 1014.3 1504.2 1013.9 1501.2 1012.9 C1499.1 1012.3 1492.2 1008.9 1485.8 1005.3 C1462.6 992.6 1451.1 987.4 1440 984.8 C1426.9 981.8 1404.4 982.1 1391.5 985.5 C1377 989.2 1347.3 1002.5 1336.2 1010.1 C1333.8 1011.8 1331.6 1013 1331.4 1012.8 C1331.2 1012.6 1336.4 1006.7 1343 999.8 C1355.2 986.8 1360.9 982.5 1375 975.4 C1402.4 961.6 1433 960.2 1462.4 971.6 C1471.2 974.9 1496.3 988.1 1497.4 989.9 C1498.5 991.6 1524.4 1004.7 1531.9 1007.4 C1536.1 1008.9 1540.1 1010.7 1540.9 1011.4 C1542.1 1012.5 1549.6 1014.4 1554.9 1015 C1556.5 1015.2 1546 1017.9 1543.6 1017.9 C1542.1 1017.9 1541.1 1018.4 1541.4 1018.9 C1541.7 1019.4 1542.8 1019.6 1543.7 1019.3 C1545.2 1018.8 1545.2 1018.9 1544 1019.8 C1543.1 1020.4 1541.3 1021 1540 1021.1 C1538.2 1021.1 1538 1021.3 1539.2 1021.6 C1540.2 1021.9 1541 1022.4 1541 1022.8 C1541 1023.2 1537.8 1026.6 1533.9 1030.5 C1530 1034.3 1523.7 1041.2 1519.9 1045.7 C1516.1 1050.2 1512.5 1054 1512 1054 C1511.4 1054 1510.4 1052.6 1509.8 1050.9 M1312.2 1034.2 C1316 1029.5 1316.2 1029.4 1315.4 1031.9 C1314.6 1034.7 1312.5 1037 1311 1037 C1310.4 1037 1311 1035.7 1312.2 1034.2 M1581.7 1005.9 C1584.9 1003.7 1588.7 1000.9 1590.2 999.7 C1593.6 997 1594.6 997.9 1592.6 1001.7 C1591 1004.8 1584.4 1008.5 1579 1009.5 C1576.3 1009.9 1576.6 1009.5 1581.7 1005.9 M1545.9 979.9 C1517.3 974.3 1492.6 954.3 1490.3 934.9 C1489.6 929.4 1488.6 930.1 1501 927.9 C1504.5 927.3 1509.5 925.8 1512 924.6 C1516.5 922.4 1516.5 922.4 1516.1 914.9 C1514.8 885.6 1547 871.2 1586.2 883.6 C1602.9 888.8 1612.1 895.6 1617.6 906.7 C1621 913.4 1621.2 914.4 1620.7 920.7 C1619.9 930.8 1616.8 938 1609.8 945.4 C1598.2 957.9 1583.8 964.7 1563.1 967.6 C1552.4 969.1 1550.5 969.1 1542.4 967.7 C1526.2 965 1516.7 957.1 1515.3 945.2 C1514.6 939.6 1516.2 932.9 1518.7 930.7 C1520.3 929.2 1520.5 929.5 1520.6 935.3 C1520.8 948.6 1530.8 959.3 1544.2 960.6 C1550.1 961.2 1559.8 959.2 1566.8 955.8 C1573.9 952.3 1582.3 943.8 1585.4 936.8 C1589.3 928.3 1589.4 917.7 1585.7 909.8 C1581.7 901.2 1576.8 896.4 1567.3 891.8 C1559.8 888.2 1558 887.7 1551.5 887.7 C1542.7 887.6 1536.9 890.1 1531.4 896.2 C1527.4 900.6 1523.1 909.4 1520.9 917.5 C1520.2 920.2 1518.4 923.9 1516.9 925.6 C1512.5 930.7 1510.6 936.9 1511.2 944.7 C1512.7 966 1532.7 976.1 1565.6 971.9 C1596.4 968.1 1620.7 949.1 1625 925.4 C1626.5 917.6 1625.7 912.3 1621.9 904.9 C1614.7 890.5 1600 880.9 1578.6 876.5 C1568.7 874.5 1550.6 874.5 1542.7 876.5 C1530.4 879.7 1519.8 887.5 1515.1 896.7 C1512.7 901.4 1510.9 911.5 1511.6 916.2 C1512.1 919.4 1511.9 919.5 1506.5 921.7 C1503.5 922.9 1498.5 924.2 1495.4 924.6 C1489.9 925.2 1489.9 925.2 1490.6 921.8 C1492.9 909.6 1500.7 896.3 1512.5 884.4 C1522.6 874 1530.6 869.4 1544.4 865.9 C1558.3 862.4 1572.3 863.8 1595.1 871 C1609.3 875.4 1610 875.5 1610 873.5 C1610 871.6 1607.6 870.4 1595.8 866.4 C1566 856.4 1543.8 857.3 1523.7 869.3 C1505.4 880.2 1490.4 900.5 1486.5 919.3 C1485.3 925.5 1485.3 925.5 1477.7 926.1 C1466.5 927.2 1442.2 931.6 1428.5 935 C1414.7 938.5 1405.9 941.5 1395.3 946.4 C1387.8 949.9 1387.8 949.9 1393.9 943.9 C1398.4 939.4 1401.7 937.2 1406.9 935 C1419.3 930 1423.3 925.7 1431.7 908.4 C1435.8 899.9 1437.3 897.9 1444.6 891.2 C1454.7 882 1460.4 878.1 1473.5 871.4 C1508.7 853.4 1537.6 848.8 1582.4 854.4 C1588.5 855.2 1602 857.4 1612.5 859.3 C1644 865.1 1660.8 866.2 1676 863.5 C1680.1 862.8 1683.6 862.3 1683.7 862.4 C1683.9 862.5 1682.7 865.7 1681.1 869.5 C1679.6 873.3 1675.9 883.7 1672.9 892.5 C1667.2 909.4 1657.7 929.3 1650.4 939.5 C1632.2 965.1 1603.1 979.2 1566 980.5 C1557.6 980.7 1548.7 980.5 1545.9 979.9 M1353 979.6 C1353 979.4 1354.1 976.4 1355.6 972.9 C1358.5 965.8 1363.2 949.5 1365.4 939 C1368.4 925 1369.2 918 1369.8 901.5 C1370.5 884.5 1370.5 884.5 1376.5 882.9 C1397.1 877.4 1420.8 854 1429.1 831 C1431.2 825.1 1431.4 822.8 1431.4 808.5 C1431.3 794.5 1431 791.2 1428.7 782.4 C1425.4 769.9 1422.4 761.9 1417.1 751.2 C1412.9 742.9 1410.3 740.4 1411.2 745.7 C1411.5 747.2 1413.9 753.6 1416.5 759.9 C1422.2 774 1425.4 786.6 1427 801.3 C1428.1 811 1428 813.7 1426.6 821 C1422.6 841.2 1407.5 861.4 1387.3 873.7 C1382.8 876.4 1373.4 880 1370.8 880 C1370.3 880 1369.9 876.9 1369.9 873.2 C1369.8 869.5 1369.5 864.2 1369.1 861.5 C1368.5 856.5 1368.5 856.5 1361.5 855.7 C1344.7 853.8 1332.6 842.8 1329.1 826.2 C1327.5 818.6 1327.7 800.4 1329.5 791.9 C1334 770.2 1348.5 750.5 1362.9 746.3 C1369.4 744.4 1380.1 745 1385.1 747.5 C1403.7 757 1415.1 779.8 1415.2 807.5 C1415.3 828.3 1407.9 843.4 1394.1 850.4 C1386.7 854.2 1375.4 853 1372.2 848.2 C1370.7 845.9 1370.7 845.9 1376.1 846.5 C1386.9 847.8 1397.7 842.3 1403.4 832.6 C1404.7 830.3 1406.4 825.2 1407 821.2 C1409.2 808.2 1405.2 796.2 1395.9 787.5 C1388 780.1 1383.9 778.5 1373.5 778.5 C1365.9 778.5 1363.6 778.9 1359.5 780.9 C1351.9 784.6 1343.5 793.5 1339.4 802.2 C1331 819.9 1335.1 836.2 1350 843.7 C1354.3 845.9 1358 847.1 1361.1 847.1 C1365.1 847.2 1365.9 847.6 1367.4 850.2 C1371 856.2 1383.3 859 1392.7 855.9 C1400.3 853.4 1410 845 1413.9 837.4 C1415 835.2 1416.9 829.6 1418.1 824.9 C1421 813.2 1420.4 795.5 1416.5 782.5 C1409.4 758.5 1394 742.5 1376.1 740.5 C1362.6 738.9 1348 746.2 1339 759 C1328.2 774.4 1322.9 790.8 1322.8 809.5 C1322.7 819.8 1323.1 822.6 1325.3 829.5 C1326.7 833.9 1329.2 839.5 1330.7 842 C1336.9 851.6 1348 858.8 1358.2 859.7 C1361.4 860 1364.2 860.5 1364.4 860.8 C1364.5 861.2 1365 865.6 1365.4 870.7 C1366.1 880 1366.1 880 1363.7 880 C1350.4 880 1331.9 865.1 1322.6 847.1 C1307.8 818.2 1307.3 786.4 1321.4 754 C1331.7 730.2 1350.9 705.1 1370 690.4 C1376.7 685.2 1402.8 668.9 1404.3 669 C1404.4 669 1404.5 675.1 1404.6 682.7 C1404.7 695.4 1405 697.4 1408.3 708.7 C1411.7 720.3 1413.6 724.9 1427.4 754.7 C1440 782.2 1443.9 796.4 1444.7 818 C1445.5 841.3 1442.5 862.1 1434.7 886.4 C1431.2 897.7 1430.6 898.4 1409.1 919.4 C1400.8 927.5 1397 932 1397 933.5 C1397 935 1392.4 940.2 1382 950.3 C1373.7 958.4 1363.8 968.3 1360 972.5 C1356.1 976.6 1353 979.8 1353 979.6 M1537.2 954.1 C1532.5 951.7 1528.5 947.5 1526.5 942.7 C1524.9 938.9 1524.4 929.3 1525.7 927.3 C1527.5 924.4 1538.5 922.8 1541.8 924.9 C1542.9 925.6 1542.7 926.4 1540.5 929.3 C1538.8 931.5 1537.5 934.7 1537.2 937.3 C1536.8 941.1 1537.1 942.1 1539.8 945.1 C1542.6 948.2 1543.2 948.4 1549.2 948.4 C1567 948.4 1580.1 929 1572.4 914 C1566.6 902.6 1548.3 898.1 1539.9 906 C1536.3 909.4 1536.1 912.8 1539.4 916.8 C1541.9 919.7 1541.9 919.7 1533.7 920.2 C1529.2 920.4 1525.3 920.4 1525 920.3 C1523.9 919.4 1528.4 908.5 1532 903.1 C1535.2 898.3 1537.2 896.5 1541.5 894.4 C1546.3 892 1547.8 891.8 1553.1 892.3 C1564.7 893.5 1576.4 901 1581.1 910.2 C1584.1 916.2 1584.7 926.2 1582.4 933 C1580 940.2 1572.2 948 1563.5 952 C1554.8 955.9 1542.8 956.9 1537.2 954.1 M1543.3 942.6 C1540.7 940.5 1541.4 935.4 1544.9 930.7 C1548.8 925.4 1548.8 921.7 1545 917.3 C1539.1 910.6 1542.5 906.4 1553.2 907.1 C1563.8 907.8 1570 914.3 1570 924.8 C1570 928.9 1569.4 930.6 1566.7 934.1 C1560.5 942.2 1548.3 946.7 1543.3 942.6 M1408.9 928.2 C1409.9 926.7 1414 922.1 1417.9 918 C1423.6 912 1424.7 911.1 1423.4 913.9 C1421.4 918 1414.1 926.2 1410 929 C1407 931 1407 931 1408.9 928.2 M1462.3 862.2 C1464.8 857.4 1469.8 840.4 1471 833.3 C1471.6 829.6 1472 819.5 1472 811 C1472 793.9 1471 787.1 1463.6 750.5 C1456.3 714.7 1454.7 696.5 1457.3 675.9 C1461.8 640.2 1474.8 612.7 1497 591.6 C1515.7 573.8 1534 563.9 1586.5 543.3 C1607.3 535.2 1620.4 529.3 1627.7 524.8 C1630.9 522.8 1630.9 522.8 1629.4 527 C1624.2 541.8 1611.6 550.8 1571.3 568.5 C1554 576.1 1539.1 584.2 1529.7 591.1 C1521.1 597.5 1509.3 610.1 1502.9 619.8 C1480.4 653.7 1474.2 691.4 1481.9 746.4 C1486.7 780.9 1487.5 791 1486.1 806.3 C1484 829.8 1475.9 851.5 1466 860.5 C1461.7 864.3 1461.1 864.6 1462.3 862.2 M1695.1 850.2 C1703.2 836.2 1714.5 826.1 1718.1 829.7 C1721.4 833 1710 846.3 1699.7 851.2 C1696.5 852.7 1693.7 854 1693.5 854 C1693.2 854 1693.9 852.3 1695.1 850.2 M1496.2 835.4 C1503.2 828.1 1505.8 826.1 1513.5 822.5 C1534.7 812.3 1562.3 809.7 1599 814.4 C1618.3 816.8 1628.1 817.2 1640.1 815.9 C1655.4 814.3 1664.7 811.8 1675.7 806.4 C1699.7 794.6 1725.4 765.5 1744.6 728.3 C1758 702.4 1764.8 694.8 1777 692.5 C1780.4 691.9 1780.4 691.9 1778.4 693.7 C1771.5 699.9 1763.5 712.8 1748.1 742.7 C1734.4 769.2 1730.1 776.2 1720.4 788.5 C1695.3 819.9 1665.8 835.9 1629.5 837.6 C1615.6 838.2 1608 837.6 1581 833.3 C1546.3 827.8 1515.6 830.6 1494.7 841.1 C1491.5 842.7 1488.7 844 1488.5 844 C1488.2 844 1491.7 840.1 1496.2 835.4 M1358.2 842.1 C1346.6 839.6 1340 831.1 1340 818.7 C1340 809.8 1345.4 798.6 1353.3 791.2 C1360.3 784.6 1364.7 782.7 1373 782.5 C1385.9 782.4 1397.1 791 1401.1 804.2 C1408.1 827.1 1393.6 845.6 1372.1 841.3 C1369.9 840.9 1368.7 840 1368.3 838.4 C1367.8 836.3 1369.5 825.6 1370.6 823.7 C1370.9 823.3 1373 824.3 1375.4 826 C1377.8 827.7 1381.5 829.4 1383.8 829.7 C1387.5 830.2 1388.2 829.9 1391.4 826.7 C1394.7 823.4 1394.9 822.7 1394.9 817.3 C1394.9 799.7 1378 787.2 1363.4 793.8 C1355.8 797.3 1348.9 808.2 1349 816.9 C1349 821.3 1351 827.1 1353.5 829.6 C1356 832.1 1360.8 832.7 1362.7 830.8 C1364.4 829.1 1364.6 829.7 1364.2 836.7 C1363.9 843.4 1363.9 843.4 1358.2 842.1 M1355.8 825.4 C1353.7 822.6 1353.5 812.7 1355.5 808.9 C1359.3 801.2 1365.3 797 1372 797 C1377.1 797 1380.6 798.8 1385.2 803.8 C1390.8 810 1392.5 819.1 1388.9 823.5 C1386.9 826 1381.7 825.2 1377.9 822 C1372.2 817.1 1367.9 818.1 1362.2 825.4 C1360.6 827.4 1357.3 827.4 1355.8 825.4 M1519.7 810.2 C1527.1 802.7 1527.9 802.2 1538 798.7 C1556.9 792 1563.9 790.6 1576.9 791.2 C1583.9 791.6 1595 793.1 1605 795.1 C1620 798.1 1623.1 798.4 1640 798.4 C1656.3 798.4 1659.5 798.2 1667 796.1 C1678.7 792.9 1687.2 789.2 1696 783.4 C1707 776.1 1707.2 776.1 1698.5 784.5 C1684.2 798.1 1670.3 805.8 1653.5 809.6 C1643 811.9 1615 811.9 1595.5 809.6 C1587.8 808.7 1577.4 807.7 1572.5 807.4 C1555.7 806.2 1530.6 810 1518.2 815.6 C1515.3 816.9 1512.7 818 1512.5 818 C1512.2 818 1515.4 814.4 1519.7 810.2 M1536.6 784.2 C1542.1 769.1 1542.7 754.1 1538.5 736 C1533.2 712.9 1532.7 709.5 1532.6 696.5 C1532.6 685.3 1532.9 682.1 1535.3 673.6 C1544 641.8 1562 620.9 1594.6 604.6 C1611.3 596.3 1624.6 591.7 1661 582 C1696.2 572.6 1708.2 569.1 1715.7 565.9 C1718.2 564.8 1720.4 564 1720.5 564.2 C1721 564.7 1709.1 581.6 1699.2 594.7 C1690.7 605.9 1690.7 605.9 1687.9 604.4 C1683.6 602.2 1671.6 600 1664 600 C1649.1 600 1633.4 604.2 1610.8 614.4 C1581.6 627.6 1558.3 648.9 1548.9 670.9 C1545.1 679.8 1542.5 694.5 1543.4 702.5 C1544.9 715.9 1547.8 723.7 1556.1 736 C1560.4 742.4 1564 748.4 1564 749.3 C1564 753.3 1560.5 758.5 1550 770.4 C1543.9 777.3 1538.3 783.6 1537.5 784.5 C1536.1 785.8 1536 785.8 1536.6 784.2 M1606.8 769.4 C1598.3 766.9 1589.3 762.2 1586 758.4 C1583.3 755.3 1583 754.3 1583.6 751.1 C1583.9 749.1 1584.4 747.3 1584.6 747 C1584.8 746.8 1586.6 748 1588.7 749.8 C1593.9 754.2 1600.9 757.7 1608.2 759.6 C1619.3 762.4 1637.7 760.2 1646 755.1 C1662.3 744.9 1673.2 725.4 1674.7 703.8 C1675.7 688 1670.9 673.5 1661.1 662.8 C1655.9 657.1 1655.9 657.1 1669.2 640.8 C1676.5 631.8 1684.5 621.8 1686.9 618.7 C1689.3 615.5 1691.6 612.6 1692.1 612.3 C1692.6 612.1 1694.8 613.3 1697.1 615.1 C1720.3 633.5 1716.3 689 1688.7 731.2 C1671.5 757.5 1648.9 771 1622 771 C1615.9 771 1609.9 770.3 1606.8 769.4 M1613.2 756 C1601.6 753.9 1583 742.3 1585.5 738.6 C1586.5 737.1 1598.7 723.2 1604.8 716.6 C1608 713.1 1608.4 712.9 1609.1 714.6 C1609.5 715.6 1609.8 719.7 1609.9 723.6 C1609.9 729.9 1610.3 731.2 1612.7 734 C1617.8 740.1 1626.3 741.6 1633.5 737.9 C1654.1 727 1660.5 695.8 1645.5 679.2 C1643.6 677 1642 674.9 1642 674.5 C1642 673.6 1650.7 662.2 1652 661.4 C1655 659.6 1666.3 676.3 1668.9 686.5 C1670.4 692.4 1670.2 708.7 1668.4 715.4 C1664.6 729.9 1653.1 745.8 1642.3 751.3 C1633.5 755.7 1622.3 757.5 1613.2 756 M1567.5 747.6 C1567.3 745.6 1564.4 740.2 1560.6 734.5 C1553.1 723.4 1550.3 716.6 1548.7 705.8 C1545.9 687 1553.1 666.6 1568 650.3 C1586.9 629.8 1618.3 612.3 1646.9 606.5 C1657.5 604.3 1675.9 604.8 1683.2 607.4 C1688 609.2 1688 609.2 1684.7 613.5 C1680.7 618.8 1659.2 645.1 1654.7 650.2 C1651.5 653.9 1651.5 653.9 1642.6 650.4 C1635.5 647.5 1632 646.7 1624.6 646.2 C1588.4 644.1 1555 676.6 1560.8 708.2 C1562.3 716.5 1565.6 723.3 1572.2 732.2 C1578.1 740.1 1578.1 740.1 1574 744.5 C1571.8 747 1569.5 749.4 1569 750 C1568.3 750.6 1567.8 749.8 1567.5 747.6 M1577.6 731.9 C1572.8 726.2 1568.3 717.3 1566.4 709.9 C1561.3 690.3 1573.6 667.9 1595.4 657 C1604.8 652.3 1612.8 650.7 1623.9 651.2 C1633.2 651.6 1640.9 653.6 1645.6 656.7 C1647.9 658.2 1647.9 658.2 1646 660.8 C1644.9 662.3 1642.3 665.4 1640.3 667.7 C1636.5 672 1636.5 672 1632 669.7 C1628.3 667.9 1625.8 667.5 1618.5 667.5 C1610.3 667.5 1608.8 667.8 1602.5 670.8 C1590 676.7 1581 687.9 1581 697.8 C1580.9 706.6 1586.3 711 1596.9 711 C1600.2 711 1603 711.4 1603 711.9 C1603 712.4 1602.6 712.9 1602.1 713.1 C1601.7 713.3 1597.2 718.1 1592.1 723.7 C1587.1 729.3 1582.5 734.4 1582 735 C1581.3 735.6 1579.8 734.6 1577.6 731.9 M1619.1 733.9 C1615.5 731.7 1614 727.5 1614 719.7 C1614 715.5 1613.5 711.9 1612.8 711.2 C1611.3 709.7 1613 707.1 1621.9 696.9 C1625.5 692.7 1630.7 686.7 1633.4 683.5 C1638.3 677.7 1638.3 677.7 1641.1 681.1 C1647.4 688.4 1648.5 691.6 1648.5 702.5 C1648.5 711.5 1648.2 713 1645.5 718.2 C1639.4 730.3 1626.3 738.1 1619.1 733.9 M1592.5 706.1 C1587.2 704.8 1585.9 703.3 1586 698.1 C1586.1 681.6 1608.3 668.2 1627.5 673.1 C1630 673.7 1632.2 674.6 1632.5 675.1 C1632.8 675.6 1627.9 682.1 1621.5 689.5 C1615.1 697 1609.3 704 1608.4 705 C1607.3 706.5 1605.7 707 1601.5 707 C1598.4 707 1594.4 706.6 1592.5 706.1 M1813.8 701.4 C1812.7 701 1809.8 699.7 1807.6 698.3 C1805.3 697 1801.1 694.7 1798.2 693.2 C1795.3 691.7 1793 690.3 1793 689.9 C1793 689.6 1795.1 688.8 1797.8 688.2 C1806.1 686.3 1815.4 690.3 1817.8 696.9 C1819.1 700.5 1817.4 702.4 1813.8 701.4 M1412.9 656 C1414.6 650.5 1422.2 637 1426 632.6 C1433.4 624.2 1440.8 622.9 1443 629.5 C1444 632.7 1443.9 633.2 1441.1 636.8 C1436.5 642.6 1430.7 647.5 1421.4 653.5 C1416.7 656.5 1412.7 659 1412.5 659 C1412.2 659 1412.4 657.6 1412.9 656 M1637.9 500.7 C1639.1 488.3 1640.4 483.4 1642.7 482.5 C1645.5 481.4 1648 485.4 1647.9 490.8 C1647.9 495.8 1645.6 501.9 1641.5 507.5 C1637.4 513.1 1636.8 512.1 1637.9 500.7 M1699.1 421 C1693.2 418.1 1691 410.3 1693.4 400.8 C1697.8 383.5 1719.4 359.5 1742.3 346.4 C1747.1 343.7 1747.1 343.7 1746.4 346.6 C1746 348.2 1743 357.6 1739.8 367.5 C1730.7 395.1 1721.9 411.5 1712.5 418.4 C1708.6 421.2 1702 422.5 1699.1 421 M1493.5 376.4 C1490 365.4 1499.8 334.6 1517.1 302.2 C1521 294.9 1524.4 289.1 1524.7 289.4 C1526.1 290.8 1512 346.1 1507 358.7 C1501.2 373.5 1495.1 381.5 1493.5 376.4 M1639.9 316.6 C1642.1 310.9 1664.6 266.8 1670.4 256.7 C1677.2 244.9 1683.6 235.9 1685.7 235.2 C1687.9 234.5 1688.2 240.2 1686.6 253.8 C1684 275.8 1680 305.2 1679.7 305.4 C1679.6 305.6 1671 308.4 1660.7 311.8 C1650.4 315.2 1641.3 318.2 1640.5 318.5 C1639.2 318.9 1639.1 318.5 1639.9 316.6 M1537.2 310.7 C1534.2 309.7 1533.5 308.9 1533.5 306.9 C1533.5 303.5 1536.6 303.2 1541 306.2 C1547.6 310.7 1545.3 313.4 1537.2 310.7 M1773 256.3 C1773 254.1 1777.6 240.7 1779.6 236.8 C1785.6 225.9 1792.2 229.3 1787 240.6 C1785.2 244.4 1773 258.1 1773 256.3 M184.3 1223.4 C183 1220.1 204.1 1201.5 225 1187.5 C274.1 1154.7 346.8 1136.5 412.2 1140.8 C442.9 1142.8 460.9 1145.6 485.8 1152.4 C512.2 1159.6 527.6 1165.4 574 1185.5 C590.2 1192.5 621.3 1204.1 632.8 1207.4 C647.6 1211.7 669.7 1216.5 682 1218.1 C687.4 1218.9 701.2 1219.4 714.2 1219.4 C734.6 1219.4 737 1219.6 737 1221.1 C736.9 1223.4 735.2 1223.9 722.6 1224.6 C680.3 1226.9 627.5 1214.4 568.5 1187.9 C567.4 1187.4 563.3 1185.6 559.5 1183.9 C523.1 1167.5 480.8 1154.2 448 1149 C406.5 1142.4 355.8 1144.1 318 1153.4 C296.7 1158.7 281.2 1163.6 270 1168.7 C248 1178.6 240.2 1182.8 224 1193.8 C212.3 1201.6 203.7 1208.6 194.2 1217.9 C190.2 1221.8 186.5 1225 186 1225 C185.4 1225 184.7 1224.2 184.3 1223.4 M1613.7 788 C1609.7 787.5 1601.1 786.2 1594.6 785 C1580.9 782.6 1564.8 782.3 1557.5 784.3 C1554.7 785.1 1551.8 785.9 1551 786.1 C1550.2 786.3 1549.4 785.8 1549.2 784.9 C1549 783.9 1550.6 782.6 1553.7 781 C1561.2 777.3 1575.3 777.1 1595 780.3 C1641 788 1663.2 782.8 1687 758.6 C1702.2 743.2 1711.5 727.2 1719.8 702 C1727.6 678.4 1730 665 1732.9 628.5 C1735.7 594.4 1737.2 587.9 1746.7 569.6 C1756 551.5 1775.2 538 1791.5 538 C1801.9 538 1801.4 540.4 1788.1 553.6 C1764.2 577.5 1756.6 594.9 1747.9 645.6 C1740.4 689.5 1735.1 709 1726 727.2 C1714.4 750.1 1691.1 778.9 1684.2 778.9 C1683 778.9 1682 778.7 1682 778.3 C1682 778 1685.9 773.6 1690.8 768.5 C1704.3 754.3 1712.2 743.2 1720.4 726.5 C1732.3 702.4 1735.4 691.8 1742.9 648 C1750.1 606.5 1756.2 587.8 1768.3 569.7 C1774.1 560.9 1782.8 551.3 1790.5 545 C1794.5 541.7 1794.5 541.7 1789.5 542.4 C1778.3 543.9 1763.9 552.9 1756.3 563.3 C1743.8 580.2 1740.5 592 1737.5 630.5 C1734.8 664.7 1731.5 682.4 1723.3 706.2 C1711.5 740.8 1692.3 766.3 1668.9 778.4 C1652.5 786.9 1632.3 790.4 1613.7 788 M1021.2 498.1 C1009.1 494.5 1003.6 485.8 1003.7 470.5 C1003.7 459.7 1006.5 450.1 1013.6 437.1 C1028.3 410.1 1059.8 380.6 1100.1 356.1 C1107.7 351.5 1107.7 351.5 1111.2 339.7 C1113.1 333.2 1114.5 328 1114.3 328 C1114.2 328 1110.5 331.5 1106.2 335.8 C1089 353.2 1074.3 360.1 1063.3 355.9 C1053.9 352.3 1048.9 339.6 1051 325 C1052.5 314.8 1054.1 309.3 1061.7 289.5 C1074 256.9 1075.1 253.7 1075.7 246.3 C1076.2 239.6 1076.1 239 1073.6 236.5 C1070.7 233.6 1068 233.3 1061.9 235.5 C1052.8 238.7 1043.4 249.1 1035.8 264.6 C1031.9 272.5 1029.9 274.4 1028.4 271.9 C1027.6 270.5 1034.7 255.7 1039.8 248.1 C1047.6 236.7 1057.7 230 1067 230 C1076.5 230 1081 234.6 1081 244.7 C1081 251.3 1078.8 259.1 1072.5 275 C1062.9 299.3 1058 313.7 1056.4 322.6 C1053.4 339.8 1057.8 350.5 1068.3 351.7 C1077.3 352.7 1088.3 346.7 1102 333 C1116.1 319 1117.8 316 1124.5 292.5 C1136.7 249.3 1147 231.4 1153.6 241.5 C1158.4 248.8 1146.5 280.7 1129.4 306.5 C1123.4 315.5 1122.4 317.8 1118.8 330.5 C1116.6 338.2 1114.7 345.1 1114.4 346 C1114.1 346.9 1119.9 344.5 1129.6 339.8 C1138.3 335.6 1150.9 329.9 1157.8 327.3 C1170.3 322.5 1170.3 322.5 1181.5 299.5 C1199.2 263.4 1212 241 1219.1 234 C1222.7 230.3 1228.2 229.8 1229.9 232.9 C1231.8 236.4 1231 250.4 1227.4 277 C1225.4 291.4 1224 303.3 1224.2 303.6 C1224.9 304.3 1268 288.4 1268 287.4 C1268 287.2 1266.5 284.2 1264.8 280.8 C1260.6 272.6 1260.6 265.8 1264.5 257 C1272.7 238.8 1301.9 225.6 1319.2 232.3 C1328.1 235.7 1331.4 245 1327.1 254.5 C1323.4 262.5 1310.2 272.4 1288.7 283.2 C1277 289.2 1277 289.2 1282.7 293.9 C1285.9 296.4 1290.9 300.3 1294 302.4 C1303.2 309 1311.6 316.7 1314.6 321.5 C1317.2 325.6 1317.7 325.9 1320.5 325.3 C1324.6 324.5 1351.3 315 1352.2 314.1 C1352.8 313.5 1368.9 239.9 1368.9 237.7 C1368.9 237.3 1369.9 237 1371 237 C1373.9 237 1373.6 239.1 1367.9 266.4 C1365.1 279.6 1361.7 295.3 1360.5 301.2 C1359.2 307.1 1358.5 311.9 1358.8 311.9 C1361.6 311.9 1400.6 293.9 1405.1 290.6 C1406 289.9 1409.3 281.6 1412.5 272.1 C1420.3 248.7 1428 236.5 1436.8 233.9 C1448.6 230.4 1452.8 243.6 1444.6 258.2 C1439.3 267.6 1431.2 276.8 1421 284.9 C1412.8 291.5 1411.8 292.7 1410.5 297.3 C1405.6 314.4 1402.6 333.8 1402.5 349 C1402.4 362.5 1403.4 367 1407.6 371.9 C1413 378.4 1421.8 376 1429.7 365.8 C1434.1 360.2 1436.2 358.9 1437.4 360.9 C1439 363.5 1428.4 376 1422.4 378.5 C1417.7 380.5 1411.1 380.3 1407.3 378 C1400 373.6 1396.4 361.5 1397.4 345 C1398.1 334.1 1401.8 310.4 1404.3 301.2 C1405 298.3 1405.4 296 1405.1 296.2 C1387.5 305 1371.6 312.5 1365.3 315 C1357.1 318.2 1357.1 318.2 1353.9 331.3 C1343 377.2 1341.8 381.2 1339 379.5 C1337.5 378.6 1337.7 375.4 1339.5 369.5 C1341.8 362 1351 321.7 1350.5 321.2 C1350.3 321 1344 322.8 1336.4 325.4 C1328.9 327.9 1322.1 330 1321.3 330 C1320.1 330 1319.9 330.5 1320.6 332.7 C1321.1 334.2 1321.4 338.8 1321.4 343 C1321.4 352.6 1318.8 358.3 1310.4 366.6 C1300.3 376.5 1283.9 383 1268.6 383 C1250.2 383 1237.6 373.5 1242 362.9 C1243.7 358.8 1252.4 351.1 1259.8 347.1 C1266.8 343.4 1286.2 336 1302.1 330.9 C1312.8 327.6 1312.8 327.6 1311.1 324.7 C1308.8 320.5 1299.9 312.5 1289.4 305 C1284.5 301.5 1278.6 296.9 1276.4 294.8 C1272.4 291 1272.4 291 1251.8 298.9 C1240.4 303.3 1229.3 307.3 1227.2 307.9 C1223.3 308.9 1223.3 308.9 1222 320.7 C1221.2 327.2 1220.5 342.8 1220.3 355.5 C1220.1 377.2 1219.9 378.5 1218.1 378.8 C1216.6 379 1216.1 378.3 1215.6 375.3 C1214.5 368.4 1214.9 341.7 1216.4 328.5 C1217.2 321.3 1217.9 314.5 1217.9 313.3 C1217.9 311.2 1217 311.4 1196.3 318.4 C1174.7 325.7 1174.7 325.7 1165.8 343 C1151.1 371.5 1145.8 378.2 1137.6 378.2 C1134.5 378.2 1133.1 377.6 1131.3 375.5 C1128.3 372.1 1128.1 367 1131 367 C1132.3 367 1133 367.6 1133 368.9 C1133 371.1 1135.5 374 1137.5 374 C1139.7 374 1145.5 368.4 1149.3 362.7 C1151.2 359.8 1156.2 350.8 1160.4 342.6 C1168.2 327.8 1168.2 327.8 1164.8 329.2 C1150.8 335.1 1139.4 340.4 1126.8 346.8 C1112.2 354.2 1112.2 354.2 1109.9 361.8 C1094.2 415.2 1075.3 457.9 1057.6 479.7 C1046.7 493.2 1031.1 501.1 1021.2 498.1 M1017.9 491.8 C1012.5 489 1008.9 482.7 1008.2 475 C1006.1 451.8 1027.2 417.7 1060.4 390.6 C1075.7 378.1 1104.4 358 1105.4 359 C1106 359.7 1089.7 407.5 1084 421.5 C1077.9 436.5 1067.9 456.6 1061.7 466 C1059.4 469.5 1054.2 475.9 1050.1 480.2 C1037.9 493 1027.4 496.8 1017.9 491.8 M1259.2 377.4 C1258.2 377.1 1256 376.4 1254.3 375.8 C1249.7 374.4 1246 370.6 1246 367.3 C1246 363.7 1253.5 356.4 1262.2 351.6 C1273.7 345.1 1313.6 331.3 1315.5 333.1 C1317.3 334.9 1316.6 349.1 1314.5 353.5 C1309.6 363.5 1294.3 373.8 1280.5 376.5 C1272.8 378 1262.4 378.4 1259.2 377.4 M1178 318.6 C1178 318.3 1182.2 309.4 1187.3 298.8 C1202.5 267.4 1217.4 241.7 1223.4 236.8 C1226.3 234.4 1227.1 236.2 1226.4 244 C1225.6 252.3 1219 305.3 1218.7 305.5 C1218.1 305.8 1181.8 318 1180 318.5 C1178.9 318.7 1178 318.8 1178 318.6 M1127 301.2 C1127 300.1 1135.2 273.9 1138.3 265.2 C1141.4 256.3 1147 245.7 1148.9 245.1 C1150.9 244.5 1149.6 254.1 1146.3 263.1 C1142.6 273.6 1127 304.3 1127 301.2 M1270.5 281 C1267.1 275.7 1265.6 268.7 1266.9 264.3 C1271.6 247.2 1296.5 232.2 1314.1 235.9 C1330.9 239.4 1327.1 254 1305.5 268.2 C1298.1 273.1 1275.4 285 1273.5 285 C1273.2 285 1271.8 283.2 1270.5 281 M1414 283.5 C1414 281.5 1421.6 260.5 1424.5 254.6 C1430.6 242 1438.7 235.2 1442.7 239.3 C1447.9 244.5 1439.1 262.1 1424.5 275.8 C1418.6 281.3 1414 284.7 1414 283.5 "/>
 </g>
</svg>